<svg width="16" height="24" viewBox="0 0 16 24" fill="none" xmlns="http://www.w3.org/2000/svg">
<path fill-rule="evenodd" clip-rule="evenodd" d="M13.5078 13.2525L13.5049 13.2557L4.28559 23.3804L4.28366 23.3825C4.1393 23.5416 3.97083 23.6736 3.78482 23.7763L3.72833 23.8076L3.6692 23.8337C3.43888 23.9355 3.17514 24 2.88889 24C2.62193 24 2.34132 23.9432 2.07486 23.8097C1.88057 23.7172 1.67344 23.5807 1.49219 23.3804C1.31516 23.1848 1.20619 22.9762 1.13722 22.7988C1.0524 22.5944 1 22.3648 1 22.1176C1 21.8795 1.04367 21.6523 1.11977 21.4421L1.13817 21.3913L1.16049 21.342C1.23975 21.1668 1.34815 20.9936 1.49219 20.8344L1.49615 20.83L9.56349 11.9908L1.49218 3.16559C1.34813 3.00644 1.23975 2.83317 1.16049 2.65802L1.13817 2.60872L1.11977 2.55789C1.04368 2.3477 1 2.12052 1 1.88235C1 1.63522 1.0524 1.40555 1.13723 1.20122C1.2062 1.02384 1.31516 0.815181 1.49219 0.619589C1.67345 0.419318 1.88059 0.282767 2.07486 0.190283C2.34133 0.0567704 2.62194 0 2.88889 0C3.17513 0 3.43887 0.0645207 3.6692 0.166315L3.72833 0.192447L3.78482 0.223656C3.97029 0.32611 4.13833 0.45768 4.28244 0.616118L13.5078 10.7065C13.6854 10.9027 13.7944 11.112 13.8634 11.2897C13.9624 11.5299 14 11.7698 14 11.9898C14 12.2475 13.9429 12.4717 13.8802 12.6448L13.8618 12.6957L13.8395 12.745C13.7602 12.9201 13.6518 13.0934 13.5078 13.2525Z" fill="#5A9DD1"/>
</svg>
