<svg width="16" height="24" viewBox="0 0 16 24" fill="none" xmlns="http://www.w3.org/2000/svg">
<path fill-rule="evenodd" clip-rule="evenodd" d="M2.49219 13.2525L2.49506 13.2557L11.7144 23.3804L11.7163 23.3825C11.8607 23.5416 12.0292 23.6736 12.2152 23.7763L12.2717 23.8076L12.3308 23.8337C12.5611 23.9355 12.8249 24 13.1111 24C13.3781 24 13.6587 23.9432 13.9251 23.8097C14.1194 23.7172 14.3266 23.5807 14.5078 23.3804C14.6848 23.1848 14.7938 22.9762 14.8628 22.7988C14.9476 22.5944 15 22.3648 15 22.1176C15 21.8795 14.9563 21.6523 14.8802 21.4421L14.8618 21.3913L14.8395 21.342C14.7602 21.1668 14.6518 20.9936 14.5078 20.8344L14.5038 20.83L6.43651 11.9908L14.5078 3.16559C14.6519 3.00644 14.7603 2.83317 14.8395 2.65802L14.8618 2.60872L14.8802 2.55789C14.9563 2.3477 15 2.12052 15 1.88235C15 1.63522 14.9476 1.40555 14.8628 1.20122C14.7938 1.02384 14.6848 0.815181 14.5078 0.619589C14.3265 0.419318 14.1194 0.282767 13.9251 0.190283C13.6587 0.0567704 13.3781 0 13.1111 0C12.8249 0 12.5611 0.0645207 12.3308 0.166315L12.2717 0.192447L12.2152 0.223656C12.0297 0.32611 11.8617 0.45768 11.7176 0.616118L2.49218 10.7065C2.31463 10.9027 2.20556 11.112 2.13662 11.2897C2.03755 11.5299 2 11.7698 2 11.9898C2 12.2475 2.0571 12.4717 2.11977 12.6448L2.13817 12.6957L2.16049 12.745C2.23975 12.9201 2.34815 13.0934 2.49219 13.2525Z" fill="#5A9DD1"/>
</svg>
