<svg width="16" height="24" viewBox="0 0 16 24" fill="none" xmlns="http://www.w3.org/2000/svg">
<path fill-rule="evenodd" clip-rule="evenodd" d="M3.37861 13.1943L3.38082 13.1967L10.4726 20.9849L10.4741 20.9866C10.5852 21.1089 10.7147 21.2105 10.8578 21.2895L10.9013 21.3135L10.9468 21.3336C11.1239 21.4119 11.3268 21.4615 11.547 21.4615C11.7524 21.4615 11.9682 21.4179 12.1732 21.3152C12.3226 21.244 12.482 21.139 12.6214 20.9849C12.7576 20.8345 12.8414 20.674 12.8944 20.5375C12.9597 20.3803 13 20.2037 13 20.0136C13 19.8304 12.9664 19.6556 12.9079 19.4939L12.8937 19.4548L12.8765 19.4169C12.8156 19.2822 12.7322 19.1489 12.6214 19.0265L12.6183 19.0231L6.4127 12.2237L12.6214 5.43507C12.7322 5.31265 12.8156 5.17936 12.8765 5.04463L12.8937 5.00671L12.9079 4.96761C12.9664 4.80593 13 4.63117 13 4.44796C13 4.25786 12.9597 4.08119 12.8944 3.92401C12.8414 3.78757 12.7576 3.62706 12.6214 3.47661C12.482 3.32255 12.3226 3.21751 12.1732 3.14637C11.9682 3.04367 11.7524 3 11.547 3C11.3268 3 11.1239 3.04963 10.9468 3.12793L10.9013 3.14804L10.8578 3.17204C10.7152 3.25085 10.5859 3.35206 10.475 3.47394L3.3786 11.2358C3.24202 11.3867 3.15812 11.5477 3.10509 11.6844C3.02889 11.8691 3 12.0537 3 12.2229C3 12.4211 3.04392 12.5937 3.09213 12.7268L3.10629 12.7659L3.12345 12.8038C3.18443 12.9386 3.26781 13.0718 3.37861 13.1943Z" fill="#5A9DD1"/>
</svg>
