<svg width="16" height="24" viewBox="0 0 16 24" fill="none" xmlns="http://www.w3.org/2000/svg">
<path fill-rule="evenodd" clip-rule="evenodd" d="M12.6214 10.8057L12.6192 10.8033L5.52738 3.01507L5.52589 3.01343C5.41485 2.89111 5.28526 2.78955 5.14217 2.7105L5.09872 2.6865L5.05323 2.6664C4.87606 2.5881 4.67319 2.53846 4.45299 2.53846C4.24764 2.53846 4.03179 2.58213 3.82682 2.68483C3.67736 2.75598 3.51804 2.86102 3.37861 3.01507C3.24243 3.16552 3.15861 3.32603 3.10556 3.46249C3.04031 3.61966 3 3.79632 3 3.98642C3 4.16963 3.0336 4.34438 3.09213 4.50607L3.10629 4.54517L3.12345 4.5831C3.18443 4.71783 3.26781 4.8511 3.37861 4.97352L3.38166 4.97689L9.5873 11.7763L3.3786 18.5649C3.26779 18.6874 3.18442 18.8206 3.12345 18.9554L3.10629 18.9933L3.09213 19.0324C3.0336 19.1941 3 19.3688 3 19.552C3 19.7421 3.04031 19.9188 3.10556 20.076C3.15861 20.2124 3.24243 20.3729 3.37861 20.5234C3.51804 20.6774 3.67738 20.7825 3.82682 20.8536C4.03179 20.9563 4.24765 21 4.45299 21C4.67318 21 4.87605 20.9504 5.05323 20.8721L5.09872 20.852L5.14217 20.828C5.28484 20.7491 5.4141 20.6479 5.52495 20.5261L12.6214 12.7642C12.758 12.6133 12.8419 12.4523 12.8949 12.3156C12.9711 12.1309 13 11.9463 13 11.7771C13 11.5789 12.9561 11.4063 12.9079 11.2732L12.8937 11.2341L12.8766 11.1962C12.8156 11.0614 12.7322 10.9282 12.6214 10.8057Z" fill="#5A9DD1"/>
</svg>
