<svg width="20" height="10" viewBox="0 0 20 10" fill="none" xmlns="http://www.w3.org/2000/svg">
<path d="M16.2653 8.26172C16.1937 7.76042 16.2751 7.27214 16.5095 6.79688C16.7504 6.3151 17.0369 5.83333 17.369 5.35156C17.7075 4.86979 18.0396 4.37826 18.3652 3.87695C18.6907 3.37565 18.9023 2.85482 19 2.31445C18.7721 2.28841 18.5247 2.26888 18.2577 2.25586C17.9973 2.23633 17.7271 2.22656 17.4471 2.22656C16.4704 2.22656 15.497 2.32096 14.5269 2.50977C13.5567 2.69857 12.5898 2.94596 11.6262 3.25195C10.669 3.55143 9.71188 3.88672 8.75475 4.25781C7.79761 4.62891 6.84048 5 5.88334 5.37109C7.15301 4.83724 7.85621 4.55729 7.99295 4.53125C8.12317 4.50521 7.88551 4.61914 7.27998 4.87305C6.67444 5.12695 5.7987 5.46875 4.65274 5.89844C3.50678 6.32812 2.2892 6.73503 1 7.11914L1.13673 8.97461V10H17.3299C17.3299 9.22526 17.1736 8.86719 16.8611 8.92578C16.5551 8.97786 16.3565 8.75325 16.2653 8.25195V8.26172ZM14.8296 5.83984C14.6213 5.83984 14.4455 5.76823 14.3022 5.625C14.159 5.47526 14.0874 5.29948 14.0874 5.09766C14.0874 4.88932 14.159 4.71354 14.3022 4.57031C14.4455 4.42708 14.6213 4.35547 14.8296 4.35547C15.0315 4.35547 15.204 4.42708 15.3473 4.57031C15.497 4.71354 15.5719 4.88932 15.5719 5.09766C15.5719 5.29948 15.497 5.47526 15.3473 5.625C15.204 5.76823 15.0315 5.83984 14.8296 5.83984ZM11.1867 1.50391L11.4211 1.83594H12.0754L11.8313 1.50391H11.1476H11.1867ZM11.4894 2.63672L10.5714 1.19141H13.9116L14.3218 1.66992L14.5757 1.58203L14.1557 0.751953H12.6224L12.2317 0H8.37385L3.72491 2.57812V3.86719L2.3185 4.54102V6.05469C2.61801 5.95703 2.91753 5.85612 3.21704 5.75195C3.51655 5.64779 3.81281 5.54036 4.10581 5.42969C4.40532 5.31901 4.70157 5.20833 4.99457 5.09766C5.28757 4.98047 5.57732 4.86328 5.86381 4.74609C6.33261 4.55729 6.79815 4.36849 7.26044 4.17969C7.72925 3.99089 8.19805 3.80859 8.66685 3.63281C9.13565 3.45052 9.60445 3.27474 10.0732 3.10547C10.5486 2.94271 11.0206 2.78646 11.4894 2.63672ZM11.9875 0.449219L12.2708 0.742188H11.0988L10.9718 0.576172H10.2783L10.3956 0.742188H10.2881L10.1123 0.830078L9.92675 0.585938H9.24308L9.47748 0.917969H9.93652L9.17472 1.28906L8.65708 0.449219H11.9973H11.9875ZM4.04721 2.86133L8.39338 0.712891L8.54965 0.947266L4.04721 3.04688V2.86133ZM2.80684 4.79492L9.99512 1.72852L10.2686 2.14844L2.758 5.11719L2.80684 4.79492ZM13.1107 1.79688L12.8665 1.45508H12.1926L12.4368 1.79688H13.1205H13.1107ZM12.3977 2.40234L12.2024 2.07031H11.4894L11.6945 2.40234H12.4075H12.3977Z" fill="white"/>
</svg>
