<svg width="16" height="16" viewBox="0 0 16 16" fill="none" xmlns="http://www.w3.org/2000/svg">
<path d="M8.53015 9.0055C8.23514 9.22401 7.90453 9.39569 7.53831 9.52055C7.18227 9.64541 6.80588 9.70784 6.40914 9.70784C6.0124 9.70784 5.63093 9.64541 5.26471 9.52055C4.90866 9.39569 4.57805 9.22401 4.27287 9.0055C4.1251 8.90474 3.91671 8.905 3.76932 9.0055C3.34207 9.31765 2.96059 9.67662 2.62489 10.0824C2.27902 10.4882 1.98401 10.9252 1.73986 11.3934C1.50589 11.8617 1.32787 12.3611 1.2058 12.8918C0.830735 14.3967 0.814451 15.5109 2.50282 15.7323C2.89955 15.7843 3.30646 15.8312 3.72354 15.8728C4.14062 15.9144 4.56279 15.9456 4.99005 15.9664C5.93102 16.0112 6.872 16.0112 7.81297 15.9664C8.24023 15.9456 8.66748 15.9144 9.09474 15.8728C9.52199 15.8312 9.94416 15.7791 10.3612 15.7167C12.114 15.5033 12.0138 14.5635 11.5972 12.8918C11.4752 12.3611 11.292 11.8617 11.0479 11.3934C10.8139 10.9252 10.5291 10.4882 10.1934 10.0824C9.85769 9.68703 9.48639 9.33326 9.07948 9.02111C8.89384 8.92617 8.7233 8.90672 8.53015 9.0055ZM6.40914 9.25522C6.41931 9.25522 6.42948 9.25522 6.43966 9.25522C6.87708 9.25522 7.29417 9.17198 7.6909 9.0055C8.07747 8.82862 8.41317 8.5945 8.698 8.30317C8.99301 8.00142 9.22698 7.65285 9.39992 7.25747C9.56268 6.85167 9.64406 6.42507 9.64406 5.97765C9.64406 5.51984 9.56268 5.09323 9.39992 4.69784C9.22698 4.30245 8.99301 3.95909 8.698 3.66775C8.41317 3.36601 8.07747 3.12669 7.6909 2.94981C7.29417 2.78333 6.87708 2.70009 6.43966 2.70009C5.99206 2.70009 5.57498 2.78333 5.18841 2.94981C4.80185 3.11629 4.46106 3.3504 4.16606 3.65214C3.88122 3.94348 3.65233 4.28685 3.4794 4.68224C3.31663 5.07763 3.23525 5.50423 3.23525 5.96205C3.23525 5.96205 3.23525 5.96725 3.23525 5.97765C3.23525 5.97765 3.23525 5.98286 3.23525 5.99326C3.23525 6.44068 3.31663 6.86208 3.4794 7.25747C3.64216 7.65285 3.86596 8.00142 4.1508 8.30317C4.44581 8.5945 4.78659 8.82341 5.17315 8.98989C5.55972 9.16678 5.97171 9.25522 6.40914 9.25522ZM11.0326 6.75803C10.7376 6.88289 10.4172 6.97133 10.0713 7.02335C10.0713 7.10659 10.0052 7.29388 9.87295 7.58522C9.75088 7.86616 9.58303 8.14709 9.3694 8.42803L9.38466 8.41242C9.58811 8.45404 9.91873 8.72457 10.3765 9.22401C10.8444 9.71304 11.2463 10.3009 11.582 10.9876C11.6227 10.9981 11.7244 11.2166 11.8871 11.6432C12.0499 12.0698 12.1822 12.5536 12.2839 13.0947C12.8764 13.0799 14.8473 13.173 15 12.4704C15 11.7162 14.9848 10.958 14.8016 10.2229C14.6694 9.69223 14.4812 9.19279 14.237 8.72457C14.0031 8.25634 13.7182 7.81933 13.3825 7.41354C12.4707 6.31134 12.191 6.22692 11.0326 6.75803ZM10.2239 6.52392C10.9869 6.37825 11.6227 6.00367 12.1313 5.40018C12.6399 4.79669 12.8942 4.08915 12.8942 3.27757C12.8942 2.83015 12.8078 2.40355 12.6348 1.99775C12.4721 1.60237 12.2432 1.259 11.9482 0.967662C11.6532 0.665918 11.3124 0.426604 10.9258 0.249719C10.5393 0.0832397 10.1222 0 9.67458 0C8.99969 0 8.35783 0.165247 7.79772 0.561868C7.27891 0.936447 6.89743 1.41508 6.65328 1.99775C7.16192 2.03937 7.62987 2.16944 8.05712 2.38794C8.49455 2.61685 8.87094 2.90819 9.18629 3.26196C9.51182 3.61573 9.76614 4.02152 9.94925 4.47934C10.1733 5.03966 10.3719 5.91839 10.2239 6.52392Z" fill="#22A639"/>
</svg>
