<svg width="20" height="20" viewBox="0 0 20 20" fill="none" xmlns="http://www.w3.org/2000/svg">
<path fill-rule="evenodd" clip-rule="evenodd" d="M7.51484 8.88449C7.48855 8.89815 7.46244 8.90497 7.43632 8.90497C7.41003 8.90497 7.37734 8.90497 7.33808 8.90497C7.03662 8.90497 6.77492 8.80291 6.55233 8.59879C6.32956 8.39467 6.1988 8.14311 6.15937 7.84358C6.15937 7.81662 6.15937 7.78948 6.15937 7.762C6.15937 7.73486 6.15937 7.70073 6.15937 7.65994C6.15937 7.36093 6.25424 7.09204 6.44431 6.85378C6.63405 6.61587 6.87316 6.47617 7.16131 6.43538C7.18743 6.43538 7.21355 6.43223 7.23984 6.42523C7.26596 6.41857 7.28567 6.41507 7.29881 6.41507C7.59994 6.41507 7.8618 6.51381 8.08457 6.71093C8.30716 6.9084 8.43826 7.15681 8.47752 7.45581C8.4905 7.4833 8.49724 7.51393 8.49724 7.54772C8.49724 7.58186 8.49724 7.61915 8.49724 7.65994C8.49724 7.95947 8.40203 8.22468 8.21229 8.45594C8.02239 8.68737 7.79001 8.83022 7.51484 8.88449ZM12.5439 11.0887C12.5701 11.0887 12.5962 11.0855 12.6226 11.0785C12.6488 11.0717 12.6816 11.0682 12.7209 11.0682C13.022 11.0682 13.2839 11.1703 13.5066 11.3744C13.7292 11.5785 13.8602 11.8304 13.8996 12.1296C13.8996 12.1704 13.9026 12.208 13.9094 12.2418C13.9158 12.276 13.9191 12.3066 13.9191 12.3336C13.9191 12.6467 13.8241 12.9188 13.6344 13.15C13.4443 13.3815 13.2119 13.5243 12.9369 13.5786C12.9105 13.5786 12.8811 13.5821 12.8486 13.5887C12.8158 13.5957 12.7863 13.5991 12.7601 13.5991C12.4587 13.5991 12.1968 13.4937 11.9744 13.2827C11.7515 13.0718 11.6207 12.8167 11.5814 12.5174C11.5683 12.4902 11.5617 12.4596 11.5617 12.4255C11.5617 12.3917 11.5617 12.354 11.5617 12.3132C11.5617 12.0141 11.6566 11.7488 11.8467 11.5172C12.0364 11.2862 12.2689 11.1431 12.5439 11.0887ZM18.9287 8.35388C20.3167 9.04782 20.356 9.837 19.0465 10.7212C18.6665 10.9121 18.359 11.1908 18.1232 11.558C17.8875 11.9255 17.7695 12.3407 17.7695 12.8031C17.7695 13.048 17.8054 13.2827 17.8777 13.5072C17.9495 13.7316 18.0445 13.9326 18.1625 14.1092C18.8825 15.5244 18.4768 16.1776 16.9445 16.0685C16.8788 16.0685 16.8134 16.0653 16.748 16.0583C16.6823 16.0515 16.6169 16.048 16.5516 16.048C15.949 16.048 15.4318 16.266 14.9996 16.7012C14.5674 17.1367 14.3382 17.6603 14.3121 18.2727C14.0892 19.8372 13.3819 20.1094 12.1904 19.089C11.9939 18.8577 11.7548 18.6776 11.4734 18.5482C11.1917 18.419 10.8872 18.3543 10.5599 18.3543C10.2062 18.3543 9.87226 18.4359 9.55799 18.5992C9.24373 18.7625 8.98827 18.9869 8.79179 19.2726C7.70458 20.4156 6.97124 20.2115 6.59159 18.6605C6.51306 18.0891 6.26418 17.6129 5.8451 17.2318C5.42585 16.851 4.93465 16.6604 4.37167 16.6604C4.25388 16.6604 4.13913 16.6674 4.02792 16.6807C3.91653 16.6945 3.81492 16.7148 3.72342 16.742C2.19118 17.0144 1.71296 16.4155 2.28942 14.946C2.38092 14.7827 2.44967 14.606 2.49568 14.4154C2.54134 14.2249 2.56443 14.0276 2.56443 13.8235C2.56443 13.3202 2.42355 12.8713 2.14198 12.4766C1.86023 12.082 1.5035 11.8099 1.07145 11.6601C-0.316715 10.9528 -0.355977 10.1703 0.953495 9.31304C1.33314 9.12275 1.64101 8.8437 1.87675 8.47625C2.11249 8.10897 2.23045 7.69407 2.23045 7.23138C2.23045 6.98647 2.19422 6.75172 2.12243 6.52729C2.05031 6.30268 1.95544 6.10224 1.83749 5.92525C1.10397 4.51023 1.51008 3.85725 3.05546 3.96596C3.12084 3.97962 3.18622 3.98977 3.25194 3.9966C3.31732 4.0036 3.38944 4.00675 3.46813 4.00675C4.07038 4.00675 4.5909 3.78232 5.02986 3.33329C5.46849 2.88426 5.68788 2.34699 5.68788 1.72097C5.91048 0.156445 6.61771 -0.11595 7.80956 0.904659C8.01902 1.13609 8.26453 1.31623 8.54628 1.44542C8.82768 1.57479 9.12577 1.63922 9.44021 1.63922C9.80671 1.63922 10.1439 1.55764 10.4519 1.39431C10.7595 1.23115 11.0181 1.00654 11.2279 0.720844C12.3015 -0.408303 13.0351 -0.210834 13.4281 1.31273C13.5066 1.88413 13.7521 2.36065 14.1648 2.74141C14.5773 3.12251 15.0716 3.31281 15.6479 3.31281C15.7527 3.31281 15.8607 3.30265 15.9721 3.28217C16.0831 3.26186 16.1847 3.23823 16.2766 3.21075C17.7825 2.96583 18.2607 3.5782 17.7107 5.04767C17.632 5.21082 17.5663 5.38781 17.5142 5.57828C17.4617 5.76892 17.4356 5.96604 17.4356 6.17016C17.4356 6.67364 17.5763 7.12267 17.858 7.51709C18.1394 7.91185 18.5029 8.19055 18.9482 8.35388H18.9287ZM5.39333 7.98643C5.45871 8.47625 5.67474 8.89149 6.04158 9.23146C6.40808 9.57178 6.83373 9.74177 7.31853 9.74177C7.3706 9.74177 7.4198 9.74177 7.46581 9.74177C7.51147 9.74177 7.55427 9.73494 7.59353 9.72129C8.07783 9.65336 8.48056 9.42526 8.80173 9.0375C9.1224 8.64973 9.28299 8.19755 9.28299 7.68042C9.28299 7.62615 9.27962 7.5717 9.27322 7.51709C9.26648 7.46282 9.26328 7.40837 9.26328 7.35375C9.19756 6.86393 8.98153 6.44921 8.61503 6.10889C8.24819 5.76892 7.81596 5.59859 7.31853 5.59859C7.26596 5.59859 7.21035 5.60209 7.15154 5.60891C7.09256 5.61592 7.03662 5.61907 6.98455 5.61907C6.52587 5.71448 6.14285 5.95256 5.83533 6.33332C5.52746 6.71443 5.37362 7.15681 5.37362 7.65994C5.37362 7.71456 5.37362 7.769 5.37362 7.82327C5.37362 7.87771 5.38002 7.92533 5.39333 7.96612V7.98643ZM14.0371 6.57823C14.0764 6.53744 14.1089 6.49 14.1353 6.43538C14.1613 6.38129 14.1746 6.32001 14.1746 6.25174C14.1746 6.18382 14.1613 6.12254 14.1353 6.0681C14.1089 6.01383 14.0764 5.96604 14.0371 5.92525C13.9978 5.87098 13.9517 5.83334 13.8996 5.81286C13.847 5.79255 13.788 5.7824 13.7227 5.7824C13.6703 5.7824 13.6146 5.79255 13.5557 5.81286C13.4969 5.83334 13.4477 5.87098 13.4084 5.92525L6.08084 13.5173C6.04158 13.5581 6.01209 13.6061 5.99238 13.6602C5.97283 13.7148 5.96306 13.7761 5.96306 13.844C5.96306 13.9121 5.97283 13.9734 5.99238 14.0276C6.01209 14.0821 6.04158 14.1297 6.08084 14.1705C6.1201 14.2249 6.16594 14.2622 6.21834 14.2827C6.27058 14.3032 6.32956 14.3133 6.39511 14.3133C6.46049 14.3133 6.51947 14.3032 6.57204 14.2827C6.62411 14.2622 6.67011 14.2249 6.70954 14.1705L14.0371 6.57823ZM12.9762 14.3949C13.4477 14.3133 13.8406 14.0821 14.1549 13.701C14.4693 13.3202 14.6264 12.878 14.6264 12.3745C14.6264 12.3202 14.6264 12.2656 14.6264 12.2112C14.6264 12.1569 14.6196 12.1025 14.6068 12.0479C14.5411 11.5447 14.3249 11.1263 13.9584 10.7927C13.5917 10.4595 13.1595 10.2927 12.6619 10.2927C12.6093 10.2927 12.5569 10.2927 12.5047 10.2927C12.4523 10.2927 12.3997 10.2997 12.3476 10.3132C11.889 10.4084 11.5059 10.6467 11.1984 11.0274C10.8906 11.4085 10.7367 11.8437 10.7367 12.3336C10.7367 12.4018 10.7397 12.4631 10.7465 12.5174C10.7529 12.5718 10.7564 12.6264 10.7564 12.6805C10.8218 13.1703 11.0378 13.5821 11.4047 13.9154C11.7712 14.2489 12.2034 14.4154 12.7012 14.4154C12.7534 14.4154 12.8024 14.4154 12.8486 14.4154C12.8943 14.4154 12.9369 14.4087 12.9762 14.3949Z" fill="#5EB26D"/>
</svg>
