<svg width="199" height="17" viewBox="0 0 199 17" fill="none" xmlns="http://www.w3.org/2000/svg">
<path d="M15.2653 11.2617C15.1937 10.7604 15.2751 10.2721 15.5095 9.79688C15.7504 9.3151 16.0369 8.83333 16.369 8.35156C16.7075 7.86979 17.0396 7.37826 17.3652 6.87695C17.6907 6.37565 17.9023 5.85482 18 5.31445C17.7721 5.28841 17.5247 5.26888 17.2577 5.25586C16.9973 5.23633 16.7271 5.22656 16.4471 5.22656C15.4704 5.22656 14.497 5.32096 13.5269 5.50977C12.5567 5.69857 11.5898 5.94596 10.6262 6.25195C9.66902 6.55143 8.71188 6.88672 7.75475 7.25781C6.79761 7.62891 5.84048 8 4.88334 8.37109C6.15301 7.83724 6.85621 7.55729 6.99295 7.53125C7.12317 7.50521 6.88551 7.61914 6.27998 7.87305C5.67444 8.12695 4.7987 8.46875 3.65274 8.89844C2.50678 9.32812 1.2892 9.73503 0 10.1191L0.136734 11.9746V13H16.3299C16.3299 12.2253 16.1736 11.8672 15.8611 11.9258C15.5551 11.9779 15.3565 11.7533 15.2653 11.252V11.2617ZM13.8296 8.83984C13.6213 8.83984 13.4455 8.76823 13.3022 8.625C13.159 8.47526 13.0874 8.29948 13.0874 8.09766C13.0874 7.88932 13.159 7.71354 13.3022 7.57031C13.4455 7.42708 13.6213 7.35547 13.8296 7.35547C14.0315 7.35547 14.204 7.42708 14.3473 7.57031C14.497 7.71354 14.5719 7.88932 14.5719 8.09766C14.5719 8.29948 14.497 8.47526 14.3473 8.625C14.204 8.76823 14.0315 8.83984 13.8296 8.83984ZM10.1867 4.50391L10.4211 4.83594H11.0754L10.8313 4.50391H10.1476H10.1867ZM10.4894 5.63672L9.57135 4.19141H12.9116L13.3218 4.66992L13.5757 4.58203L13.1557 3.75195H11.6224L11.2317 3H7.37385L2.72491 5.57812V6.86719L1.3185 7.54102V9.05469C1.61801 8.95703 1.91753 8.85612 2.21704 8.75195C2.51655 8.64779 2.81281 8.54036 3.10581 8.42969C3.40532 8.31901 3.70157 8.20833 3.99457 8.09766C4.28757 7.98047 4.57732 7.86328 4.86381 7.74609C5.33261 7.55729 5.79815 7.36849 6.26044 7.17969C6.72925 6.99089 7.19805 6.80859 7.66685 6.63281C8.13565 6.45052 8.60445 6.27474 9.07325 6.10547C9.54856 5.94271 10.0206 5.78646 10.4894 5.63672ZM10.9875 3.44922L11.2708 3.74219H10.0988L9.97178 3.57617H9.27835L9.39555 3.74219H9.28812L9.11232 3.83008L8.92675 3.58594H8.24308L8.47748 3.91797H8.93652L8.17472 4.28906L7.65708 3.44922H10.9973H10.9875ZM3.04721 5.86133L7.39338 3.71289L7.54965 3.94727L3.04721 6.04688V5.86133ZM1.80684 7.79492L8.99512 4.72852L9.26858 5.14844L1.758 8.11719L1.80684 7.79492ZM12.1107 4.79688L11.8665 4.45508H11.1926L11.4368 4.79688H12.1205H12.1107ZM11.3977 5.40234L11.2024 5.07031H10.4894L10.6945 5.40234H11.4075H11.3977Z" fill="white"/>
<path d="M26.6 7.40069L29 7.39954V8.60046L26.6 8.59931L26.6 11L25.4 10.9988V8.60046H23V7.40069H25.4V5H26.6V7.40069Z" fill="white"/>
<path d="M38.3523 16H39.5942C39.8121 16 40.0028 15.8899 40.115 15.7197L43.7205 9.65224C43.8117 9.46754 44.0052 9.33686 44.2112 9.34186H48.3374C49.4214 9.34601 49.9899 8.89128 49.9999 7.94015C50.0099 6.98901 49.0568 6.65794 48.3474 6.65858H44.2412C44.0346 6.65858 43.8371 6.55913 43.7305 6.37824L40.095 0.28078C39.9874 0.110237 39.7957 -0.00814095 39.5942 0.000437679H38.3924L38.2121 0.310817L40.1651 6.32818L39.9648 6.64857H36.7199C36.5004 6.64857 36.335 6.55713 36.1991 6.38825L35.6182 5.61731C35.4948 5.47027 35.2823 5.35225 35.0874 5.35699H34.2462C34.1127 5.34772 33.9922 5.4843 34.0058 5.61731L34.5867 8.29057L34.0058 10.3331C33.9873 10.4995 34.0045 10.6353 34.1861 10.6535H35.0874C35.3053 10.6535 35.4771 10.5544 35.6182 10.3931L36.1991 9.60218C36.3141 9.4322 36.5147 9.32561 36.7199 9.33185H39.9948L40.1851 9.66225L38.1821 15.6796L38.3523 16Z" fill="white"/>
<path d="M62.2266 8.35938H61.2266V13H58.9297V1.625H61.2266V6.17188H62L63.9766 1.625H66.7734L63.9922 6.92188L67.0859 13H64.3516L62.2266 8.35938Z" fill="white"/>
<path d="M74.4219 9.03906C74.4219 10.3672 74.1927 11.3854 73.7344 12.0938C73.2812 12.8021 72.6042 13.1562 71.7031 13.1562C71.0156 13.1562 70.4635 12.8776 70.0469 12.3203V16.25H67.8359V4.54688H69.8828L69.9609 5.32031C70.3828 4.70052 70.9583 4.39062 71.6875 4.39062C72.5885 4.39062 73.2656 4.71875 73.7188 5.375C74.1771 6.03125 74.4115 7.03646 74.4219 8.39062V9.03906ZM72.2188 8.48438C72.2188 7.66667 72.1276 7.08854 71.9453 6.75C71.7682 6.41146 71.4661 6.24219 71.0391 6.24219C70.5859 6.24219 70.2552 6.43229 70.0469 6.8125V10.7734C70.2448 11.138 70.5807 11.3203 71.0547 11.3203C71.4922 11.3203 71.7943 11.1354 71.9609 10.7656C72.1328 10.3958 72.2188 9.82031 72.2188 9.03906V8.48438Z" fill="white"/>
<path d="M78.375 9.32031L79.5 4.54688H81.8594L79.0781 14.2656C78.6615 15.6979 77.8776 16.4141 76.7266 16.4141C76.4609 16.4141 76.1589 16.3646 75.8203 16.2656V14.5391L76.0781 14.5469C76.4219 14.5469 76.6797 14.4792 76.8516 14.3438C77.0286 14.2135 77.1615 13.9844 77.25 13.6562L77.4219 13.0859L74.9844 4.54688H77.3594L78.375 9.32031Z" fill="white"/>
<path d="M86.9844 4.54688H89.1875V13H86.9844V7.80469L85.0156 13H82.7969V4.54688H85.0156V9.73438L86.9844 4.54688Z" fill="white"/>
<path d="M94.3984 7.04688C94.3984 6.42708 94.1641 6.11719 93.6953 6.11719C93.4401 6.11719 93.2396 6.19271 93.0938 6.34375C92.9479 6.48958 92.875 6.70312 92.875 6.98438H90.6641C90.6641 6.21875 90.9349 5.59635 91.4766 5.11719C92.0182 4.63802 92.7188 4.39844 93.5781 4.39844C94.5208 4.39844 95.2604 4.61458 95.7969 5.04688C96.3333 5.47396 96.6016 6.07812 96.6016 6.85938C96.6016 7.23438 96.5052 7.58073 96.3125 7.89844C96.1198 8.21094 95.8516 8.46094 95.5078 8.64844C96.3203 8.99219 96.7266 9.64583 96.7266 10.6094C96.7266 11.3802 96.4401 11.9974 95.8672 12.4609C95.2943 12.9245 94.5286 13.1562 93.5703 13.1562C92.6797 13.1562 91.9531 12.9167 91.3906 12.4375C90.8333 11.9531 90.5547 11.3073 90.5547 10.5H92.7656C92.7656 10.7969 92.849 11.0286 93.0156 11.1953C93.1823 11.362 93.4089 11.4453 93.6953 11.4453C93.9661 11.4453 94.1719 11.3568 94.3125 11.1797C94.4531 10.9974 94.5234 10.75 94.5234 10.4375C94.5234 9.77604 94.2656 9.4349 93.75 9.41406H92.6484V7.94531H93.6953C94.1641 7.9401 94.3984 7.64062 94.3984 7.04688Z" fill="white"/>
<path d="M106.6 7.40069L109 7.39954V8.60046L106.6 8.59931L106.6 11L105.4 10.9988V8.60046H103V7.40069H105.4V5H106.6V7.40069Z" fill="white"/>
<path d="M118.82 13C118.758 12.8698 118.695 12.651 118.633 12.3438C118.237 12.8854 117.701 13.1562 117.023 13.1562C116.315 13.1562 115.727 12.9219 115.258 12.4531C114.794 11.9844 114.562 11.3776 114.562 10.6328C114.562 9.7474 114.844 9.0625 115.406 8.57812C115.974 8.09375 116.789 7.84635 117.852 7.83594H118.523V7.15625C118.523 6.77604 118.458 6.50781 118.328 6.35156C118.198 6.19531 118.008 6.11719 117.758 6.11719C117.206 6.11719 116.93 6.4401 116.93 7.08594H114.719C114.719 6.30469 115.01 5.66146 115.594 5.15625C116.182 4.64583 116.924 4.39062 117.82 4.39062C118.747 4.39062 119.464 4.63281 119.969 5.11719C120.479 5.59635 120.734 6.28385 120.734 7.17969V11.1562C120.745 11.8854 120.849 12.4557 121.047 12.8672V13H118.82ZM117.516 11.4219C117.76 11.4219 117.969 11.3724 118.141 11.2734C118.312 11.1745 118.44 11.0573 118.523 10.9219V9.16406H117.992C117.617 9.16406 117.32 9.28385 117.102 9.52344C116.888 9.76302 116.781 10.0833 116.781 10.4844C116.781 11.1094 117.026 11.4219 117.516 11.4219Z" fill="white"/>
<path d="M122.477 13V4.54688H125.547C126.531 4.54688 127.286 4.75 127.812 5.15625C128.344 5.5625 128.609 6.14583 128.609 6.90625C128.609 7.29688 128.495 7.64844 128.266 7.96094C128.042 8.26823 127.714 8.50521 127.281 8.67188C127.807 8.78125 128.221 9.0026 128.523 9.33594C128.831 9.66406 128.984 10.0807 128.984 10.5859C128.984 12.1953 127.971 13 125.945 13H122.477ZM124.68 9.5V11.1797H126C126.286 11.1797 126.487 11.1094 126.602 10.9688C126.716 10.8281 126.773 10.6224 126.773 10.3516C126.773 10.0391 126.711 9.82031 126.586 9.69531C126.461 9.57031 126.281 9.50521 126.047 9.5H124.68ZM124.68 7.97656H125.578C125.875 7.97656 126.083 7.91406 126.203 7.78906C126.328 7.65885 126.391 7.46875 126.391 7.21875C126.391 6.67188 126.135 6.38802 125.625 6.36719H124.68V7.97656Z" fill="white"/>
<path d="M134.484 4.54688H136.688V13H134.484V7.80469L132.516 13H130.297V4.54688H132.516V9.73438L134.484 4.54688Z" fill="white"/>
<path d="M142.32 13C142.258 12.8698 142.195 12.651 142.133 12.3438C141.737 12.8854 141.201 13.1562 140.523 13.1562C139.815 13.1562 139.227 12.9219 138.758 12.4531C138.294 11.9844 138.062 11.3776 138.062 10.6328C138.062 9.7474 138.344 9.0625 138.906 8.57812C139.474 8.09375 140.289 7.84635 141.352 7.83594H142.023V7.15625C142.023 6.77604 141.958 6.50781 141.828 6.35156C141.698 6.19531 141.508 6.11719 141.258 6.11719C140.706 6.11719 140.43 6.4401 140.43 7.08594H138.219C138.219 6.30469 138.51 5.66146 139.094 5.15625C139.682 4.64583 140.424 4.39062 141.32 4.39062C142.247 4.39062 142.964 4.63281 143.469 5.11719C143.979 5.59635 144.234 6.28385 144.234 7.17969V11.1562C144.245 11.8854 144.349 12.4557 144.547 12.8672V13H142.32ZM141.016 11.4219C141.26 11.4219 141.469 11.3724 141.641 11.2734C141.812 11.1745 141.94 11.0573 142.023 10.9219V9.16406H141.492C141.117 9.16406 140.82 9.28385 140.602 9.52344C140.388 9.76302 140.281 10.0833 140.281 10.4844C140.281 11.1094 140.526 11.4219 141.016 11.4219Z" fill="white"/>
<path d="M152.219 13H150.008V6.39062H148.047V13H145.828V4.54688H152.219V13Z" fill="white"/>
<path d="M157.25 13.1562C156.115 13.1562 155.229 12.8177 154.594 12.1406C153.958 11.4635 153.641 10.4948 153.641 9.23438V8.5625C153.641 7.22917 153.932 6.20052 154.516 5.47656C155.099 4.7526 155.935 4.39062 157.023 4.39062C158.086 4.39062 158.885 4.73177 159.422 5.41406C159.958 6.09115 160.232 7.09635 160.242 8.42969V9.51562H155.844C155.875 10.1406 156.013 10.599 156.258 10.8906C156.503 11.1771 156.88 11.3203 157.391 11.3203C158.13 11.3203 158.747 11.0677 159.242 10.5625L160.109 11.8984C159.839 12.2734 159.445 12.5781 158.93 12.8125C158.414 13.0417 157.854 13.1562 157.25 13.1562ZM155.859 7.96875H158.07V7.76562C158.06 7.26042 157.977 6.8776 157.82 6.61719C157.664 6.35677 157.393 6.22656 157.008 6.22656C156.622 6.22656 156.341 6.36458 156.164 6.64062C155.992 6.91667 155.891 7.35938 155.859 7.96875Z" fill="white"/>
<path d="M168.078 9.03906C168.078 10.3672 167.849 11.3854 167.391 12.0938C166.938 12.8021 166.26 13.1562 165.359 13.1562C164.672 13.1562 164.12 12.8776 163.703 12.3203V16.25H161.492V4.54688H163.539L163.617 5.32031C164.039 4.70052 164.615 4.39062 165.344 4.39062C166.245 4.39062 166.922 4.71875 167.375 5.375C167.833 6.03125 168.068 7.03646 168.078 8.39062V9.03906ZM165.875 8.48438C165.875 7.66667 165.784 7.08854 165.602 6.75C165.424 6.41146 165.122 6.24219 164.695 6.24219C164.242 6.24219 163.911 6.43229 163.703 6.8125V10.7734C163.901 11.138 164.237 11.3203 164.711 11.3203C165.148 11.3203 165.451 11.1354 165.617 10.7656C165.789 10.3958 165.875 9.82031 165.875 9.03906V8.48438Z" fill="white"/>
<path d="M172.828 13.1562C171.693 13.1562 170.807 12.8177 170.172 12.1406C169.536 11.4635 169.219 10.4948 169.219 9.23438V8.5625C169.219 7.22917 169.51 6.20052 170.094 5.47656C170.677 4.7526 171.513 4.39062 172.602 4.39062C173.664 4.39062 174.464 4.73177 175 5.41406C175.536 6.09115 175.81 7.09635 175.82 8.42969V9.51562H171.422C171.453 10.1406 171.591 10.599 171.836 10.8906C172.081 11.1771 172.458 11.3203 172.969 11.3203C173.708 11.3203 174.326 11.0677 174.82 10.5625L175.688 11.8984C175.417 12.2734 175.023 12.5781 174.508 12.8125C173.992 13.0417 173.432 13.1562 172.828 13.1562ZM171.438 7.96875H173.648V7.76562C173.638 7.26042 173.555 6.8776 173.398 6.61719C173.242 6.35677 172.971 6.22656 172.586 6.22656C172.201 6.22656 171.919 6.36458 171.742 6.64062C171.57 6.91667 171.469 7.35938 171.438 7.96875Z" fill="white"/>
<path d="M183.461 4.54688V13H181.25V6.39062H179.938L179.812 9C179.734 10.3542 179.492 11.3568 179.086 12.0078C178.68 12.6536 178.076 12.9844 177.273 13H176.555L176.531 11.1562L176.781 11.125C177.078 11.0833 177.297 10.8672 177.438 10.4766C177.578 10.0859 177.669 9.44531 177.711 8.55469L177.859 4.54688H183.461Z" fill="white"/>
<path d="M188.484 13.1562C187.349 13.1562 186.464 12.8177 185.828 12.1406C185.193 11.4635 184.875 10.4948 184.875 9.23438V8.5625C184.875 7.22917 185.167 6.20052 185.75 5.47656C186.333 4.7526 187.169 4.39062 188.258 4.39062C189.32 4.39062 190.12 4.73177 190.656 5.41406C191.193 6.09115 191.466 7.09635 191.477 8.42969V9.51562H187.078C187.109 10.1406 187.247 10.599 187.492 10.8906C187.737 11.1771 188.115 11.3203 188.625 11.3203C189.365 11.3203 189.982 11.0677 190.477 10.5625L191.344 11.8984C191.073 12.2734 190.68 12.5781 190.164 12.8125C189.648 13.0417 189.089 13.1562 188.484 13.1562ZM187.094 7.96875H189.305V7.76562C189.294 7.26042 189.211 6.8776 189.055 6.61719C188.898 6.35677 188.628 6.22656 188.242 6.22656C187.857 6.22656 187.576 6.36458 187.398 6.64062C187.227 6.91667 187.125 7.35938 187.094 7.96875ZM184.969 2.33594C184.969 2.04948 185.073 1.8125 185.281 1.625C185.495 1.43229 185.753 1.33594 186.055 1.33594C186.357 1.33594 186.612 1.43229 186.82 1.625C187.034 1.8125 187.141 2.04948 187.141 2.33594C187.141 2.61719 187.034 2.85417 186.82 3.04688C186.612 3.23438 186.357 3.32812 186.055 3.32812C185.753 3.32812 185.495 3.23438 185.281 3.04688C185.073 2.85417 184.969 2.61719 184.969 2.33594ZM188.789 2.33594C188.789 2.05469 188.893 1.82031 189.102 1.63281C189.315 1.4401 189.573 1.34375 189.875 1.34375C190.177 1.34375 190.432 1.4401 190.641 1.63281C190.854 1.82031 190.961 2.05469 190.961 2.33594C190.961 2.60677 190.859 2.84115 190.656 3.03906C190.458 3.23177 190.198 3.32812 189.875 3.32812C189.552 3.32812 189.289 3.23177 189.086 3.03906C188.888 2.84115 188.789 2.60677 188.789 2.33594Z" fill="white"/>
<path d="M198.719 6.36719H196.547V13H194.336V6.36719H192.18V4.54688H198.719V6.36719Z" fill="white"/>
</svg>
