<svg width="80" height="16" viewBox="0 0 80 16" fill="none" xmlns="http://www.w3.org/2000/svg">
<path d="M8 0H80V16H8L0 8L8 0Z" fill="#69D186"/>
<path d="M20.1875 3.99414V12.5254H18.459V5.42969H16.877L16.7598 8.45312C16.7129 9.44922 16.5996 10.2402 16.4199 10.8262C16.2441 11.4082 15.9844 11.8359 15.6406 12.1094C15.3008 12.3828 14.8418 12.5215 14.2637 12.5254H13.8418V11.0957L14.041 11.0781C14.4004 11.0352 14.6582 10.8008 14.8145 10.375C14.9746 9.94531 15.0742 9.1875 15.1133 8.10156L15.2246 3.99414H20.1875ZM27.582 9.02734C27.582 10.1719 27.3105 11.0605 26.7676 11.6934C26.2285 12.3262 25.4785 12.6426 24.5176 12.6426C23.5605 12.6426 22.8086 12.3301 22.2617 11.7051C21.7148 11.0762 21.4375 10.1973 21.4297 9.06836V7.60938C21.4297 6.4375 21.7012 5.52344 22.2441 4.86719C22.7871 4.20703 23.541 3.87695 24.5059 3.87695C25.4551 3.87695 26.2031 4.20117 26.75 4.84961C27.2969 5.49414 27.5742 6.40039 27.582 7.56836V9.02734ZM25.8535 7.59766C25.8535 6.82812 25.7441 6.25586 25.5254 5.88086C25.3066 5.50586 24.9668 5.31836 24.5059 5.31836C24.0488 5.31836 23.7109 5.5 23.4922 5.86328C23.2734 6.22266 23.1602 6.77148 23.1523 7.50977V9.02734C23.1523 9.77344 23.2637 10.3242 23.4863 10.6797C23.709 11.0312 24.0527 11.207 24.5176 11.207C24.9668 11.207 25.3008 11.0352 25.5195 10.6914C25.7383 10.3438 25.8496 9.80664 25.8535 9.08008V7.59766ZM31.5137 7.78516L32.6621 3.99414H34.5137L32.1758 10.8496C31.9102 11.5293 31.623 11.9961 31.3145 12.25C31.0098 12.5039 30.6426 12.6367 30.2129 12.6484H30.0254L29.6152 12.625L29.5859 11.1953C29.625 11.2109 29.752 11.2188 29.9668 11.2188C30.1855 11.2188 30.3496 11.1699 30.459 11.0723C30.5723 10.9746 30.6699 10.7559 30.752 10.416L30.834 10.1055L28.3965 3.99414H30.2422L31.5137 7.78516ZM37.9121 9.04492H37.1621V12.5254H35.4395V3.99414H37.1621V7.4043H37.7422L39.2246 3.99414H41.3223L39.2363 7.9668L41.5566 12.5254H39.5059L37.9121 9.04492ZM48.0195 9.02734C48.0195 10.1719 47.748 11.0605 47.2051 11.6934C46.666 12.3262 45.916 12.6426 44.9551 12.6426C43.998 12.6426 43.2461 12.3301 42.6992 11.7051C42.1523 11.0762 41.875 10.1973 41.8672 9.06836V7.60938C41.8672 6.4375 42.1387 5.52344 42.6816 4.86719C43.2246 4.20703 43.9785 3.87695 44.9434 3.87695C45.8926 3.87695 46.6406 4.20117 47.1875 4.84961C47.7344 5.49414 48.0117 6.40039 48.0195 7.56836V9.02734ZM46.291 7.59766C46.291 6.82812 46.1816 6.25586 45.9629 5.88086C45.7441 5.50586 45.4043 5.31836 44.9434 5.31836C44.4863 5.31836 44.1484 5.5 43.9297 5.86328C43.7109 6.22266 43.5977 6.77148 43.5898 7.50977V9.02734C43.5898 9.77344 43.7012 10.3242 43.9238 10.6797C44.1465 11.0312 44.4902 11.207 44.9551 11.207C45.4043 11.207 45.7383 11.0352 45.957 10.6914C46.1758 10.3438 46.2871 9.80664 46.291 9.08008V7.59766ZM55.0391 9.68359C54.9961 10.6562 54.7227 11.3926 54.2188 11.8926C53.7148 12.3926 53.0039 12.6426 52.0859 12.6426C51.1211 12.6426 50.3809 12.3262 49.8652 11.6934C49.3535 11.0566 49.0977 10.1504 49.0977 8.97461V7.53906C49.0977 6.36719 49.3633 5.46484 49.8945 4.83203C50.4258 4.19531 51.1641 3.87695 52.1094 3.87695C53.0391 3.87695 53.7441 4.13672 54.2246 4.65625C54.709 5.17578 54.9844 5.92188 55.0508 6.89453H53.3223C53.3066 6.29297 53.2129 5.87891 53.041 5.65234C52.873 5.42188 52.5625 5.30664 52.1094 5.30664C51.6484 5.30664 51.3223 5.46875 51.1309 5.79297C50.9395 6.11328 50.8379 6.64258 50.8262 7.38086V8.99219C50.8262 9.83984 50.9199 10.4219 51.1074 10.7383C51.2988 11.0547 51.625 11.2129 52.0859 11.2129C52.5391 11.2129 52.8516 11.1035 53.0234 10.8848C53.1953 10.6621 53.293 10.2617 53.3164 9.68359H55.0391ZM61.4492 5.42969H59.3398V12.5254H57.6113V5.42969H55.5371V3.99414H61.4492V5.42969ZM66.8457 8.83398H64.1621V11.0957H67.3379V12.5254H62.4395V3.99414H67.3262V5.42969H64.1621V7.44531H66.8457V8.83398ZM70.0566 9.52539V12.5254H68.334V3.99414H71.2402C72.084 3.99414 72.7559 4.25586 73.2559 4.7793C73.7598 5.30273 74.0117 5.98242 74.0117 6.81836C74.0117 7.6543 73.7637 8.31445 73.2676 8.79883C72.7715 9.2832 72.084 9.52539 71.2051 9.52539H70.0566ZM70.0566 8.08984H71.2402C71.5684 8.08984 71.8223 7.98242 72.002 7.76758C72.1816 7.55273 72.2715 7.24023 72.2715 6.83008C72.2715 6.4043 72.1797 6.06641 71.9961 5.81641C71.8125 5.5625 71.5664 5.43359 71.2578 5.42969H70.0566V8.08984Z" fill="white"/>
</svg>
