<svg width="80" height="16" viewBox="0 0 80 16" fill="none" xmlns="http://www.w3.org/2000/svg">
<path d="M8 0H80V16H8L0 8L8 0Z" fill="#87B7FF"/>
<path d="M30.2949 3.99414V12.5254H28.5723V9.30859C28.1152 9.41016 27.6855 9.46094 27.2832 9.46094C26.3535 9.46094 25.6445 9.22656 25.1562 8.75781C24.668 8.28906 24.4141 7.61328 24.3945 6.73047V3.99414H26.123V6.63672C26.123 7.13672 26.207 7.49414 26.375 7.70898C26.5469 7.92383 26.8496 8.03125 27.2832 8.03125C27.7012 8.03125 28.1309 7.98047 28.5723 7.87891V3.99414H30.2949ZM35.8555 10.7793H33.5059L33.0488 12.5254H31.2266L33.8926 3.99414H35.4688L38.1523 12.5254H36.3125L35.8555 10.7793ZM33.8809 9.34375H35.4746L34.6777 6.30273L33.8809 9.34375ZM40.6777 9.52539V12.5254H38.9551V3.99414H41.8613C42.7051 3.99414 43.377 4.25586 43.877 4.7793C44.3809 5.30273 44.6328 5.98242 44.6328 6.81836C44.6328 7.6543 44.3848 8.31445 43.8887 8.79883C43.3926 9.2832 42.7051 9.52539 41.8262 9.52539H40.6777ZM40.6777 8.08984H41.8613C42.1895 8.08984 42.4434 7.98242 42.623 7.76758C42.8027 7.55273 42.8926 7.24023 42.8926 6.83008C42.8926 6.4043 42.8008 6.06641 42.6172 5.81641C42.4336 5.5625 42.1875 5.43359 41.8789 5.42969H40.6777V8.08984ZM51.3125 5.42969H49.2031V12.5254H47.4746V5.42969H45.4004V3.99414H51.3125V5.42969ZM56.709 8.83398H54.0254V11.0957H57.2012V12.5254H52.3027V3.99414H57.1895V5.42969H54.0254V7.44531H56.709V8.83398ZM59.9199 9.52539V12.5254H58.1973V3.99414H61.1035C61.9473 3.99414 62.6191 4.25586 63.1191 4.7793C63.623 5.30273 63.875 5.98242 63.875 6.81836C63.875 7.6543 63.627 8.31445 63.1309 8.79883C62.6348 9.2832 61.9473 9.52539 61.0684 9.52539H59.9199ZM59.9199 8.08984H61.1035C61.4316 8.08984 61.6855 7.98242 61.8652 7.76758C62.0449 7.55273 62.1348 7.24023 62.1348 6.83008C62.1348 6.4043 62.043 6.06641 61.8594 5.81641C61.6758 5.5625 61.4297 5.43359 61.1211 5.42969H59.9199V8.08984Z" fill="white"/>
</svg>
