<svg width="16" height="16" viewBox="0 0 16 16" fill="none" xmlns="http://www.w3.org/2000/svg">
<path fill-rule="evenodd" clip-rule="evenodd" d="M16 4.20138C15.9998 4.38381 15.923 4.5835 15.7477 4.70334L13.1229 6.56761L13.0985 6.5768C12.7971 6.69018 12.515 6.56176 12.3801 6.33938C12.2434 6.11407 12.2633 5.80426 12.5096 5.58191L12.5187 5.57371L14.3966 4.25311L9.75372 1.32101L7.10755 3.16449L7.65224 3.5114C8.13239 3.8171 8.77347 4.22498 9.41727 4.63378C10.0611 5.04261 10.7075 5.45224 11.1983 5.76145C11.4438 5.9161 11.65 6.04542 11.7974 6.13692C12.0561 6.29745 12.3401 6.47847 12.3401 6.82146V7.34261C12.3832 7.26506 12.447 7.19593 12.5301 7.13938L15.1314 5.30898C15.2705 5.2055 15.4284 5.17342 15.5775 5.22314C15.7177 5.26992 15.8178 5.37832 15.878 5.49104C15.9923 5.70514 16.0152 6.05168 15.7628 6.26536L15.7563 6.27087L13.0985 8.15045C12.771 8.27364 12.4672 8.09835 12.3401 7.85382V8.96261C12.375 8.87567 12.4355 8.79494 12.5296 8.73063L15.1416 6.87541L15.1507 6.87027C15.3025 6.7846 15.4624 6.77361 15.6041 6.82985C15.7395 6.88353 15.8385 6.99024 15.8981 7.10588C16.0123 7.32738 16.0167 7.67397 15.7319 7.86824L15.3781 8.11789C15.1626 8.26995 14.8714 8.47534 14.5687 8.68866C13.964 9.11482 13.3115 9.57393 13.1265 9.70143C12.9827 9.80059 12.823 9.81807 12.6797 9.76363C12.5457 9.71272 12.4462 9.60717 12.3847 9.49507C12.3678 9.4641 12.3527 9.43006 12.3401 9.39389V10.5024C12.3799 10.4202 12.4433 10.3458 12.5304 10.2864L13.6876 9.47333C14.2913 9.04893 14.942 8.59114 15.1329 8.45523C15.277 8.35263 15.4381 8.32825 15.5856 8.37881C15.7245 8.42643 15.8279 8.5321 15.891 8.64649C16.0124 8.86652 16.0281 9.22271 15.7316 9.42477L14.551 10.2558C13.94 10.6859 13.2884 11.1443 13.1278 11.2569C12.9883 11.3547 12.8311 11.362 12.6965 11.3136C12.5681 11.2675 12.4627 11.1732 12.3927 11.0655C12.3729 11.0351 12.3551 11.0024 12.3401 10.9678V11.5936C12.3401 11.796 12.2429 11.9798 12.0848 12.0876L10.2263 13.3984L10.2022 13.4075C10.0256 13.4739 9.82709 13.469 9.66516 13.3748C9.49622 13.2766 9.39373 13.0964 9.39373 12.8732V12.1524C9.37268 12.2766 9.31472 12.3971 9.20405 12.4908L9.19719 12.4966L6.56377 14.3496L6.53977 14.3586C6.45858 14.3891 6.3768 14.4098 6.28736 14.4101C6.19782 14.4105 6.1146 14.3903 6.03024 14.3586L6.01042 14.3511L0.28767 10.6881C0.145009 10.5915 0.0713922 10.4538 0.0621208 10.3061C0.0534187 10.1675 0.101912 10.0374 0.166663 9.93658C0.23154 9.83553 0.32431 9.74536 0.430766 9.69139C0.535249 9.63843 0.687641 9.60604 0.828337 9.69318C0.946354 9.76627 2.33469 10.6448 3.69136 11.5038L6.26352 13.1326L8.57246 11.5C8.71461 11.3941 8.87635 11.3635 9.02763 11.4193C9.16827 11.4712 9.26629 11.5856 9.32448 11.7014C9.35644 11.7651 9.38108 11.8402 9.39373 11.9202V10.6145C9.36616 10.7246 9.30644 10.8305 9.20405 10.9171L9.19753 10.9226L6.56419 12.793L6.53977 12.8022C6.45858 12.8328 6.3768 12.8535 6.28736 12.8538C6.19782 12.8541 6.1146 12.834 6.03024 12.8022L6.01042 12.7948L0.28767 9.13171C0.112526 9.01312 0.0153545 8.83212 0.0153545 8.6192C0.0153545 8.42096 0.128259 8.24957 0.271483 8.15107C0.417252 8.05081 0.626945 8.00571 0.821266 8.11535L0.830366 8.12081L6.26374 11.5761L8.57246 9.94362C8.71223 9.83955 8.87099 9.80917 9.01987 9.85762C9.21569 9.92134 9.34818 10.1055 9.39373 10.3003V8.47053L4.25198 5.21192L1.62169 7.03851L6.26395 10.0023L8.58304 8.36249L8.59197 8.35745C8.74715 8.26989 8.91032 8.26711 9.05053 8.3369C9.18098 8.40183 9.27121 8.51887 9.32402 8.63744C9.42183 8.85707 9.43699 9.21685 9.15784 9.40729L6.55634 11.2378C6.38551 11.3642 6.13122 11.3672 5.95644 11.2408L0.257022 7.59264C0.0803969 7.47305 0.000404462 7.27444 1.53053e-06 7.0898C-0.000400516 6.90556 0.0783903 6.70692 0.25509 6.58623L3.91697 3.99272L5.77119 2.69576L9.44085 0.0794036L9.45012 0.0741725C9.62647 -0.0253286 9.82622 -0.0241179 10.0004 0.0741725L10.0089 0.0792195L15.7456 3.69701C15.9231 3.81717 16.0002 4.0181 16 4.20138ZM0.287633 12.2618L5.98722 15.9099C6.07704 15.9746 6.18674 15.9997 6.28358 16C6.38209 16.0003 6.49479 15.975 6.58694 15.9069L9.19719 14.0702L9.20405 14.0644C9.45625 13.851 9.43772 13.504 9.32362 13.2879C9.26364 13.1743 9.16306 13.0651 9.02112 13.0189C8.87103 12.9701 8.71285 13.004 8.57328 13.1076L6.26465 14.707L0.830125 11.2676L0.821266 11.2626C0.671423 11.1781 0.512662 11.1648 0.371444 11.2257C0.237547 11.2833 0.146336 11.3959 0.0953463 11.5127C-0.00238541 11.7366 0.0131231 12.0759 0.287633 12.2618ZM11.1225 7.95251C10.9874 8.05253 10.8331 8.07258 10.6932 8.02555C10.2765 7.88552 10.1545 7.28105 10.4917 6.99568L10.5011 6.98772L10.7258 6.84049L6.07637 3.8812L5.28133 4.44343L10.2136 7.60514C10.3658 7.70818 10.4859 7.88985 10.4859 8.10041V11.7346L11.202 11.2143V7.89729L11.1225 7.95251Z" fill="white"/>
</svg>
