<svg width="16" height="16" viewBox="0 0 16 16" fill="none" xmlns="http://www.w3.org/2000/svg">
<path fill-rule="evenodd" clip-rule="evenodd" d="M15.3889 4.91601C14.9722 3.93702 14.4019 3.08546 13.678 2.36132C12.9539 1.63744 12.1023 1.06716 11.1233 0.650393C10.1545 0.233878 9.11792 0.0253906 8.01392 0.0253906C6.90967 0.0253906 5.87329 0.233878 4.90456 0.650393C3.92532 1.06716 3.07376 1.63744 2.34988 2.36132C1.62575 3.08546 1.05543 3.93702 0.638917 4.91601C0.222194 5.88478 0.013916 6.92141 0.013916 8.02541C0.013916 9.12966 0.222194 10.166 0.638917 11.1348C1.05543 12.114 1.62575 12.9656 2.34988 13.6895C3.07376 14.4136 3.92532 14.9839 4.90456 15.4004C5.87329 15.8169 6.90967 16.0254 8.01392 16.0254C9.11792 16.0254 10.1545 15.8169 11.1233 15.4004C12.1023 14.9839 12.9539 14.4136 13.678 13.6895C14.4019 12.9656 14.9722 12.114 15.3889 11.1348C15.8054 10.166 16.0139 9.12966 16.0139 8.02541C16.0139 6.92141 15.8054 5.88478 15.3889 4.91601ZM8.84206 10.3067L6.87331 12.1816L2.71706 8.02541L4.59206 6.04101L6.87331 8.33791L11.3889 3.86915L13.3108 5.74416L8.84206 10.3067Z" fill="white"/>
</svg>
