<svg width="16" height="16" viewBox="0 0 16 16" fill="none" xmlns="http://www.w3.org/2000/svg">
<path d="M16 8C16 9.10417 15.7917 10.1406 15.375 11.1094C14.9583 12.0885 14.3854 12.9427 13.6562 13.6719C12.9375 14.3906 12.0885 14.9583 11.1094 15.375C10.1406 15.7917 9.10417 16 8 16C6.89583 16 5.85938 15.7917 4.89062 15.375C3.91146 14.9583 3.05729 14.3906 2.32812 13.6719C1.60938 12.9427 1.04167 12.0885 0.625 11.1094C0.208333 10.1406 0 9.10417 0 8C0 6.89583 0.208333 5.85938 0.625 4.89062C1.04167 3.91146 1.60938 3.0625 2.32812 2.34375C3.05729 1.61458 3.91146 1.04167 4.89062 0.625C5.85938 0.208333 6.89583 0 8 0C9.10417 0 10.1406 0.208333 11.1094 0.625C12.0885 1.04167 12.9375 1.61458 13.6562 2.34375C14.3854 3.0625 14.9583 3.91146 15.375 4.89062C15.7917 5.85938 16 6.89583 16 8ZM10.1719 11.5938C10.151 11.5729 10.1302 11.5573 10.1094 11.5469C10.0885 11.5365 10.0625 11.5312 10.0312 11.5312C10.0208 11.5312 10.0104 11.5312 10 11.5312C9.98958 11.5312 9.97917 11.5365 9.96875 11.5469C9.57292 11.7344 9.18229 11.9115 8.79688 12.0781C8.42188 12.2448 8.1875 12.3333 8.09375 12.3438C8.09375 12.3438 8.08854 12.3438 8.07812 12.3438C8.07812 12.3333 8.07812 12.3281 8.07812 12.3281C8.06771 12.3073 8.05729 12.2865 8.04688 12.2656C8.03646 12.2448 8.03125 12.224 8.03125 12.2031C8.03125 12.2031 8.03125 12.1979 8.03125 12.1875C8.03125 11.9688 8.11458 11.5208 8.28125 10.8438C8.45833 10.1667 8.71354 9.26562 9.04688 8.14062C9.32812 7.19271 9.5 6.57292 9.5625 6.28125C9.63542 5.97917 9.67188 5.79688 9.67188 5.73438C9.67188 5.72396 9.67188 5.71875 9.67188 5.71875C9.67188 5.625 9.65104 5.53646 9.60938 5.45312C9.56771 5.36979 9.51562 5.30208 9.45312 5.25C9.38021 5.1875 9.29688 5.14583 9.20312 5.125C9.10938 5.09375 9 5.07812 8.875 5.07812C8.67708 5.07812 8.45833 5.11979 8.21875 5.20312C7.98958 5.27604 7.73438 5.39062 7.45312 5.54688C7.18229 5.69271 6.89583 5.89583 6.59375 6.15625C6.30208 6.41667 5.99479 6.72396 5.67188 7.07812C5.66146 7.08854 5.65104 7.10417 5.64062 7.125C5.63021 7.14583 5.625 7.16667 5.625 7.1875C5.625 7.22917 5.64062 7.26562 5.67188 7.29688C5.70312 7.32812 5.73958 7.34375 5.78125 7.34375C5.79167 7.34375 5.80208 7.34375 5.8125 7.34375C5.82292 7.34375 5.83333 7.33854 5.84375 7.32812C5.95833 7.28646 6.21875 7.18229 6.625 7.01562C7.04167 6.83854 7.29167 6.72396 7.375 6.67188C7.44792 6.63021 7.51042 6.59896 7.5625 6.57812C7.625 6.55729 7.68229 6.54688 7.73438 6.54688C7.74479 6.54688 7.75 6.55208 7.75 6.5625C7.73958 6.625 7.72917 6.6875 7.71875 6.75C7.70833 6.8125 7.69792 6.86979 7.6875 6.92188C7.4375 7.70312 7.22396 8.41146 7.04688 9.04688C6.86979 9.68229 6.71875 10.2448 6.59375 10.7344C6.47917 11.224 6.39062 11.6406 6.32812 11.9844C6.26562 12.3281 6.23438 12.6042 6.23438 12.8125C6.23438 12.9583 6.25521 13.0885 6.29688 13.2031C6.33854 13.3177 6.40104 13.4219 6.48438 13.5156C6.55729 13.599 6.64583 13.6615 6.75 13.7031C6.86458 13.7448 6.98958 13.7656 7.125 13.7656C7.27083 13.7656 7.43229 13.7396 7.60938 13.6875C7.78646 13.625 7.98438 13.5312 8.20312 13.4062C8.41146 13.2917 8.67188 13.1042 8.98438 12.8438C9.30729 12.5729 9.69271 12.224 10.1406 11.7969C10.1615 11.7865 10.1719 11.7708 10.1719 11.75C10.1823 11.7292 10.1875 11.7083 10.1875 11.6875C10.1875 11.6667 10.1823 11.651 10.1719 11.6406C10.1719 11.6198 10.1719 11.6042 10.1719 11.5938ZM10.1406 2.46875C10.0573 2.39583 9.96354 2.33854 9.85938 2.29688C9.76562 2.25521 9.66146 2.23438 9.54688 2.23438C9.54688 2.23438 9.54167 2.23438 9.53125 2.23438C9.375 2.23438 9.22917 2.26562 9.09375 2.32812C8.96875 2.38021 8.85417 2.46354 8.75 2.57812C8.64583 2.69271 8.5625 2.81771 8.5 2.95312C8.44792 3.08854 8.42188 3.23958 8.42188 3.40625C8.42188 3.40625 8.42188 3.41146 8.42188 3.42188C8.42188 3.42188 8.42708 3.42188 8.4375 3.42188C8.4375 3.55729 8.45312 3.67708 8.48438 3.78125C8.52604 3.88542 8.58854 3.97917 8.67188 4.0625C8.74479 4.13542 8.82812 4.19792 8.92188 4.25C9.02604 4.29167 9.13542 4.3125 9.25 4.3125C9.26042 4.3125 9.26562 4.3125 9.26562 4.3125C9.41146 4.3125 9.54688 4.28125 9.67188 4.21875C9.79688 4.15625 9.91667 4.0625 10.0312 3.9375C10.1354 3.83333 10.2188 3.70833 10.2812 3.5625C10.3438 3.41667 10.375 3.26042 10.375 3.09375C10.375 2.96875 10.3542 2.85417 10.3125 2.75C10.2708 2.64583 10.2135 2.55208 10.1406 2.46875Z" fill="white"/>
</svg>
