<svg width="16" height="16" viewBox="0 0 16 16" fill="none" xmlns="http://www.w3.org/2000/svg">
<g clip-path="url(#clip0)">
<path fill-rule="evenodd" clip-rule="evenodd" d="M8.83502 3.34075L8.83714 3.34273L15.5869 9.72536L15.5884 9.7267C15.6944 9.82664 15.7824 9.94327 15.8509 10.072L15.8717 10.1112L15.8891 10.1521C15.957 10.3115 16 10.4941 16 10.6923C16 10.8771 15.9622 11.0714 15.8731 11.2559C15.8115 11.3904 15.7204 11.5338 15.5869 11.6593C15.4565 11.7818 15.3174 11.8573 15.1992 11.905C15.063 11.9637 14.9099 12 14.7451 12C14.5863 12 14.4349 11.9698 14.2947 11.9171L14.2609 11.9043L14.228 11.8889C14.1112 11.834 13.9957 11.759 13.8896 11.6593L13.8867 11.6565L7.99384 6.07143L2.11039 11.6593C2.00429 11.759 1.88878 11.834 1.77202 11.8889L1.73914 11.9043L1.70526 11.9171C1.56514 11.9698 1.41368 12 1.2549 12C1.09015 12 0.937035 11.9637 0.800813 11.905C0.68256 11.8572 0.543454 11.7818 0.413059 11.6593C0.279545 11.5338 0.188511 11.3904 0.126856 11.2559C0.0378469 11.0714 4.90827e-08 10.8771 5.71611e-08 10.6923C6.58233e-08 10.4941 0.0430139 10.3116 0.110877 10.1521L0.128298 10.1112L0.149104 10.072C0.217407 9.94365 0.30512 9.82731 0.410746 9.72754L7.13769 3.34074C7.26847 3.21782 7.40801 3.14231 7.5265 3.09458C7.68658 3.026 7.84653 3 7.99318 3C8.16499 3 8.3145 3.03953 8.4299 3.08292L8.46378 3.09566L8.49665 3.1111C8.61343 3.16598 8.72893 3.24103 8.83502 3.34075Z" fill="white"/>
</g>
<defs>
<clipPath id="clip0">
<rect width="16" height="16" transform="matrix(-4.37114e-08 1 1 4.37114e-08 0 0)" fill="white"/>
</clipPath>
</defs>
</svg>
