<svg width="16" height="16" viewBox="0 0 16 16" fill="none" xmlns="http://www.w3.org/2000/svg">
<path fill-rule="evenodd" clip-rule="evenodd" d="M15.5601 13.3833C15.6959 13.518 15.8034 13.6786 15.8816 13.8661C15.9609 14.0525 16 14.2498 16 14.4578C16 14.8835 15.8479 15.2467 15.5449 15.5484C15.2408 15.8491 14.8748 16 14.4457 16C14.2252 16 14.021 15.959 13.8331 15.8761C13.6452 15.792 13.4769 15.6778 13.3303 15.5323L8.68373 10.8592C8.25362 11.0985 7.80069 11.2795 7.32496 11.4046C6.84814 11.5285 6.35395 11.591 5.84129 11.591C5.03537 11.591 4.27615 11.4412 3.56473 11.1394C2.85222 10.8387 2.23203 10.4249 1.70416 9.90112C1.17521 9.37626 0.759215 8.76088 0.456181 8.05496C0.15206 7.34797 0 6.59572 0 5.79604C0 4.99636 0.15206 4.24842 0.456181 3.5522C0.759215 2.84629 1.17521 2.2309 1.70416 1.70605C2.23203 1.18119 2.85222 0.768422 3.56473 0.467735C4.27615 0.156271 5.03537 0 5.84129 0C6.64721 0 7.40099 0.156271 8.10264 0.467735C8.81407 0.768422 9.43426 1.18119 9.96321 1.70605C10.4911 2.2309 10.9071 2.84629 11.2112 3.5522C11.5251 4.24842 11.6826 4.99636 11.6826 5.79604C11.6826 6.33598 11.612 6.85545 11.4697 7.35336C11.3285 7.85235 11.133 8.30931 10.881 8.72423L15.5601 13.3833ZM8.74564 8.78674C9.12253 8.41277 9.42122 7.97198 9.64062 7.46221C9.86111 6.95352 9.97081 6.41358 9.97081 5.84238C9.97081 5.27118 9.86111 4.73124 9.64062 4.22255C9.42122 3.71386 9.12253 3.27199 8.74564 2.89802C8.36875 2.52405 7.92451 2.22767 7.41185 2.00997C6.89811 1.79119 6.35395 1.68234 5.77829 1.68234C5.19177 1.68234 4.64761 1.79119 4.14581 2.00997C3.63207 2.22767 3.18458 2.52405 2.80334 2.89802C2.42102 3.27199 2.12015 3.71386 1.90075 4.22255C1.68027 4.73124 1.57057 5.27118 1.57057 5.84238C1.57057 6.41358 1.68027 6.95352 1.90075 7.46221C2.12015 7.97198 2.42102 8.416 2.80334 8.79429C3.18458 9.17365 3.63207 9.47218 4.14581 9.69096C4.64761 9.90866 5.19177 10.0175 5.77829 10.0175C6.35395 10.0175 6.89811 9.90651 7.41185 9.68234C7.92451 9.45925 8.36875 9.16072 8.74564 8.78674ZM6.43758 3.00687V7.80493H7.53676V8.69298H4.31851V7.80493H5.44919V4.65796L5.55889 4.11262L5.182 4.58036L4.45971 5.07935L4.01982 4.47151L5.85649 3.00687H6.43758Z" fill="#3E2600"/>
</svg>
