<svg width="16" height="16" viewBox="0 0 16 16" fill="none" xmlns="http://www.w3.org/2000/svg">
<path fill-rule="evenodd" clip-rule="evenodd" d="M2.12169 3.42201L1.86746 3.4847L7.84291 0.0789029C7.88322 0.0583665 7.92766 0.0399919 7.97726 0.023779C8.0279 0.00864689 8.07751 0 8.12712 0C8.247 0 8.35344 0.031345 8.44852 0.094035C8.54257 0.156725 8.61491 0.234547 8.66451 0.328582L9.26289 1.50024L2.12169 3.42201ZM13.5052 3.64142H3.52616L9.54605 2.00068L12.325 1.26569C12.3354 1.26569 12.3447 1.26569 12.355 1.26569C12.3643 1.26569 12.3798 1.26569 12.3994 1.26569C12.4098 1.26569 12.4201 1.26569 12.4294 1.26569C12.4397 1.26569 12.4542 1.26569 12.4749 1.26569C12.6134 1.2765 12.7363 1.32622 12.8407 1.41485C12.9451 1.50348 13.0174 1.61481 13.0567 1.74992L13.5052 3.64142ZM9.45718 11.6874C9.45718 12.0213 9.56879 12.3045 9.79305 12.5391C10.0173 12.7736 10.2881 12.8904 10.6074 12.8904H15.2084V15.3753C15.2084 15.5417 15.1484 15.6876 15.0296 15.813C14.9097 15.9373 14.765 16 14.5955 16H0.597339C0.438186 16 0.298669 15.9373 0.179822 15.813C0.0599406 15.6876 0 15.5417 0 15.3753V15.359V4.81308C0 4.75039 0.00723419 4.6931 0.0227361 4.64122C0.0372045 4.58934 0.0599406 4.53746 0.0899108 4.4845C0.139517 4.40127 0.208759 4.33101 0.298669 4.27373C0.38858 4.21644 0.487792 4.18834 0.597339 4.18834H14.611C14.7702 4.18834 14.9066 4.24995 15.0213 4.37533C15.136 4.50071 15.1939 4.64663 15.1939 4.81308V7.26555H10.6074C10.2881 7.27636 10.0173 7.3985 9.79305 7.63305C9.56879 7.86759 9.45718 8.15186 9.45718 8.48477V11.6874ZM15.7168 7.93785C15.7964 8.00054 15.8636 8.07836 15.9184 8.1724C15.9731 8.26643 16 8.37019 16 8.48477V11.6874V11.7036C16 11.8073 15.9731 11.9068 15.9184 11.9997C15.8636 12.0938 15.7964 12.1727 15.7168 12.2343C15.6765 12.2559 15.6321 12.2732 15.5815 12.2894C15.5318 12.3045 15.4926 12.3132 15.4626 12.3132H10.5919C10.4224 12.3132 10.2788 12.2527 10.1589 12.1327C10.039 12.0138 9.98011 11.8646 9.98011 11.6874C9.98011 11.5112 10.039 11.3599 10.1589 11.2345C10.2788 11.1102 10.4224 11.0475 10.5919 11.0475C10.7614 11.0475 10.903 11.1102 11.0177 11.2345C11.1324 11.3599 11.1893 11.5112 11.1893 11.6874C11.1893 11.8646 11.1324 12.0138 11.0177 12.1327C10.903 12.2527 10.7614 12.3132 10.5919 12.3132C10.4224 12.3132 10.2788 12.2527 10.1589 12.1327C10.039 12.0138 9.98011 11.8646 9.98011 11.6874V8.48477C9.98011 8.3075 10.039 8.15943 10.1589 8.03945C10.2788 7.91948 10.4224 7.86003 10.5919 7.86003H15.4626C15.5122 7.86003 15.5597 7.86759 15.6042 7.88273C15.6486 7.89894 15.6869 7.91731 15.7168 7.93785ZM12.1163 11.1253C12.3943 11.1253 12.6289 11.0237 12.818 10.8205C13.0071 10.6173 13.1022 10.3752 13.1022 10.0942C13.1022 9.80234 13.0071 9.55482 12.818 9.35162C12.6289 9.14842 12.3943 9.04681 12.1163 9.04681C11.8465 9.04681 11.615 9.14842 11.4207 9.35162C11.2275 9.55482 11.1303 9.80234 11.1303 10.0942C11.1303 10.3752 11.2275 10.6173 11.4207 10.8205C11.615 11.0237 11.8465 11.1253 12.1163 11.1253H12.1307H12.1163Z" fill="#3E2600"/>
</svg>
