<svg width="16" height="16" viewBox="0 0 16 16" fill="none" xmlns="http://www.w3.org/2000/svg">
<path fill-rule="evenodd" clip-rule="evenodd" d="M11.5633 12.8129V15.332C11.5633 15.3622 11.554 15.388 11.5333 15.4095C11.5137 15.4299 11.4941 15.4407 11.4744 15.4407H11.4589H1.64289C1.61292 15.4407 1.58811 15.4299 1.56744 15.4095C1.5478 15.388 1.5385 15.3622 1.5385 15.332V1.81889V1.80383C1.5385 1.7834 1.5478 1.76296 1.56744 1.74145C1.58811 1.72101 1.60775 1.71025 1.62739 1.71025H1.64289H3.09199V3.10965C3.09199 3.36887 3.18191 3.59153 3.36072 3.77869C3.54057 3.96477 3.75452 4.05835 4.00362 4.05835H9.09819C9.35762 4.05835 9.57674 3.96477 9.75556 3.77869C9.9354 3.59153 10.0295 3.36887 10.0398 3.10965V1.71025H11.4744C11.5044 1.71025 11.5261 1.71886 11.5416 1.73392C11.5561 1.74897 11.5633 1.77264 11.5633 1.80383V6.98192L12.1318 6.40645V1.80383C12.1318 1.61775 12.0687 1.45963 11.9447 1.32948C11.8196 1.2004 11.6687 1.13479 11.4889 1.13479H9.4124L9.48682 1.49297V1.52417C9.48682 1.53492 9.48682 1.54245 9.48682 1.54783C9.48682 1.55213 9.48682 1.56074 9.48682 1.57042V3.10965C9.48682 3.21398 9.44961 3.30434 9.37519 3.38178C9.29974 3.4603 9.21292 3.49903 9.1137 3.49903C9.01344 3.49903 8.92662 3.4603 8.8522 3.38178C8.77674 3.30434 8.73954 3.21398 8.73954 3.10965C8.73954 3.00639 8.77674 2.91603 8.8522 2.83751C8.92662 2.76007 9.01344 2.72134 9.1137 2.72134C9.21292 2.72134 9.29974 2.76007 9.37519 2.83751C9.44961 2.91603 9.48682 3.00639 9.48682 3.10965C9.48682 3.21398 9.44961 3.30434 9.37519 3.38178C9.29974 3.4603 9.21292 3.49903 9.1137 3.49903H4.01809C3.91886 3.49903 3.83204 3.4603 3.75659 3.38178C3.68217 3.30434 3.64496 3.21398 3.64496 3.10965C3.64496 3.00639 3.68217 2.91603 3.75659 2.83751C3.83204 2.76007 3.91886 2.72134 4.01809 2.72134C4.11731 2.72134 4.20517 2.76007 4.27959 2.83751C4.35401 2.91603 4.39225 3.00639 4.39225 3.10965C4.39225 3.21398 4.35401 3.30434 4.27959 3.38178C4.20517 3.4603 4.11731 3.49903 4.01809 3.49903C3.91886 3.49903 3.83204 3.4603 3.75659 3.38178C3.68217 3.30434 3.64496 3.21398 3.64496 3.10965V1.58655C3.64496 1.5758 3.64496 1.56827 3.64496 1.56289C3.64496 1.55751 3.64496 1.54998 3.64496 1.53923C3.64496 1.52955 3.64496 1.52202 3.64496 1.51664C3.64496 1.51126 3.64496 1.50373 3.64496 1.49297L3.71938 1.15092H1.64289C1.46305 1.15092 1.31111 1.21546 1.18708 1.34561C1.06202 1.47469 1 1.62743 1 1.80383V15.332C1 15.5181 1.06202 15.6762 1.18708 15.8053C1.31111 15.9355 1.46305 16 1.64289 16H11.4744C11.6532 16 11.8052 15.9355 11.9302 15.8053C12.0543 15.6762 12.1163 15.5181 12.1163 15.332V12.2374L11.5633 12.8129ZM4.3168 3.0634C4.22791 3.0634 4.15039 3.0322 4.08527 2.96982C4.02015 2.90743 3.98811 2.82998 3.98811 2.7364V1.39939C3.98811 1.30582 4.02015 1.22837 4.08527 1.16598C4.15039 1.10467 4.22791 1.07348 4.3168 1.07348H5.52713C5.52713 0.772303 5.62636 0.518454 5.82584 0.310857C6.02532 0.104336 6.26925 0 6.55866 0C6.83669 0 7.07649 0.104336 7.27597 0.310857C7.47442 0.518454 7.57468 0.772303 7.57468 1.07348H8.78501C8.8739 1.07348 8.94935 1.10467 9.00827 1.16598C9.06822 1.22837 9.09819 1.30582 9.09819 1.39939V2.79879C9.09819 2.89237 9.06822 2.97304 9.00827 3.03973C8.94935 3.1075 8.8739 3.14084 8.78501 3.14084H4.3168V3.0634ZM9.08372 5.75355L9.80103 6.50003L5.7814 10.6982L3.31628 8.11671L4.03359 7.37022L5.7814 9.19018L9.08372 5.75355ZM14.8811 7.61869C14.9204 7.66064 14.9504 7.71227 14.97 7.77466C14.9897 7.83704 15 7.89943 15 7.96182C15 8.04464 14.9855 8.12208 14.9556 8.19415C14.9256 8.26729 14.8811 8.32968 14.8212 8.38131L14.1339 9.09661L12.2207 7.10561L12.8935 6.37526C12.9432 6.31287 13.0031 6.26662 13.0724 6.23543C13.1426 6.20424 13.2171 6.18918 13.2966 6.18918C13.3566 6.18918 13.4165 6.19886 13.4765 6.21929C13.5364 6.24081 13.586 6.272 13.6253 6.31287L14.9101 7.63482L14.8811 7.61869ZM7.27597 12.2525C7.246 12.274 7.22016 12.302 7.20052 12.3386C7.18088 12.3751 7.17054 12.4031 7.17054 12.4235L6.40879 14.9276C6.40879 14.9373 6.40672 14.948 6.40155 14.9588C6.39638 14.9685 6.39432 14.9792 6.39432 14.99C6.39432 15.0104 6.39845 15.0309 6.40879 15.0513C6.41912 15.0728 6.42842 15.0932 6.43876 15.1137C6.4584 15.1244 6.47804 15.1341 6.49871 15.1449C6.51835 15.1556 6.53798 15.161 6.55866 15.161C6.56796 15.161 6.57829 15.161 6.58863 15.161C6.59793 15.161 6.60827 15.1556 6.61861 15.1449L9.03824 14.3521C9.07855 14.3414 9.11059 14.3263 9.1354 14.3048C9.16021 14.2844 9.17778 14.2639 9.18811 14.2435L13.8052 9.43866L11.892 7.44766L7.27597 12.2525ZM7.6491 14.4608L7.14057 13.9165L7.45478 12.8753L8.64961 14.1187L7.6491 14.4608ZM11.8331 8.24148C11.8527 8.26192 11.8672 8.28235 11.8775 8.30387C11.8868 8.3243 11.892 8.35012 11.892 8.38131C11.892 8.40175 11.8868 8.42218 11.8775 8.4437C11.8672 8.46414 11.8527 8.48457 11.8331 8.50501L8.21654 12.2837C8.20724 12.2945 8.19173 12.3052 8.17209 12.3149C8.15142 12.3256 8.12765 12.331 8.09767 12.331C8.077 12.331 8.0553 12.3256 8.03049 12.3149C8.00465 12.3052 7.98708 12.2945 7.97778 12.2837C7.95814 12.2633 7.94264 12.2428 7.93333 12.2213C7.923 12.2009 7.91783 12.1751 7.91783 12.1439C7.91783 12.1234 7.923 12.103 7.93333 12.0815C7.94264 12.061 7.95814 12.0406 7.97778 12.0191L11.5933 8.25654C11.6036 8.2361 11.6212 8.22104 11.646 8.21029C11.6708 8.19953 11.6935 8.19415 11.7132 8.19415C11.7328 8.19415 11.7556 8.19953 11.7804 8.21029C11.8052 8.22104 11.8227 8.2361 11.8331 8.25654V8.24148Z" fill="#3E2600"/>
</svg>
