<svg width="16" height="16" viewBox="0 0 16 16" fill="none" xmlns="http://www.w3.org/2000/svg">
<g clip-path="url(#clip0)">
<path d="M5.16175 5.85938C5.06643 5.76172 4.95204 5.68359 4.81859 5.625C4.68514 5.55664 4.54215 5.52246 4.38963 5.52246C4.23712 5.52246 4.09413 5.55664 3.96068 5.625C3.82723 5.68359 3.71284 5.76172 3.61752 5.85938C3.52219 5.9668 3.44117 6.08887 3.37444 6.22559C3.31725 6.3623 3.28865 6.51367 3.28865 6.67969C3.28865 6.83594 3.31725 6.98242 3.37444 7.11914C3.44117 7.25586 3.52219 7.37793 3.61752 7.48535L6.21984 10.21C6.31516 10.3174 6.42955 10.4004 6.563 10.459C6.69645 10.5176 6.83944 10.5469 6.99196 10.5469C7.14447 10.5469 7.28746 10.5176 7.42091 10.459C7.55436 10.4004 7.66875 10.3174 7.76407 10.21L15.6711 1.94824C15.776 1.85059 15.857 1.7334 15.9142 1.59668C15.9714 1.4502 16 1.29883 16 1.14258C16 0.986328 15.9714 0.839844 15.9142 0.703125C15.857 0.566406 15.776 0.444336 15.6711 0.336914C15.5758 0.229492 15.4614 0.146484 15.328 0.0878906C15.1945 0.0292969 15.0515 0 14.899 0C14.7465 0 14.6035 0.0292969 14.4701 0.0878906C14.3461 0.146484 14.2318 0.229492 14.1269 0.336914L11.7534 2.82715C11.4483 2.49512 11.1099 2.19727 10.7382 1.93359C10.3664 1.66016 9.97081 1.43066 9.55138 1.24512C9.14149 1.05957 8.70777 0.913086 8.25022 0.805664C7.79267 0.708008 7.32082 0.65918 6.83467 0.65918C5.89097 0.668945 5.00447 0.864258 4.17516 1.24512C3.34584 1.61621 2.62139 2.12402 2.00179 2.76855C1.38219 3.40332 0.891272 4.15039 0.529044 5.00977C0.176348 5.86914 0 6.78223 0 7.74902C0 7.76855 0 7.7832 0 7.79297C0 7.80273 0 7.81738 0 7.83691C0 7.84668 0 7.85644 0 7.86621C0 7.87598 0 7.89062 0 7.91016C0 8.87695 0.176348 9.79004 0.529044 10.6494C0.891272 11.5088 1.38219 12.2607 2.00179 12.9053C2.62139 13.54 3.34584 14.043 4.17516 14.4141C5.00447 14.7949 5.89097 14.9902 6.83467 15C7.60679 15 8.34555 14.873 9.05094 14.6191C9.75633 14.3652 10.395 14.0137 10.9669 13.5645C11.5389 13.1152 12.0298 12.583 12.4397 11.9678C12.8591 11.3525 13.1737 10.6836 13.3834 9.96094C13.4024 9.88281 13.4167 9.81445 13.4263 9.75586C13.4358 9.6875 13.4406 9.62402 13.4406 9.56543C13.4406 9.31152 13.3691 9.08691 13.2261 8.8916C13.0831 8.69629 12.902 8.55957 12.6828 8.48145C12.6256 8.46191 12.5684 8.44727 12.5112 8.4375C12.4635 8.42773 12.4063 8.42285 12.3396 8.42285C12.1013 8.42285 11.882 8.50098 11.6819 8.65723C11.4912 8.80371 11.3625 8.98926 11.2958 9.21387C11.1528 9.72168 10.9383 10.1855 10.6524 10.6055C10.3664 11.0352 10.028 11.4062 9.63718 11.7188C9.24635 12.0215 8.8174 12.2607 8.35031 12.4365C7.8737 12.6123 7.36848 12.7051 6.83467 12.7148C6.19601 12.7051 5.59071 12.5732 5.01877 12.3193C4.44683 12.0654 3.95115 11.7188 3.53172 11.2793C3.1123 10.8398 2.77867 10.332 2.53083 9.75586C2.29252 9.16992 2.17337 8.54492 2.17337 7.88086C2.17337 7.87109 2.17337 7.86133 2.17337 7.85156C2.17337 7.8418 2.17337 7.83203 2.17337 7.82227C2.17337 7.82227 2.17337 7.81738 2.17337 7.80762C2.17337 7.79785 2.17337 7.78809 2.17337 7.77832C2.17337 7.11426 2.29252 6.48926 2.53083 5.90332C2.77867 5.31738 3.1123 4.80957 3.53172 4.37988C3.95115 3.94043 4.44683 3.59375 5.01877 3.33984C5.58117 3.08594 6.18648 2.9541 6.83467 2.94434C7.50194 2.94434 8.12154 3.08105 8.69348 3.35449C9.27495 3.62793 9.77539 3.99414 10.1948 4.45312L7.00626 7.80762L5.16175 5.85938Z" fill="#0F7EE6"/>
</g>
<defs>
<clipPath id="clip0">
<rect y="16" width="16" height="16" transform="rotate(-90 0 16)" fill="white"/>
</clipPath>
</defs>
</svg>
