<svg width="15" height="15" viewBox="0 0 15 15" fill="none" xmlns="http://www.w3.org/2000/svg">
<path d="M4.08033 15H5.24458C5.44886 15 5.62762 14.8968 5.73282 14.7372L9.11292 9.04897C9.1985 8.87582 9.37986 8.7533 9.57299 8.75799H13.4413C14.4576 8.76188 14.9905 8.33557 14.9999 7.44389C15.0093 6.5522 14.1157 6.24182 13.4507 6.24242H9.60116C9.40745 6.24242 9.22227 6.14919 9.12231 5.9796L5.71404 0.263232C5.6132 0.103348 5.43348 -0.00763214 5.24458 0.000410324H4.11788L3.94888 0.291391L5.77977 5.93266L5.59198 6.23303H2.54989C2.3441 6.23303 2.18907 6.14731 2.06166 5.98898L1.51709 5.26622C1.40141 5.12838 1.20219 5.01774 1.01946 5.02218H0.230771C0.105702 5.01348 -0.0072736 5.14153 0.00543126 5.26622L0.550003 7.77241L0.00543126 9.68725C-0.0119077 9.84326 0.00423245 9.9706 0.174436 9.98762H1.01946C1.22369 9.98762 1.38478 9.89473 1.51709 9.74357L2.06166 9.00204C2.16949 8.84269 2.35754 8.74276 2.54989 8.74861H5.62015L5.79854 9.05836L3.92071 14.6996L4.08033 15Z" fill="#478FC6"/>
</svg>
