<svg width="38" height="36" viewBox="0 0 38 36" fill="none" xmlns="http://www.w3.org/2000/svg">
<path d="M23.8085 6.52511C23.5844 4.95637 25.6082 3.53261 25.9091 1.832C25.5597 1.7868 25.1422 1.76013 24.7187 1.75939C21.7144 1.75939 18.7747 3.0777 15.8417 4.24437C19.7415 2.56672 16.05 4.41576 12.0909 5.62343L12.1977 7.09165V7.90244H24.6282C24.6282 6.68316 23.9494 7.30947 23.8085 6.52511ZM22.7069 4.61358C22.392 4.61358 22.137 4.35106 22.137 4.02704C22.137 3.70302 22.392 3.44049 22.7069 3.44049C23.0217 3.44049 23.2768 3.70302 23.2768 4.02704C23.2768 4.35106 23.0217 4.61358 22.7069 4.61358ZM19.9082 1.18593L20.094 1.44969H20.5936L20.4078 1.18593H19.8828H19.9082ZM20.1453 2.08267L19.4408 0.942425H22.0026L22.3165 1.31806L22.5149 1.25237L22.1883 0.593214H21.0164L20.7152 0H17.7501L14.1829 2.03673V3.05843L13.1007 3.59238V4.78547C14.0228 4.46911 14.9514 4.12632 15.8225 3.75068C17.2572 3.15747 18.6914 2.55067 20.1453 2.08267ZM20.523 0.355632L20.7407 0.586299H19.8442L19.7482 0.454419H19.2167L19.3064 0.586299H19.2234L19.0825 0.658907L18.9417 0.461087H18.4164L18.6022 0.724847H18.9544L18.3653 1.01503L17.9682 0.355879H20.53L20.523 0.355632ZM14.4327 2.26049L17.7628 0.559873L17.8842 0.751026L14.4259 2.40546V2.26049H14.4327ZM13.4783 3.7897L18.9988 1.364L19.2037 1.70012L13.44 4.04013L13.4783 3.7897ZM21.3876 1.41685L21.2019 1.15309H20.6831L20.8688 1.41685H21.3938H21.3876ZM20.8434 1.89819L20.6898 1.63443H20.1453L20.2989 1.89819H20.8496H20.8434Z" fill="#163B85"/>
<path d="M32.9484 12.1817C32.8529 12.1817 32.6923 12.2738 32.4667 12.4578C32.241 12.6419 31.9329 12.918 31.5423 13.2862L28.73 15.9632V22.8298H30.2924V17.4157H35.2919V22.8298H36.9194V15.9632L34.3675 13.3702C33.9596 12.978 33.6471 12.6819 33.4301 12.4819C33.2218 12.2818 33.0612 12.1817 32.9484 12.1817ZM34.3675 11.4975C33.9856 11.0973 33.7079 10.8372 33.5343 10.7172C33.3694 10.5971 33.1741 10.5371 32.9484 10.5371C32.7314 10.5371 32.5404 10.5891 32.3755 10.6932C32.2106 10.7892 31.9329 11.0213 31.5423 11.3894L30.9954 11.9056V10.6572H29.5112V13.3222L27.6364 15.1709L28.079 15.531C28.079 15.531 28.2006 15.411 28.4436 15.1709C28.6866 14.9388 28.9817 14.6507 29.3289 14.3065C29.6848 13.9624 30.0624 13.5983 30.4616 13.2141C30.8609 12.83 31.2124 12.4939 31.5162 12.2057C31.9155 11.8296 32.228 11.5615 32.4536 11.4014C32.688 11.2334 32.8529 11.1493 32.9484 11.1493C33.0525 11.1493 33.2175 11.2414 33.4431 11.4254C33.6775 11.6015 33.9856 11.8816 34.3675 12.2658C34.654 12.5619 34.9881 12.898 35.37 13.2742C35.7519 13.6583 36.1122 14.0224 36.4507 14.3666C36.7979 14.7107 37.0886 14.9988 37.323 15.2309C37.5573 15.471 37.6745 15.591 37.6745 15.591L38 15.1709L34.3675 11.4975Z" fill="#163B85"/>
<path d="M3.28899 22.8298H4.22745C4.39211 22.8298 4.53621 22.7452 4.621 22.6144L7.34557 17.9529C7.41455 17.811 7.56073 17.7105 7.71641 17.7144H10.8345C11.6537 17.7176 12.0833 17.3682 12.0908 16.6375C12.0984 15.9067 11.3781 15.6524 10.8421 15.6528H7.73911C7.58297 15.6528 7.43371 15.5764 7.35313 15.4375L4.60586 10.7528C4.52458 10.6218 4.37972 10.5309 4.22745 10.5374H3.31926L3.18304 10.7759L4.65884 15.399L4.50748 15.6452H2.05537C1.88949 15.6452 1.76453 15.5749 1.66182 15.4452L1.22286 14.8528C1.12962 14.7399 0.969038 14.6492 0.821747 14.6528H0.186016C0.0852021 14.6457 -0.00586296 14.7507 0.00437792 14.8528L0.443336 16.9067L0.00437792 18.4759C-0.00959834 18.6038 0.00341162 18.7081 0.140606 18.7221H0.821747C0.986367 18.7221 1.11622 18.646 1.22286 18.5221L1.66182 17.9144C1.74874 17.7838 1.90032 17.7019 2.05537 17.7067H4.53018L4.67398 17.9605L3.16033 22.5836L3.28899 22.8298Z" fill="#163B85"/>
<path d="M23.8703 26.8523H23.4507V26.0897C23.4392 25.2567 22.7941 24.5859 22.0001 24.5859C21.991 24.5859 21.9818 24.5859 21.9726 24.5863H16.0203C16.0141 24.5863 16.0067 24.5863 15.9995 24.5863C15.2055 24.5863 14.5605 25.257 14.5489 26.089V26.853H14.1239C14.1222 26.853 14.1205 26.853 14.1188 26.853C13.9528 26.853 13.8182 26.9946 13.8182 27.169V28.9016C13.8212 29.0739 13.9545 29.2123 14.1188 29.2123C14.1205 29.2123 14.1225 29.2123 14.1242 29.2123H14.5489V32.9495C14.3843 33.0975 14.2806 33.3156 14.2796 33.5594V34.1372C14.2966 34.5833 14.6448 34.938 15.0719 34.938C15.0756 34.938 15.0797 34.938 15.0835 34.938H15.1865V35.7607C15.1892 35.8937 15.2926 36.0006 15.4198 36.0006C15.4215 36.0006 15.4235 36.0006 15.4252 36.0006H16.513C16.5147 36.0006 16.5164 36.0006 16.5181 36.0006C16.6449 36.0006 16.7483 35.894 16.7513 35.761V34.938H21.2592V35.7607C21.2619 35.8937 21.3653 36.0006 21.4925 36.0006C21.4942 36.0006 21.4962 36.0006 21.4979 36.0006H22.5857C22.5874 36.0006 22.5891 36.0006 22.5908 36.0006C22.7176 36.0006 22.821 35.894 22.8241 35.761V34.938H22.9227C22.9257 34.938 22.9295 34.938 22.9332 34.938C23.3657 34.938 23.717 34.5741 23.7258 34.1214V33.5648C23.7248 33.3209 23.6208 33.1025 23.4575 32.9555L23.4565 29.2173H23.871C23.8741 29.2173 23.8778 29.2176 23.8812 29.2176C24.0472 29.2176 24.1818 29.0761 24.1818 28.9016V27.1687C24.1788 26.9964 24.0455 26.858 23.8812 26.858C23.8795 26.858 23.8775 26.858 23.8758 26.858L23.8703 26.8523ZM22.5388 26.972V30.6713H19.3989V26.9778H22.5337L22.5388 26.972ZM17.4454 25.3703H20.5543C20.556 25.3703 20.5577 25.3703 20.5594 25.3703C20.7723 25.3703 20.945 25.5502 20.9481 25.7733C20.945 25.9967 20.7723 26.1769 20.5594 26.1769C20.5577 26.1769 20.5557 26.1769 20.554 26.1769H17.4454C17.4437 26.1769 17.442 26.1769 17.4403 26.1769C17.2274 26.1769 17.0547 25.9971 17.0516 25.774C17.0547 25.5505 17.2274 25.3703 17.4403 25.3703C17.442 25.3703 17.4437 25.3703 17.4454 25.3703ZM15.4606 26.9778H18.5954V30.6771H15.4606V26.9778ZM16.8649 32.3274C16.8619 32.5476 16.6915 32.7253 16.4814 32.7253C16.4797 32.7253 16.4776 32.7253 16.4759 32.7253H15.8336C15.8319 32.7253 15.8302 32.7253 15.8285 32.7253C15.6187 32.7253 15.448 32.548 15.4453 32.3277V31.8862C15.4483 31.666 15.6187 31.4883 15.8288 31.4883C15.8305 31.4883 15.8326 31.4883 15.8343 31.4883H16.4766C16.4783 31.4883 16.48 31.4883 16.4817 31.4883C16.6915 31.4883 16.8622 31.6656 16.8649 31.8858V32.3274ZM21.1344 32.3274V31.8862C21.1375 31.666 21.3078 31.4883 21.518 31.4883C21.5197 31.4883 21.5217 31.4883 21.5234 31.4883H22.1603C22.162 31.4883 22.1637 31.4883 22.1654 31.4883C22.3752 31.4883 22.5459 31.6656 22.549 31.8858V32.3274C22.5459 32.5476 22.3755 32.7253 22.1654 32.7253C22.1637 32.7253 22.1617 32.7253 22.16 32.7253H21.5231C21.5214 32.7253 21.5197 32.7253 21.518 32.7253C21.3082 32.7253 21.1375 32.5476 21.1344 32.3274Z" fill="#163B85"/>
<path d="M19.8636 15.2996H22.4545V17.0996H19.8636V19.7996H18.1364V17.0996H15.5455V15.2996H18.1364V12.5996H19.8636V15.2996Z" fill="#163B85"/>
</svg>
