<svg width="16" height="16" viewBox="0 0 16 16" fill="none" xmlns="http://www.w3.org/2000/svg">
<path d="M15.7808 2.0958C15.7126 2.00196 15.625 1.92897 15.5178 1.87683C15.4107 1.81427 15.2986 1.78299 15.1817 1.78299H3.68219L3.52146 0.750733C3.49224 0.531769 3.3997 0.354513 3.24384 0.218964C3.08798 0.0729879 2.90776 0 2.7032 0C2.7032 0 2.69833 0 2.68858 0H0.832877C0.599087 0 0.399391 0.0886282 0.23379 0.265885C0.07793 0.432714 0 0.641251 0 0.891496C0 1.13131 0.07793 1.33985 0.23379 1.51711C0.399391 1.69436 0.599087 1.78299 0.832877 1.78299H1.98721L3.55068 11.7146C3.55068 11.725 3.55068 11.7354 3.55068 11.7458C3.55068 11.7458 3.55068 11.7511 3.55068 11.7615C3.55068 11.7719 3.55068 11.7823 3.55068 11.7928C3.55068 11.8032 3.55068 11.8136 3.55068 11.824C3.55068 11.8449 3.55068 11.8658 3.55068 11.8866C3.55068 11.9075 3.56043 11.9283 3.57991 11.9492C3.55068 11.8866 3.54581 11.8814 3.5653 11.9335C3.59452 11.9857 3.63349 12.0482 3.68219 12.1212L3.75525 12.2151C3.71629 12.1838 3.71629 12.189 3.75525 12.2307C3.80396 12.262 3.85753 12.2933 3.91598 12.3245L4.01826 12.3871C4.06697 12.3975 4.11568 12.4132 4.16438 12.434C4.21309 12.4444 4.26667 12.4497 4.32511 12.4497H13.4575C13.6913 12.4497 13.8861 12.361 14.042 12.1838C14.2076 12.0065 14.2904 11.798 14.2904 11.5582C14.2904 11.3079 14.2076 11.0994 14.042 10.9326C13.8861 10.7553 13.6913 10.6667 13.4575 10.6667H5.07032L4.93881 9.77517H14.3342C14.344 9.77517 14.3489 9.77517 14.3489 9.77517C14.5534 9.77517 14.7336 9.70218 14.8895 9.55621C15.0454 9.41023 15.1379 9.23298 15.1671 9.02444L16 2.78397C16 2.77354 16 2.76311 16 2.75269C16 2.73183 16 2.71619 16 2.70577C16 2.58065 15.9805 2.46595 15.9416 2.36168C15.9026 2.25741 15.849 2.16878 15.7808 2.0958ZM4.64658 7.99218L4.36895 6.22483H6.86758V7.99218H4.64658ZM6.85297 5.33333H4.36895C4.35921 5.33333 4.34947 5.33333 4.33973 5.33333C4.32998 5.33333 4.32024 5.33333 4.3105 5.33333C4.30076 5.33333 4.28615 5.33333 4.26667 5.33333C4.25693 5.33333 4.24718 5.33333 4.23744 5.33333L3.95982 3.55034H6.85297V5.33333ZM10.1845 7.99218H7.68584V6.22483H10.1845V7.99218ZM10.1845 5.33333H7.68584V3.55034H10.1845V5.33333ZM13.6183 7.99218H11.0174V6.22483H13.8521L13.6183 7.99218ZM13.969 5.33333H11.0174V3.55034H14.2174L13.969 5.33333ZM5.61096 13.3255C5.27002 13.3359 4.97778 13.4715 4.73425 13.7322C4.49072 13.9824 4.36895 14.2952 4.36895 14.6706C4.36895 15.0355 4.49072 15.3483 4.73425 15.609C4.97778 15.8697 5.27489 16 5.62557 16C5.96651 16 6.25875 15.8697 6.50228 15.609C6.74581 15.3483 6.86758 15.0355 6.86758 14.6706C6.86758 14.2952 6.74581 13.9772 6.50228 13.7165C6.25875 13.4558 5.96651 13.3255 5.62557 13.3255C5.62557 13.3255 5.6207 13.3255 5.61096 13.3255ZM13.0922 13.3255C12.7416 13.3255 12.4444 13.4558 12.2009 13.7165C11.9574 13.9772 11.8356 14.2952 11.8356 14.6706C11.8356 15.0355 11.9574 15.3483 12.2009 15.609C12.4444 15.8697 12.7416 16 13.0922 16C13.4332 16 13.7254 15.8697 13.969 15.609C14.2125 15.3483 14.3342 15.0355 14.3342 14.6706C14.3342 14.3056 14.2125 13.9928 13.969 13.7322C13.7254 13.4715 13.4332 13.3359 13.0922 13.3255Z" fill="white"/>
</svg>
