<svg width="22" height="22" viewBox="0 0 22 22" fill="none" xmlns="http://www.w3.org/2000/svg">
<path fill-rule="evenodd" clip-rule="evenodd" d="M0 0H22V22H0V0ZM12.3395 13.2416H9.72275L9.3553 2.80265H12.7069L12.3395 13.2416ZM9.77843 16.6879C9.45922 16.9847 9.29962 17.3679 9.29962 17.8374C9.29962 18.3 9.45551 18.6797 9.76729 18.9766C10.0865 19.2734 10.5059 19.4219 11.0255 19.4219C11.5377 19.4219 11.9497 19.2734 12.2615 18.9766C12.5807 18.6797 12.7403 18.3 12.7403 17.8374C12.7403 17.3679 12.5807 16.9847 12.2615 16.6879C11.9423 16.3841 11.5303 16.2322 11.0255 16.2322C10.5133 16.2322 10.0976 16.3841 9.77843 16.6879Z" fill="#0F7EE6"/>
</svg>
