<svg width="32" height="32" viewBox="0 0 32 32" fill="none" xmlns="http://www.w3.org/2000/svg">
<path d="M16 2C14.4738 2 13.0499 2.25391 11.7284 2.76172C10.3883 3.26953 9.21574 3.98242 8.21066 4.90039C7.2242 5.81836 6.44247 6.93164 5.86548 8.24023C5.28849 9.54883 5 10.9941 5 12.5762C5 14.1777 5.57699 16.0918 6.73096 18.3184C7.86633 20.5254 9.12267 22.6445 10.5 24.6758C11.8773 26.707 13.1337 28.4355 14.269 29.8613C15.423 31.2871 16 32 16 32C16 32 16.5677 31.2871 17.703 29.8613C18.857 28.4355 20.1227 26.707 21.5 24.6758C22.8773 22.6445 24.1337 20.5254 25.269 18.3184C26.423 16.0918 27 14.1777 27 12.5762C27 10.9941 26.7115 9.54883 26.1345 8.24023C25.5575 6.93164 24.7665 5.81836 23.7614 4.90039C22.775 3.98242 21.6117 3.26953 20.2716 2.76172C18.9315 2.25391 17.5076 2 16 2ZM6.4797 12.5762C6.4797 11.1895 6.72166 9.93945 7.20558 8.82617C7.70812 7.71289 8.38748 6.76562 9.24366 5.98438C10.1184 5.20312 11.1328 4.59766 12.2868 4.16797C13.4408 3.73828 14.6785 3.52344 16 3.52344C17.3215 3.52344 18.5592 3.73828 19.7132 4.16797C20.8672 4.59766 21.8723 5.20312 22.7284 5.98438C23.6032 6.76562 24.2826 7.71289 24.7665 8.82617C25.269 9.93945 25.5203 11.1895 25.5203 12.5762C25.5203 13.9629 25.0271 15.6426 24.0406 17.6152C23.0541 19.5879 21.9653 21.4922 20.7741 23.3281C19.5829 25.1445 18.4848 26.6875 17.4797 27.957C16.4932 29.2461 16 29.8906 16 29.8906C16 29.8906 15.5068 29.2461 14.5203 27.957C13.5152 26.6875 12.4171 25.1445 11.2259 23.3281C10.0347 21.4922 8.94585 19.5879 7.95939 17.6152C6.97293 15.6426 6.4797 13.9629 6.4797 12.5762Z" fill="#0F7EE6"/>
<path fill-rule="evenodd" clip-rule="evenodd" d="M20.1009 15.0664C20.1009 15.0078 20.073 14.959 20.0172 14.9199C19.9799 14.8809 19.9334 14.8613 19.8776 14.8613C19.859 14.8613 19.831 14.8711 19.7938 14.8906C19.7752 14.8906 19.7566 14.9004 19.738 14.9199L18.1745 16.209C18.1559 16.2285 18.1373 16.2578 18.1187 16.2969V16.3555C18.1187 16.3945 18.128 16.4336 18.1466 16.4727C18.1652 16.4922 18.1931 16.5117 18.2304 16.5312C18.2676 16.5508 18.3048 16.5801 18.342 16.6191C18.3793 16.6582 18.3979 16.7168 18.3979 16.7949C18.3979 16.834 18.3886 16.873 18.37 16.9121C18.37 16.9159 18.3693 16.9197 18.3679 16.9235C18.3543 16.9349 18.3364 16.9507 18.3141 16.9707C18.3441 16.955 18.362 16.9392 18.3679 16.9235C18.4337 16.8678 18.3972 16.9128 18.2583 17.0586C18.1094 17.2148 17.9046 17.3809 17.6441 17.5566C17.7744 17.4785 17.765 17.4883 17.6161 17.5859C17.4672 17.6641 17.2904 17.752 17.0857 17.8496C17.0485 17.8496 17.0205 17.8594 17.0019 17.8789H16.9461C16.8716 17.8789 16.8065 17.8496 16.7507 17.791C16.6948 17.7324 16.6669 17.6641 16.6669 17.5859V12.752C16.6669 12.6934 16.6855 12.6445 16.7227 12.6055C16.76 12.5664 16.7972 12.5371 16.8344 12.5176C17.1694 12.3613 17.4393 12.1367 17.6441 11.8438C17.8488 11.5312 17.9512 11.1797 17.9512 10.7891C17.9512 10.2812 17.765 9.8418 17.3928 9.4707C17.0205 9.09961 16.5645 8.91406 16.0248 8.91406C15.5036 8.91406 15.0569 9.09961 14.6847 9.4707C14.3124 9.8418 14.1263 10.2812 14.1263 10.7891C14.1263 11.1797 14.2287 11.5312 14.4334 11.8438C14.6381 12.1367 14.8987 12.3516 15.2151 12.4883C15.271 12.5273 15.3082 12.5664 15.3268 12.6055C15.364 12.6445 15.3826 12.6934 15.3826 12.752V17.5859C15.3826 17.6641 15.3547 17.7324 15.2989 17.791C15.243 17.8301 15.1779 17.8496 15.1035 17.8496H15.0197C15.1314 17.9082 15.1035 17.9082 14.9359 17.8496C14.787 17.7715 14.6195 17.6738 14.4334 17.5566C14.5637 17.6543 14.5358 17.6445 14.3496 17.5273C14.1635 17.3906 13.9588 17.2051 13.7354 16.9707L13.6796 16.9121V16.7949C13.6796 16.7168 13.6889 16.6582 13.7075 16.6191C13.7447 16.5801 13.7913 16.5508 13.8471 16.5312C13.8843 16.5117 13.9123 16.4922 13.9309 16.4727C13.9495 16.4336 13.9588 16.3945 13.9588 16.3555C13.9588 16.3359 13.9495 16.3164 13.9309 16.2969C13.9309 16.2578 13.9216 16.2285 13.9029 16.209L12.3116 14.9199C12.293 14.9004 12.2743 14.8906 12.2557 14.8906C12.2371 14.8711 12.2092 14.8613 12.172 14.8613C12.1161 14.8613 12.0696 14.8809 12.0324 14.9199C11.9952 14.959 11.9672 15.0078 11.9486 15.0664L11.6415 17.0879V17.1172C11.6415 17.1758 11.6508 17.2246 11.6694 17.2637C11.7067 17.2832 11.7532 17.293 11.809 17.293H11.8649L12.0882 17.2051H12.1161C12.1348 17.1855 12.1534 17.1758 12.172 17.1758C12.2278 17.1758 12.2744 17.1855 12.3116 17.2051C12.3488 17.2246 12.3767 17.2539 12.3953 17.293C12.842 17.918 13.3818 18.4062 14.0146 18.7578C14.6474 19.1094 15.3175 19.2852 16.0248 19.2852C16.732 19.2852 17.4021 19.1094 18.0349 18.7578C18.6678 18.4062 19.2075 17.918 19.6542 17.293C19.6728 17.2539 19.7007 17.2246 19.738 17.2051C19.7938 17.1855 19.8403 17.1758 19.8776 17.1758C19.8962 17.1758 19.9148 17.1855 19.9334 17.2051H19.9892L20.1847 17.293H20.2684C20.3057 17.293 20.3429 17.2832 20.3801 17.2637C20.4173 17.2246 20.4359 17.1758 20.4359 17.1172V17.0879L20.1009 15.0664ZM16.0145 11.2838C16.3182 11.2838 16.5645 11.032 16.5645 10.7213C16.5645 10.4107 16.3182 10.1588 16.0145 10.1588C15.7107 10.1588 15.4645 10.4107 15.4645 10.7213C15.4645 11.032 15.7107 11.2838 16.0145 11.2838Z" fill="#0F7EE6"/>
</svg>
