<svg width="16" height="16" viewBox="0 0 16 16" fill="none" xmlns="http://www.w3.org/2000/svg">
<path fill-rule="evenodd" clip-rule="evenodd" d="M4.8906 0.625096C3.91141 1.04178 3.05981 1.61206 2.33594 2.33594C1.61179 3.06008 1.04151 3.91168 0.624962 4.8906C0.208276 5.85947 0 6.89603 0 8C0 9.10424 0.208276 10.1407 0.624962 11.1094C1.04151 12.0886 1.61179 12.9402 2.33594 13.6641C3.05981 14.3882 3.91141 14.9585 4.8906 15.375C5.85934 15.7916 6.89576 16 8 16C9.10397 16 10.1407 15.7916 11.1094 15.375C12.0883 14.9585 12.9399 14.3882 13.6641 13.6641C14.3879 12.9402 14.9582 12.0886 15.375 11.1094C15.7915 10.1407 16 9.10424 16 8C16 6.89603 15.7915 5.85947 15.375 4.8906C14.9582 3.91168 14.3879 3.06008 13.6641 2.33594C12.9399 1.61206 12.0883 1.04178 11.1094 0.625096C10.1407 0.208544 9.10397 0 8 0C6.89576 0 5.85934 0.208544 4.8906 0.625096ZM8.29687 10.0001L6.67194 10.0156C6.66135 9.93238 6.6509 9.84915 6.64058 9.76566C6.63012 9.68243 6.62503 9.59383 6.62503 9.50002C6.62503 9.37497 6.6328 9.24765 6.64848 9.11724C6.66403 8.9871 6.68749 8.85937 6.71871 8.73446C6.77072 8.57819 6.83063 8.42969 6.89844 8.28909C6.96613 8.1485 7.04145 8.01059 7.12495 7.87509C7.20831 7.7605 7.29931 7.65113 7.39849 7.54686C7.49727 7.44285 7.59886 7.34917 7.70313 7.26567L8.3281 6.73439C8.42191 6.66162 8.50782 6.58348 8.58596 6.49998C8.6641 6.41675 8.73955 6.32307 8.81246 6.2188C8.87505 6.13557 8.92183 6.04175 8.95319 5.93748C8.98442 5.83347 8.99997 5.72411 8.99997 5.60938V5.59383V5.57815C8.99997 5.56797 8.99997 5.55738 8.99997 5.54693C8.99997 5.41169 8.97383 5.28397 8.92183 5.16415C8.86969 5.04446 8.80201 4.94287 8.71878 4.85937C8.59373 4.76569 8.45823 4.69023 8.31255 4.63287C8.16646 4.57577 8.01032 4.54696 7.84373 4.54696C7.82282 4.54696 7.80204 4.54964 7.78127 4.55473C7.76023 4.56009 7.73945 4.56251 7.71881 4.56251C7.677 4.56251 7.63532 4.56009 7.59377 4.55473C7.55195 4.54964 7.50518 4.54696 7.45317 4.54696C7.41136 4.54696 7.36968 4.54964 7.32813 4.55473C7.28631 4.56009 7.23954 4.56251 7.18754 4.56251C7.09372 4.58355 7.00245 4.60432 6.91412 4.6251C6.8254 4.646 6.73949 4.67187 6.65626 4.7031C6.56244 4.73446 6.47385 4.76837 6.39062 4.80469C6.30712 4.84128 6.22389 4.88042 6.14066 4.92196C6.06762 4.95319 5.99725 4.98978 5.9297 5.03133C5.86175 5.07301 5.79688 5.11483 5.73443 5.15624L4.98442 3.84373C5.17192 3.71881 5.37229 3.60422 5.58593 3.50008C5.7993 3.39608 6.02071 3.30735 6.25002 3.23444C6.5103 3.16167 6.77862 3.10431 7.05472 3.06249C7.33054 3.02108 7.61454 3.00003 7.90632 3.00003C7.93754 3.00003 7.96341 3.00003 7.98432 3.00003C8.00509 3.00003 8.02587 3.00003 8.04691 3.00003C8.07814 3.00003 8.11178 3.00003 8.1485 3.00003C8.18482 3.00003 8.21873 3.00003 8.24996 3.00003C8.62496 3.00003 8.97906 3.05472 9.31251 3.16408C9.6457 3.27345 9.9478 3.4324 10.2188 3.64068C10.4583 3.82818 10.6485 4.06004 10.7891 4.336C10.9297 4.6121 11 4.91674 11 5.25006C11 5.26051 11 5.27097 11 5.28129C11 5.29174 11 5.30233 11 5.31251C11 5.32297 11 5.33356 11 5.34374C11 5.35433 11 5.36478 11 5.37497C11 5.57306 10.9817 5.76566 10.9454 5.95316C10.9086 6.14066 10.8539 6.32307 10.7813 6.49998C10.7187 6.64607 10.6485 6.78398 10.5703 6.91412C10.4922 7.04453 10.4009 7.16167 10.2969 7.26567C10.2031 7.36994 10.1015 7.4714 9.99216 7.57031C9.88279 7.66949 9.76029 7.76572 9.62506 7.85941C9.52079 7.93245 9.41411 8.01327 9.30474 8.10159C9.19538 8.19018 9.09378 8.28132 8.99997 8.375C8.90628 8.4585 8.81769 8.55232 8.73433 8.65632C8.65083 8.7606 8.57819 8.86996 8.5156 8.98442C8.44269 9.11992 8.388 9.2656 8.35155 9.42188C8.31496 9.57815 8.29687 9.73443 8.29687 9.8907C8.29687 9.91161 8.29687 9.93238 8.29687 9.95316C8.29687 9.9742 8.29687 9.98975 8.29687 10.0001ZM6.70317 12.7031C6.59889 12.6199 6.51808 12.5132 6.46098 12.3829C6.40362 12.2528 6.37494 12.1147 6.37494 11.9688C6.37494 11.9586 6.37494 11.948 6.37494 11.9375V11.9063C6.37494 11.7605 6.40362 11.625 6.46098 11.5001C6.51808 11.375 6.59889 11.2657 6.70317 11.1719C6.80717 11.0782 6.92699 11.0078 7.06249 10.961C7.19772 10.9141 7.33831 10.8907 7.4844 10.8907C7.49459 10.8907 7.50518 10.8907 7.51563 10.8907C7.52582 10.8907 7.5364 10.8907 7.54686 10.8907C7.55718 10.8907 7.57031 10.8907 7.58599 10.8907C7.60154 10.8907 7.61454 10.8907 7.625 10.8907C7.78127 10.8907 7.92696 10.9141 8.06246 10.961C8.19769 11.0078 8.32273 11.0782 8.43746 11.1719C8.53128 11.2657 8.60673 11.375 8.6641 11.5001C8.72119 11.625 8.75001 11.7605 8.75001 11.9063V11.9375C8.75001 11.948 8.75001 11.9586 8.75001 11.9688C8.75001 12.1147 8.72119 12.2528 8.6641 12.3829C8.60673 12.5132 8.53128 12.6199 8.43746 12.7031C8.32273 12.7969 8.19528 12.87 8.05468 12.922C7.91409 12.9741 7.77082 13.0001 7.625 13.0001C7.60395 13.0001 7.58841 13.0001 7.57809 13.0001C7.56763 13.0001 7.55718 13.0001 7.54686 13.0001C7.5364 13.0001 7.52863 13.0001 7.5234 13.0001C7.51804 13.0001 7.51027 13.0001 7.49995 13.0001C7.34381 13.0001 7.19772 12.9741 7.06249 12.922C6.92699 12.87 6.80717 12.7969 6.70317 12.7031Z" fill="#0F7EE6"/>
</svg>
