<svg width="16" height="16" viewBox="0 0 16 16" fill="none" xmlns="http://www.w3.org/2000/svg">
<path d="M9.69279 7.6875V13.5938H13.8934V7.6875H9.69279ZM12.9655 12.4219H10.6332V8.85938H12.9655V12.4219ZM8.25078 8.875H5.01567C4.88192 8.875 4.76907 8.81771 4.67712 8.70312C4.58516 8.58854 4.53919 8.44792 4.53919 8.28125C4.53919 8.125 4.58516 7.98958 4.67712 7.875C4.76907 7.76042 4.88192 7.70312 5.01567 7.70312H8.25078C8.37618 7.70312 8.48485 7.76042 8.5768 7.875C8.66876 7.98958 8.71473 8.125 8.71473 8.28125C8.71473 8.44792 8.66876 8.58854 8.5768 8.70312C8.48485 8.81771 8.37618 8.875 8.25078 8.875ZM8.25078 11.2344H5.01567C4.88192 11.2344 4.76907 11.1771 4.67712 11.0625C4.58516 10.9479 4.53919 10.8125 4.53919 10.6562C4.53919 10.4896 4.58516 10.349 4.67712 10.2344C4.76907 10.1198 4.88192 10.0625 5.01567 10.0625H8.25078C8.37618 10.0625 8.48485 10.1198 8.5768 10.2344C8.66876 10.349 8.71473 10.4896 8.71473 10.6562C8.71473 10.8125 8.66876 10.9479 8.5768 11.0625C8.48485 11.1771 8.37618 11.2344 8.25078 11.2344ZM8.25078 13.5938H5.01567C4.88192 13.5938 4.76907 13.5417 4.67712 13.4375C4.58516 13.3229 4.53919 13.1823 4.53919 13.0156C4.53919 12.8594 4.58516 12.724 4.67712 12.6094C4.76907 12.4948 4.88192 12.4375 5.01567 12.4375H8.25078C8.37618 12.4375 8.48485 12.4948 8.5768 12.6094C8.66876 12.724 8.71473 12.8594 8.71473 13.0156C8.71473 13.1823 8.66876 13.3229 8.5768 13.4375C8.48485 13.5417 8.37618 13.5938 8.25078 13.5938ZM13.4922 5.96875H5.01567C4.88192 5.96875 4.76907 5.91146 4.67712 5.79688C4.58516 5.68229 4.53919 5.54167 4.53919 5.375C4.53919 5.21875 4.58516 5.08333 4.67712 4.96875C4.76907 4.85417 4.88192 4.79688 5.01567 4.79688H13.4922C13.6259 4.79688 13.7388 4.85417 13.8307 4.96875C13.9227 5.08333 13.9687 5.21875 13.9687 5.375C13.9687 5.54167 13.9227 5.68229 13.8307 5.79688C13.7388 5.91146 13.6259 5.96875 13.4922 5.96875ZM13.4922 3.59375H5.01567C4.88192 3.59375 4.76907 3.53646 4.67712 3.42188C4.58516 3.30729 4.53919 3.16667 4.53919 3C4.53919 2.84375 4.58516 2.70833 4.67712 2.59375C4.76907 2.47917 4.88192 2.42188 5.01567 2.42188H13.4922C13.6259 2.42188 13.7388 2.47917 13.8307 2.59375C13.9227 2.70833 13.9687 2.84375 13.9687 3C13.9687 3.16667 13.9227 3.30729 13.8307 3.42188C13.7388 3.53646 13.6259 3.59375 13.4922 3.59375ZM1.73041 16C1.24556 15.9896 0.835946 15.7708 0.501567 15.3438C0.167189 14.9167 0 14.4062 0 13.8125C0 13.8021 0 13.7917 0 13.7812C0 13.7708 0 13.7604 0 13.75V2.75H0.915361V13.75C0.915361 13.7604 0.915361 13.7708 0.915361 13.7812C0.915361 13.7917 0.915361 13.8021 0.915361 13.8125C0.915361 14.0938 0.990596 14.3385 1.14107 14.5469C1.2999 14.7448 1.49216 14.849 1.71787 14.8594C1.94357 14.849 2.13166 14.7448 2.28213 14.5469C2.44096 14.3385 2.52038 14.0938 2.52038 13.8125C2.52038 13.8125 2.52038 13.8073 2.52038 13.7969C2.52038 13.7865 2.52038 13.7812 2.52038 13.7812V0H16V13.7656C16 14.3802 15.8245 14.9062 15.4734 15.3438C15.1223 15.7812 14.7001 16 14.2069 16H1.73041ZM3.48589 1.14062C3.47753 1.14062 3.46499 1.14583 3.44828 1.15625C3.43992 1.15625 3.43574 1.16146 3.43574 1.17188C3.42738 1.17188 3.41902 1.18229 3.41066 1.20312C3.41066 1.21354 3.41066 1.22396 3.41066 1.23438V13.75C3.41066 13.7604 3.41066 13.7656 3.41066 13.7656C3.41066 13.9323 3.39394 14.099 3.3605 14.2656C3.32706 14.4323 3.28527 14.5885 3.23511 14.7344C3.23511 14.7344 3.23093 14.7396 3.22257 14.75C3.22257 14.7604 3.22257 14.7656 3.22257 14.7656C3.22257 14.776 3.22257 14.7865 3.22257 14.7969C3.23093 14.8073 3.23511 14.8177 3.23511 14.8281C3.24347 14.8385 3.25183 14.849 3.26019 14.8594C3.27691 14.8594 3.28945 14.8594 3.29781 14.8594H14.2069C14.4577 14.8594 14.6667 14.7552 14.8339 14.5469C15.0094 14.3281 15.0972 14.0677 15.0972 13.7656V1.23438C15.0972 1.20312 15.0888 1.18229 15.0721 1.17188C15.0554 1.15104 15.0387 1.14062 15.0219 1.14062H3.48589Z" fill="#0F7EE6"/>
</svg>
