<?xml version="1.0" encoding="UTF-8"?>
<svg viewBox="0 0 57.59 32" xmlns="http://www.w3.org/2000/svg">
<defs>
<style>.ship-big-a{fill:#fff;}</style>
</defs>
<title>icon-ship-big</title>
<path class="ship-big-a" transform="translate(-1.13)" d="M50,26.42c-.93-6.35,7.5-12.11,8.76-19a41.68,41.68,0,0,0-5-.29c-12.52,0-24.78,5.33-37,10.06,16.25-6.8.87.69-15.63,5.58l.45,5.95V32h51.8c0-4.94-2.83-2.4-3.42-5.58Zm-4.59-7.74a2.38,2.38,0,1,1,2.38-2.37h0A2.38,2.38,0,0,1,45.37,18.68ZM33.71,4.8l.77,1.07h2.08L35.79,4.8H33.71Zm1,3.63L31.76,3.82H42.44l1.3,1.52.83-.27L43.21,2.4H38.33L37.07,0H24.71L9.85,8.25v4.14L5.34,14.55v4.83c3.84-1.28,7.71-2.67,11.34-4.19,6-2.4,12-4.86,18-6.75Zm1.57-7,.91.94H33.44L33,1.84H30.83l.37.54h-.35l-.58.29-.59-.8H27.49l.78,1.07h1.46L27.28,4.11,25.62,1.44H36.27ZM10.89,9.15,24.77,2.27l.5.77L10.86,9.74V9.15Zm-4,6.2,23-9.83.85,1.37-24,9.47Zm33-9.61L39.1,4.67H36.94l.77,1.07h2.16Zm-2.27,2L37,6.62H34.7l.64,1.07H37.6Z"/>
</svg>
