<svg width="32" height="32" viewBox="0 0 32 32" fill="none" xmlns="http://www.w3.org/2000/svg">
<path d="M31.747 30.0866C31.5482 29.9304 31.241 29.7546 30.8253 29.5594C30.4097 29.3446 30.0031 29.2665 29.6055 29.3251C28.973 29.4422 28.4218 29.618 27.9519 29.8523C27.482 30.0866 26.9851 30.3209 26.461 30.5552C26.2261 30.6528 25.9279 30.7602 25.5664 30.8773C25.2231 31.014 24.8526 31.0433 24.455 30.9652C24.2201 30.9066 23.9942 30.8187 23.7773 30.7016C23.5605 30.604 23.3526 30.5063 23.1539 30.4087C22.9912 30.3501 22.8286 30.272 22.6659 30.1744C22.5213 30.0963 22.3677 30.0182 22.2051 29.9401C22.1509 29.9206 22.0786 29.9011 21.9882 29.8815C21.9159 29.8425 21.8617 29.8034 21.8256 29.7644C21.8075 29.6863 21.8165 29.5984 21.8527 29.5008C21.9069 29.4032 21.943 29.3251 21.9611 29.2665C22.0515 29.0322 22.1418 28.7979 22.2322 28.5636C22.3406 28.3293 22.431 28.095 22.5033 27.8607C22.684 27.3531 22.8828 26.865 23.0996 26.3964C23.3165 25.9278 23.5243 25.4592 23.7231 24.9906C23.9219 24.5024 24.1297 24.0241 24.3466 23.5555C24.5635 23.0869 24.8074 22.6378 25.0785 22.2083C25.1327 22.1106 25.196 22.0033 25.2683 21.8861C25.3586 21.769 25.458 21.6713 25.5664 21.5932C25.7291 21.4761 25.8827 21.398 26.0273 21.3589C26.1718 21.3004 26.2622 21.1442 26.2983 20.8903C26.3164 20.8122 26.3164 20.7341 26.2983 20.656C26.2983 20.5779 26.2803 20.5194 26.2441 20.4803C26.0634 20.1289 25.7291 19.8946 25.2411 19.7774C24.7713 19.6407 24.3285 19.5236 23.9129 19.426C23.7864 19.3869 23.6147 19.3772 23.3978 19.3967C23.181 19.3967 23.0183 19.3674 22.9099 19.3088C22.8557 19.2893 22.8286 19.1429 22.8286 18.8695C22.8466 18.5962 22.8557 18.4009 22.8557 18.2838V15.15L22.8286 10.6983C22.8105 10.6202 22.7653 10.5519 22.693 10.4933C22.6388 10.4152 22.5665 10.3664 22.4762 10.3469C22.3677 10.3274 22.196 10.3371 21.9611 10.3762C21.7443 10.3957 21.6178 10.3567 21.5816 10.259V9.26326C21.5997 9.16564 21.7262 8.99967 21.9611 8.76538C22.196 8.53108 22.3497 8.36512 22.4219 8.26749C22.4942 8.18939 22.5846 8.09177 22.693 7.97462C22.8195 7.85747 22.8557 7.71103 22.8015 7.53531C22.7111 7.28148 22.4852 7.16433 22.1238 7.18386C21.7623 7.20338 21.428 7.21315 21.1208 7.21315H17.3799C17.2534 7.21315 17.0004 7.22291 16.6209 7.24243C16.2595 7.24243 16.0426 7.22291 15.9703 7.18386C15.9342 7.14481 15.9161 6.96909 15.9161 6.65669C15.9342 6.32476 15.9432 6.10023 15.9432 5.98308V3.08363C15.9432 2.81028 15.9342 2.56622 15.9161 2.35145C15.898 2.11715 15.7534 2 15.4824 2L15.2926 2.05857C15.148 2.13667 15.0758 2.3124 15.0758 2.58575C15.0938 2.8591 15.1029 3.10316 15.1029 3.31793V5.98308C15.1029 6.11975 15.1029 6.35405 15.1029 6.68597C15.1209 6.99837 15.1029 7.18386 15.0486 7.24243C14.9402 7.26196 14.7414 7.27172 14.4523 7.27172C14.1631 7.27172 13.9734 7.2522 13.883 7.21315C13.7927 6.88122 13.7927 6.28571 13.883 5.42662C13.9914 4.548 13.8107 4.1575 13.3409 4.25513C13.2686 4.27465 13.2053 4.3137 13.1511 4.37227C13.0969 4.41132 13.0608 4.46014 13.0427 4.51871L13.0156 5.10446V6.59811C13.0156 6.67621 13.0156 6.7836 13.0156 6.92027C13.0336 7.03742 13.0246 7.12528 12.9885 7.18386C12.9704 7.24243 12.7897 7.27172 12.4463 7.27172C12.121 7.2522 11.9042 7.24243 11.7957 7.24243H9.13917C8.99459 7.24243 8.80484 7.24243 8.56991 7.24243C8.35305 7.22291 8.1904 7.24243 8.08197 7.30101C7.91932 7.43768 7.85607 7.59388 7.89221 7.76961C7.94643 7.92581 8.02775 8.06248 8.13618 8.17963L8.67834 8.79466C8.75062 8.85324 8.83195 8.93134 8.92231 9.02896C9.03074 9.10706 9.09399 9.18516 9.11206 9.26326V9.73186C9.11206 9.84901 9.11206 9.97592 9.11206 10.1126C9.13013 10.2297 9.1211 10.3176 9.08495 10.3762C8.92231 10.4152 8.71448 10.4152 8.46148 10.3762C8.22654 10.3371 8.0639 10.3957 7.97354 10.5519C7.86511 10.7081 7.81089 11.04 7.81089 11.5477C7.82896 12.0358 7.838 12.4263 7.838 12.7192V17.4051C7.838 17.6394 7.84703 17.9909 7.86511 18.4595C7.88318 18.9281 7.86511 19.2307 7.81089 19.3674C7.70246 19.4064 7.58499 19.426 7.45849 19.426C7.33199 19.4064 7.20549 19.4064 7.07898 19.426C6.64526 19.5236 6.13021 19.6505 5.53384 19.8067C4.95555 19.9434 4.58507 20.1972 4.42243 20.5682C4.27785 20.9196 4.32303 21.1637 4.55797 21.3004C4.7929 21.4175 4.99169 21.5347 5.15434 21.6518C5.22662 21.7104 5.28987 21.7787 5.34409 21.8568C5.41638 21.9349 5.47963 22.013 5.53384 22.0911C6.02178 22.8721 6.45551 23.7214 6.83501 24.6391C7.23259 25.5373 7.62114 26.4452 8.00065 27.3628C8.10908 27.6752 8.22654 27.9876 8.35305 28.3C8.47955 28.6124 8.60605 28.9248 8.73255 29.2372C8.75062 29.2958 8.78677 29.4032 8.84098 29.5594C8.91327 29.7156 8.94038 29.823 8.92231 29.8815C8.90424 29.9596 8.85002 30.0182 8.75966 30.0573C8.6693 30.0963 8.58798 30.1354 8.51569 30.1744C8.3169 30.3111 8.08197 30.438 7.81089 30.5552C7.53981 30.6918 7.23259 30.7114 6.88923 30.6137C6.11214 30.4185 5.40734 30.1451 4.77483 29.7937C4.14232 29.4227 3.42848 29.1396 2.63332 28.9444C2.14538 28.8272 1.60323 28.8663 1.00686 29.0615C0.410488 29.2568 0.0761597 29.5399 0.00387253 29.9108C-0.0141993 30.067 0.0309802 30.1939 0.139411 30.2916C0.265914 30.4087 0.392416 30.4478 0.518919 30.4087C0.609278 30.3697 0.690601 30.3111 0.762888 30.233C0.853247 30.1744 0.93457 30.1158 1.00686 30.0573C1.15143 29.9596 1.35926 29.8815 1.63033 29.823C1.91948 29.7644 2.18152 29.7742 2.41646 29.8523C3.04897 30.028 3.62727 30.2428 4.15135 30.4966C4.69351 30.7699 5.26277 31.0238 5.85914 31.2581C6.11214 31.3557 6.41936 31.4533 6.7808 31.5509C7.14223 31.6486 7.50367 31.6486 7.86511 31.5509C8.08197 31.4728 8.28979 31.3654 8.48858 31.2288C8.70545 31.1116 8.90424 30.9945 9.08495 30.8773L10.4132 30.1158C10.5939 29.9987 10.8379 29.8718 11.1451 29.7351C11.4704 29.5984 11.7777 29.5496 12.0668 29.5887C12.5728 29.6472 12.9885 29.7742 13.3138 29.9694C13.6571 30.1647 13.9914 30.399 14.3167 30.6723C14.4613 30.7895 14.7143 30.9261 15.0758 31.0823C15.4372 31.2385 15.7625 31.2873 16.0516 31.2288C16.2866 31.1897 16.5125 31.1311 16.7293 31.053C16.9462 30.9945 17.1359 30.9164 17.2986 30.8187C17.5877 30.6235 17.8679 30.438 18.1389 30.2623C18.4281 30.1061 18.8166 30.028 19.3046 30.028H19.7654C20.434 30.1451 21.0214 30.3501 21.5274 30.643C22.0334 30.9359 22.5665 31.2092 23.1267 31.4631C23.3978 31.5802 23.7322 31.7071 24.1297 31.8438C24.5454 32 24.9701 32.039 25.4038 31.9609C26.1447 31.8048 26.7953 31.5314 27.3555 31.1409C27.9158 30.7699 28.5483 30.5063 29.2531 30.3501C29.5784 30.272 29.8946 30.2623 30.2019 30.3209C30.5271 30.399 30.7802 30.5161 30.9609 30.6723C31.0512 30.7504 31.1687 30.848 31.3133 30.9652C31.4578 31.0823 31.6115 31.0921 31.7741 30.9945C31.9548 30.8773 32.0271 30.7309 31.991 30.5552C31.9729 30.3794 31.8916 30.2232 31.747 30.0866ZM9.57289 8.12105H21.2563L21.2834 8.15034V8.17963L21.0123 8.4725C20.9581 8.51155 20.8587 8.53108 20.7142 8.53108C20.5877 8.51155 20.4792 8.50179 20.3889 8.50179H12.0939L9.76265 8.4725C9.70843 8.45298 9.65421 8.42369 9.6 8.38464C9.56386 8.32607 9.52771 8.27725 9.49157 8.2382C9.50964 8.19915 9.51868 8.17963 9.51868 8.17963C9.53675 8.1601 9.55482 8.14058 9.57289 8.12105ZM20.7142 10.2297L20.6599 10.3176C20.5334 10.3371 20.3889 10.3469 20.2262 10.3469C20.0816 10.3469 19.9371 10.3469 19.7925 10.3469H10.7385C10.6482 10.3469 10.5217 10.3567 10.359 10.3762C10.1964 10.3762 10.0789 10.3469 10.0066 10.2883C9.9524 10.2688 9.92529 10.1712 9.92529 9.99544C9.94336 9.80019 9.9524 9.66352 9.9524 9.58542L10.0337 9.52685L10.0879 9.49756H20.0365C20.1268 9.49756 20.2443 9.49756 20.3889 9.49756C20.5334 9.47803 20.6328 9.4878 20.6871 9.52685C20.7232 9.5659 20.7413 9.68305 20.7413 9.87829C20.7413 10.054 20.7322 10.1712 20.7142 10.2297ZM14.9402 18.9281V21.2125L14.9131 29.9401C14.895 29.9401 14.877 29.9499 14.8589 29.9694C14.8589 29.9694 14.8499 29.9694 14.8318 29.9694C14.5607 29.7156 14.127 29.413 13.5306 29.0615C12.9523 28.7101 12.3921 28.5831 11.8499 28.6808C11.5427 28.7393 11.2626 28.8077 11.0096 28.8858C10.7566 28.9444 10.5126 29.042 10.2777 29.1787C10.2054 29.1982 10.106 29.2568 9.97951 29.3544C9.87108 29.4325 9.78072 29.452 9.70843 29.413C9.63614 29.3739 9.58193 29.286 9.54578 29.1494C9.52771 29.0127 9.5006 28.9053 9.46446 28.8272C9.35603 28.5343 9.2476 28.2512 9.13917 27.9779C9.04881 27.685 8.94942 27.4019 8.84098 27.1285C8.53376 26.328 8.20847 25.5373 7.86511 24.7563C7.52174 23.9753 7.15127 23.2333 6.75369 22.5304C7.22356 23.37 7.33199 23.5457 7.07898 23.0576C6.82598 22.5499 6.44647 21.9544 5.94046 21.2711C5.88624 21.193 5.81396 21.1246 5.7236 21.0661C5.63324 21.0075 5.56999 20.9196 5.53384 20.8025L5.56095 20.7439C5.81396 20.5682 6.11214 20.4608 6.45551 20.4217C6.81694 20.3827 7.17838 20.3339 7.53981 20.2753L8.67834 20.2167C9.52771 20.0215 10.3048 19.7969 11.0096 19.5431C11.7144 19.2893 12.4373 19.0159 13.1782 18.7231C13.3589 18.645 13.5397 18.5669 13.7204 18.4888C13.9011 18.4107 14.0818 18.3326 14.2625 18.2545C14.3529 18.2154 14.4432 18.1861 14.5336 18.1666C14.624 18.1276 14.7053 18.0788 14.7776 18.0202H14.886C14.9402 18.0983 14.9583 18.2349 14.9402 18.4302C14.9402 18.6254 14.9402 18.7914 14.9402 18.9281ZM15.2926 16.8194C15.1661 16.8389 15.0486 16.8877 14.9402 16.9658C14.8318 17.0439 14.7234 17.1025 14.6149 17.1416C14.3438 17.2587 14.0728 17.3856 13.8017 17.5223C13.5306 17.6394 13.2686 17.7566 13.0156 17.8737H12.8529C12.8349 17.8933 12.8168 17.9128 12.7987 17.9323C12.7987 17.9323 12.7897 17.9421 12.7716 17.9616L12.5818 18.0202L12.4463 18.108C12.2837 18.1666 12.121 18.2252 11.9584 18.2838C11.7957 18.3423 11.6421 18.4009 11.4975 18.4595L11.3078 18.4888L11.1994 18.5766L11.0096 18.6059L10.847 18.7231H10.6572C10.5126 18.8012 10.35 18.8695 10.1693 18.9281C10.0066 18.9671 9.85301 19.0062 9.70843 19.0452L9.38314 19.1038C9.32892 19.1233 9.23856 19.1526 9.11206 19.1917C8.98556 19.2307 8.87713 19.2405 8.78677 19.221C8.75062 19.1819 8.73255 19.1136 8.73255 19.0159C8.73255 18.8988 8.73255 18.8012 8.73255 18.7231V17.3759L8.75966 11.3719C8.77773 11.3524 8.78677 11.3427 8.78677 11.3427C8.80484 11.3231 8.82291 11.3134 8.84098 11.3134H21.9069L21.9611 11.3719V19.1917C21.925 19.2112 21.8527 19.221 21.7443 19.221C21.6358 19.221 21.5545 19.2014 21.5003 19.1624C21.2654 19.1038 21.0214 19.0452 20.7684 18.9867C20.5154 18.9086 20.2895 18.8207 20.0907 18.7231L19.8738 18.6938L19.7383 18.6059L19.5485 18.5766C19.3678 18.479 19.169 18.4009 18.9522 18.3423C18.7534 18.2642 18.5546 18.1861 18.3558 18.108C18.2835 18.0885 18.2112 18.0495 18.1389 17.9909C18.0666 17.9323 18.0034 17.8933 17.9492 17.8737C17.7323 17.7956 17.5154 17.7175 17.2986 17.6394C17.0998 17.5613 16.901 17.4735 16.7022 17.3759C16.5757 17.3173 16.3498 17.2001 16.0245 17.0244C15.6992 16.8487 15.4553 16.7803 15.2926 16.8194ZM21.0395 29.3837L20.9852 29.413C20.8949 29.413 20.7955 29.3934 20.6871 29.3544C20.5967 29.2958 20.5154 29.247 20.4431 29.2079C20.1359 29.1298 19.7744 29.0908 19.3588 29.0908C18.9612 29.0713 18.6178 29.1103 18.3287 29.2079C18.0395 29.3056 17.7775 29.4422 17.5426 29.618C17.3257 29.7742 17.0908 29.9206 16.8378 30.0573C16.7293 30.1158 16.5848 30.1744 16.404 30.233C16.2233 30.3111 16.0426 30.3306 15.8619 30.2916C15.8077 30.1939 15.7896 30.0475 15.8077 29.8523C15.8257 29.6375 15.8348 29.4618 15.8348 29.3251V18.0495L15.889 18.0202C15.9613 18.0202 16.0336 18.0495 16.1059 18.108C16.1781 18.1471 16.2414 18.1861 16.2956 18.2252C16.4763 18.3033 16.6661 18.3814 16.8649 18.4595C17.0637 18.5376 17.2444 18.6157 17.407 18.6938C17.9311 18.9086 18.4371 19.1136 18.9251 19.3088C19.4311 19.4845 19.9551 19.6505 20.4973 19.8067C20.5877 19.8458 20.6871 19.8848 20.7955 19.9239C20.9039 19.9629 21.0033 19.9922 21.0937 20.0117C21.2925 20.0703 21.4822 20.1191 21.6629 20.1582C21.8436 20.1777 22.0244 20.207 22.2051 20.246L23.181 20.2753C23.5605 20.3339 23.9219 20.3925 24.2653 20.451C24.6267 20.5096 24.943 20.617 25.214 20.7732L25.2411 20.8025L24.8616 21.1539C24.7171 21.3492 24.5725 21.5444 24.4279 21.7397C24.3014 21.9154 24.1839 22.1106 24.0755 22.3254C23.696 22.9697 23.3526 23.6531 23.0454 24.3755C22.7382 25.0979 22.4219 25.8204 22.0967 26.5428C22.0244 26.7185 21.9611 26.8942 21.9069 27.07C21.8708 27.2457 21.8075 27.4214 21.7171 27.5971C21.5906 27.8705 21.4641 28.1634 21.3376 28.4758C21.2292 28.7882 21.1298 29.0908 21.0395 29.3837ZM11.8228 11.6941C11.7686 11.6551 11.6692 11.6453 11.5246 11.6648C11.3801 11.6648 11.2626 11.6648 11.1722 11.6648H9.49157C9.25664 11.7624 9.1211 11.9089 9.08495 12.1041C9.04881 12.2994 9.1482 12.4653 9.38314 12.602C9.43735 12.6606 9.53675 12.6801 9.68132 12.6606C9.8259 12.6411 9.94336 12.6313 10.0337 12.6313C10.3229 12.6313 10.7114 12.6411 11.1994 12.6606C11.6873 12.6801 11.9674 12.5727 12.0397 12.3384C12.0939 12.2018 12.0849 12.0748 12.0126 11.9577C11.9584 11.8405 11.8951 11.7527 11.8228 11.6941ZM17.895 12.2506C17.895 12.1725 17.8859 12.1139 17.8679 12.0748C17.8498 12.0163 17.8317 11.9675 17.8136 11.9284C17.7052 11.7527 17.5697 11.6648 17.407 11.6648C17.2444 11.6648 17.0456 11.6648 16.8106 11.6648H13.2053C12.9885 11.7624 12.862 11.9186 12.8258 12.1334C12.7897 12.3482 12.8891 12.5142 13.124 12.6313H16.8378C17.0908 12.6313 17.3167 12.6215 17.5154 12.602C17.7142 12.5825 17.8407 12.4653 17.895 12.2506ZM18.8979 12.602C18.9702 12.6411 19.0877 12.6606 19.2503 12.6606C19.413 12.6411 19.5485 12.6313 19.657 12.6313H21.3105C21.3828 12.5923 21.4461 12.5337 21.5003 12.4556C21.5545 12.3775 21.5906 12.2994 21.6087 12.2213C21.6449 12.1237 21.6268 12.026 21.5545 11.9284C21.4822 11.8113 21.419 11.7332 21.3647 11.6941L20.6871 11.6648H19.0064L18.8979 11.6941C18.7172 11.7917 18.6269 11.9382 18.6269 12.1334C18.6449 12.3287 18.7353 12.4849 18.8979 12.602Z" fill="#0F7EE6"/>
</svg>
