<svg width="16" height="16" viewBox="0 0 16 16" fill="none" xmlns="http://www.w3.org/2000/svg">
<path d="M4.35235 16H5.59422C5.81212 16 6.0028 15.8899 6.11501 15.7197L9.72045 9.65224C9.81174 9.46754 10.0052 9.33686 10.2112 9.34186H14.3374C15.4214 9.34601 15.9899 8.89128 15.9999 7.94015C16.0099 6.98901 15.0568 6.65794 14.3474 6.65858H10.2412C10.0346 6.65858 9.83708 6.55913 9.73046 6.37824L6.09498 0.28078C5.98741 0.110237 5.79571 -0.00814095 5.59422 0.000437679H4.39241L4.21214 0.310817L6.16508 6.32818L5.96478 6.64857H2.71989C2.50038 6.64857 2.33501 6.55713 2.1991 6.38825L1.61823 5.61731C1.49484 5.47027 1.28234 5.35225 1.08742 5.35699H0.246156C0.112749 5.34772 -0.0077585 5.4843 0.00579334 5.61731L0.58667 8.29057L0.00579334 10.3331C-0.0127016 10.4995 0.00451462 10.6353 0.186065 10.6535H1.08742C1.30527 10.6535 1.4771 10.5544 1.61823 10.3931L2.1991 9.60218C2.31412 9.4322 2.51471 9.32561 2.71989 9.33185H5.99483L6.18511 9.66225L4.18209 15.6796L4.35235 16Z" fill="#0F7EE6"/>
</svg>
