<svg width="109" height="218" viewBox="0 0 109 218" fill="none" xmlns="http://www.w3.org/2000/svg">
<path d="M65.5011 9.86285C66.0598 9.86285 66.5127 9.40994 66.5127 8.85124C66.5127 8.29255 66.0598 7.83964 65.5011 7.83964C64.9424 7.83964 64.4895 8.29255 64.4895 8.85124C64.4895 9.40994 64.9424 9.86285 65.5011 9.86285Z" fill="white"/>
<path fill-rule="evenodd" clip-rule="evenodd" d="M0.758698 12.645C0.758698 5.66135 6.42007 -8.3279e-08 13.4037 0L95.5963 9.80137e-07C102.58 1.06341e-06 108.241 5.66138 108.241 12.645L108.241 48.5568C108.66 48.5568 109 48.8965 109 49.3155L109 73.0882C109 73.5072 108.66 73.8469 108.241 73.8469L108.241 205.355C108.241 212.339 102.58 218 95.5963 218H13.4037C6.42007 218 0.758698 212.339 0.758698 205.355L0.758698 79.1578C0.339668 79.1578 -7.62939e-06 78.8181 -7.62939e-06 78.3991V63.9838C-7.62939e-06 63.5647 0.339668 63.2251 0.758698 63.2251V59.1787C0.339668 59.1787 -7.62939e-06 58.839 -7.62939e-06 58.42V44.0046C-7.62939e-06 43.5856 0.339668 43.2459 0.758698 43.2459V34.6473C0.479347 34.6473 0.252899 34.421 0.252899 34.1415V26.8074C0.252899 26.528 0.479347 26.3016 0.758698 26.3016V12.645ZM102 15L102 203C102 207.971 97.9706 212 93 212H16C11.0294 212 6.99999 207.971 6.99999 203L6.99999 15C6.99999 10.0294 11.0294 6 16 6H26.3503C27.5643 6 28.3735 6.37935 28.3735 7.5174V9.0348C28.3735 11.5489 30.4117 13.587 32.9258 13.587L76.4246 13.587C78.9387 13.587 80.9768 11.5489 80.9768 9.0348V7.5174C80.9768 6.37935 81.7861 6 83 6L26.3503 6L93 6C97.9706 6 102 10.0294 102 15ZM67.2714 8.85166C67.2714 9.82937 66.4788 10.622 65.5011 10.622C64.5234 10.622 63.7308 9.82937 63.7308 8.85166C63.7308 7.87395 64.5234 7.08136 65.5011 7.08136C66.4788 7.08136 67.2714 7.87395 67.2714 8.85166ZM65.5011 9.86285C66.0598 9.86285 66.5127 9.40994 66.5127 8.85124C66.5127 8.29255 66.0598 7.83964 65.5011 7.83964C64.9424 7.83964 64.4895 8.29255 64.4895 8.85124C64.4895 9.40994 64.9424 9.86285 65.5011 9.86285ZM48.3039 8.85124C48.3039 9.40994 48.7569 9.86284 49.3155 9.86284L59.6845 9.86285C60.2431 9.86285 60.6961 9.40994 60.6961 8.85124C60.6961 8.29255 60.2431 7.83964 59.6845 7.83964L49.3155 7.83964C48.7569 7.83964 48.3039 8.29255 48.3039 8.85124Z" fill="white"/>
<path d="M102 203L102 15C102 10.0294 97.9706 6 93 6L26.3503 6L83 6C81.7861 6 80.9768 6.37935 80.9768 7.5174V9.0348C80.9768 11.5489 78.9387 13.587 76.4246 13.587L32.9258 13.587C30.4117 13.587 28.3735 11.5489 28.3735 9.0348V7.5174C28.3735 6.37935 27.5643 6 26.3503 6H16C11.0294 6 6.99999 10.0294 6.99999 15L6.99999 203C6.99999 207.971 11.0294 212 16 212H93C97.9706 212 102 207.971 102 203Z" fill="white"/>
<path d="M102 203L102 15C102 10.0294 97.9706 6 93 6L26.3503 6L83 6C81.7861 6 80.9768 6.37935 80.9768 7.5174V9.0348C80.9768 11.5489 78.9387 13.587 76.4246 13.587L32.9258 13.587C30.4117 13.587 28.3736 11.5489 28.3736 9.0348V7.5174C28.3736 6.37935 27.5643 6 26.3503 6L16 6C11.0294 6 7 10.0294 7 15L7 203C7 207.971 11.0294 212 16 212H93C97.9706 212 102 207.971 102 203Z" fill="#0F7EE6"/>
</svg>
