<svg width="100" height="130" viewBox="0 0 100 130" fill="none" xmlns="http://www.w3.org/2000/svg">
<path fill-rule="evenodd" clip-rule="evenodd" d="M81.0876 130C85.7849 130 89.41 128.772 91.9654 126.317C99.2461 119.077 100 108.278 100 98.3838V32.992C100 27.9985 99.5587 25.934 96.9717 23.8502C94.3848 21.7665 90.499 21.421 87.5773 24.4218C86.1343 25.9038 85.4141 27.7033 85.4141 29.8176V55.0856C85.0579 56.1745 83.56 56.2458 83.1892 55.0856V19.152C83.1892 11.6437 73.9248 7.71772 68.7266 13.0572C67.0778 14.7515 66.2549 16.7836 66.2549 19.152C66.2549 21.862 66.2549 24.9926 66.2549 28.5485C66.2549 32.0201 66.2549 35.4486 66.2549 38.8327C66.2549 44.2504 66.2549 49.668 66.2549 55.0856C66.2549 55.8208 65.3389 55.9613 64.7949 55.7315C64.3955 55.5627 64.4008 55.0436 64.4008 54.6676V9.24855C64.4008 6.70901 63.5144 4.53068 61.7428 2.70898C58.2266 -0.898805 52.4081 -0.907178 48.8875 2.70898C47.1147 4.53068 46.2301 6.70901 46.2301 9.24855V55.0856C46.2301 56.1567 44.6228 56.2449 44.6228 55.0856V16.2316C44.6228 13.7776 43.8195 11.6411 42.2128 9.81942C40.4496 7.82391 38.0715 6.70901 35.4758 6.70901C33.0041 6.70901 30.8811 7.59733 29.1102 9.37526C27.3373 11.1525 26.4527 13.355 26.4527 15.9775C26.4527 43.4043 26.4527 59.5736 26.4527 64.4815C26.4527 69.3921 26.4527 72.9891 26.4527 75.2746C26.4527 76.5276 26.3287 79.0839 26.3287 79.0839C26.3287 79.0839 24.6888 76.8444 23.9187 75.7187C23.1343 74.5763 22.3737 73.4548 21.6321 72.3542C20.8905 71.2549 20.1677 70.1759 19.4689 69.1164C18.7675 68.0589 18.0876 67.1066 17.4291 66.2595C14.71 62.4501 12.1948 60.4821 9.88869 60.3548C7.58068 60.2281 5.80969 60.5037 4.57384 61.1804C3.50168 61.7735 2.57495 62.5991 1.79239 63.6566C1.00857 64.716 0.494844 65.9218 0.247422 67.2751C0.081183 67.9533 0 68.7155 0 69.5606C0 70.7468 0.185724 71.8676 0.556542 72.9251C0.92736 73.9845 1.40017 74.9787 1.97812 75.9094C2.05933 75.9094 3.09057 77.4326 5.06806 80.4803C7.04617 83.4444 9.35229 86.9363 11.9902 90.9553C14.6269 94.9769 17.3057 99.0618 20.0248 103.209C22.7446 107.272 24.8864 110.49 26.4527 112.858C29.9872 118.307 33.3219 126.864 39.6788 128.92C41.9037 129.639 44.9943 130 48.9492 130H81.0876ZM11.4343 64.799C12.5467 65.6043 13.6378 66.767 14.71 68.2908C15.3685 69.138 16.0484 70.0688 16.7491 71.0844C17.4486 72.1001 18.1707 73.2014 18.9123 74.3856C19.7352 75.4868 20.519 76.6077 21.2613 77.7501C22.2276 79.2393 23.2581 81.1541 24.6603 82.2576C26.6343 83.8237 29.017 82.8918 29.4193 80.2263C29.6631 78.5949 29.6667 76.9213 29.6667 75.2746C29.6667 72.9891 29.6667 69.3699 29.6667 64.4182C29.6667 59.4665 29.6667 43.2769 29.6667 15.8508C29.6667 8.47115 41.1621 8.32677 41.1621 16.1049V55.0856C41.1621 57.4844 42.9032 59.4024 45.2411 59.4024C47.5207 59.4024 49.2814 57.5357 49.4441 55.2123V9.24855C49.4441 7.64109 50 6.2642 51.1124 5.1218C53.3253 2.84809 57.0534 2.84309 59.2711 5.1218C60.3835 6.2642 60.9394 7.64109 60.9394 9.24855V55.0856C60.9394 56.2718 61.3512 57.2881 62.1759 58.1327C62.9981 58.9798 63.9872 59.4024 65.1425 59.4024C66.3783 59.4024 67.4077 58.9798 68.2324 58.1327C69.0553 57.2881 69.4689 56.2718 69.4689 55.0856C69.4689 53.2234 69.4689 51.3612 69.4689 49.499V19.152C69.4689 17.7137 69.9826 16.4661 71.0139 15.4067C73.0449 13.3201 76.2751 13.3232 78.3068 15.4067C79.3362 16.4661 79.8518 17.7137 79.8518 19.152V55.0856C80.2405 60.7624 88.2552 60.4075 88.628 55.0856V29.8176C88.628 28.6334 89.0184 27.6393 89.8022 26.8339C91.2377 25.3589 93.7552 25.0323 95.3292 26.6653C96.9031 28.2982 96.6626 30.2577 96.6626 32.992C96.6626 35.7264 96.6626 98.3838 96.6626 98.3838C96.6626 109.962 95.4693 126.572 81.0876 126.572H48.9492C45.158 126.572 42.4388 126.274 40.7912 125.683C35.1759 123.663 32.4571 115.826 29.2959 110.954C27.7295 108.585 25.5871 105.325 22.868 101.177C20.1482 97.1141 17.4486 93.0722 14.7717 89.0513C12.0928 85.0316 9.7653 81.496 7.78781 78.449C5.80969 75.4868 4.77845 73.963 4.69724 73.8774C3.6039 72.3125 2.84299 69.9275 3.46139 68.0367C3.77069 66.4458 4.76316 64.9564 6.18051 64.2274C7.78373 62.9911 9.95913 63.7336 11.4343 64.799Z" fill="#FF0000"/>
</svg>
