<svg width="24" height="24" viewBox="0 0 24 24" fill="none" xmlns="http://www.w3.org/2000/svg">
<path d="M8.49217 14.0001L4.31115 9.81531C3.88987 9.39365 3.89735 8.71002 4.32776 8.2976C4.74812 7.89481 5.41516 7.90205 5.82661 8.31386L9.99994 12.4909L14.1734 8.31368C14.5848 7.90186 15.2519 7.89462 15.6722 8.2974C16.1026 8.70982 16.1101 9.39345 15.6889 9.81511L11.5077 14L15.6889 18.1849C16.1101 18.6065 16.1027 19.2902 15.6723 19.7026C15.2519 20.1054 14.5848 20.0981 14.1734 19.6863L9.99996 15.5092L5.82661 19.6863C5.41516 20.0981 4.74812 20.1054 4.32776 19.7026C3.89735 19.2902 3.88986 18.6065 4.31114 18.1849L8.49217 14.0001Z" fill="#999999"/>
</svg>
