<svg width="18" height="18" viewBox="0 0 18 18" fill="none" xmlns="http://www.w3.org/2000/svg">
<path d="M18 15.9961C18 16.5469 17.8008 17.0156 17.4023 17.4023C17.0156 17.8008 16.5469 18 15.9961 18H2.00391C1.45312 18 0.978516 17.8008 0.580078 17.4023C0.193359 17.0156 0 16.5469 0 15.9961V2.00391C0 1.45312 0.193359 0.984375 0.580078 0.597656C0.978516 0.199219 1.45312 0 2.00391 0H15.9961C16.5469 0 17.0156 0.199219 17.4023 0.597656C17.8008 0.984375 18 1.45312 18 2.00391V15.9961ZM13.0078 4.99219L8.08594 9.91406L5.99414 7.78711L3.83203 9.91406L8.08594 14.1504L15.1523 7.08398L13.0078 4.99219Z" fill="#0F7EE6"/>
</svg>
