<svg width="24" height="24" viewBox="0 0 24 24" fill="none" xmlns="http://www.w3.org/2000/svg">
<path d="M8.80831 19H9.89495C10.0856 19 10.2524 18.9037 10.3506 18.7547L13.5054 13.4457C13.5853 13.2841 13.7545 13.1697 13.9348 13.1741H17.5452C18.4937 13.1778 18.9912 12.7799 18.9999 11.9476C19.0087 11.1154 18.1747 10.8257 17.554 10.8263H13.9611C13.7803 10.8263 13.6074 10.7392 13.5142 10.581L10.3331 5.24568C10.239 5.09646 10.0713 4.99288 9.89495 5.00038H8.84336L8.68562 5.27197L10.3944 10.5372L10.2192 10.8175H7.3799C7.18783 10.8175 7.04313 10.7375 6.92421 10.5897L6.41595 9.91514C6.30799 9.78649 6.12204 9.68322 5.9515 9.68736H5.21539C5.09866 9.67925 4.99321 9.79877 5.00507 9.91514L5.51334 12.2543L5.00507 14.0414C4.98889 14.187 5.00395 14.3059 5.16281 14.3218H5.9515C6.14211 14.3218 6.29247 14.2351 6.41595 14.094L6.92421 13.4019C7.02485 13.2532 7.20037 13.1599 7.3799 13.1654H10.2455L10.412 13.4545L8.65933 18.7197L8.80831 19Z" fill="#127EDC"/>
</svg>
