<svg width="10" height="12" viewBox="0 0 10 12" fill="none" xmlns="http://www.w3.org/2000/svg">
<path d="M5.12563 1.60547C5.0335 1.60547 4.87856 1.69531 4.6608 1.875C4.44305 2.05469 4.14573 2.32422 3.76884 2.68359L1.05528 5.29688V12H2.56281V6.71484H7.38694V12H8.95729V5.29688L6.49498 2.76562C6.10134 2.38281 5.79983 2.09375 5.59045 1.89844C5.38945 1.70312 5.23451 1.60547 5.12563 1.60547ZM6.49498 0.9375C6.12647 0.546875 5.85846 0.292969 5.69096 0.175781C5.53183 0.0585938 5.34338 0 5.12563 0C4.91625 0 4.73199 0.0507812 4.57286 0.152344C4.41374 0.246094 4.14573 0.472656 3.76884 0.832031L3.24121 1.33594V0.117188H1.80905V2.71875L0 4.52344L0.427136 4.875C0.427136 4.875 0.544389 4.75781 0.778894 4.52344C1.0134 4.29688 1.29816 4.01562 1.63317 3.67969C1.97655 3.34375 2.34087 2.98828 2.72613 2.61328C3.11139 2.23828 3.45059 1.91016 3.74372 1.62891C4.12898 1.26172 4.43049 1 4.64824 0.84375C4.87437 0.679688 5.0335 0.597656 5.12563 0.597656C5.22613 0.597656 5.38526 0.6875 5.60302 0.867188C5.82915 1.03906 6.12647 1.3125 6.49498 1.6875C6.77136 1.97656 7.0938 2.30469 7.46231 2.67188C7.83082 3.04688 8.17839 3.40234 8.50503 3.73828C8.84003 4.07422 9.1206 4.35547 9.34673 4.58203C9.57286 4.81641 9.68593 4.93359 9.68593 4.93359L10 4.52344L6.49498 0.9375Z" fill="#548F5E"/>
</svg>
