<svg width="22" height="22" viewBox="0 0 22 22" fill="none" xmlns="http://www.w3.org/2000/svg">
<path fill-rule="evenodd" clip-rule="evenodd" d="M8.26632 9.77294C8.23741 9.78796 8.20868 9.79547 8.17995 9.79547C8.15103 9.79547 8.11507 9.79547 8.07188 9.79547C7.74028 9.79547 7.45242 9.6832 7.20756 9.45867C6.96252 9.23414 6.81868 8.95742 6.7753 8.62793C6.7753 8.59828 6.7753 8.56843 6.7753 8.5382C6.7753 8.50835 6.7753 8.4708 6.7753 8.42593C6.7753 8.09702 6.87966 7.80124 7.08874 7.53916C7.29746 7.27746 7.56048 7.12379 7.87744 7.07892C7.90617 7.07892 7.9349 7.07545 7.96382 7.06775C7.99255 7.06043 8.01424 7.05658 8.0287 7.05658C8.35993 7.05658 8.64798 7.16519 8.89302 7.38202C9.13788 7.59924 9.28209 7.87249 9.32528 8.2014C9.33955 8.23163 9.34696 8.26533 9.34696 8.30249C9.34696 8.34004 9.34696 8.38106 9.34696 8.42593C9.34696 8.75541 9.24224 9.04715 9.03352 9.30154C8.82462 9.55611 8.56902 9.71325 8.26632 9.77294ZM13.7983 12.1976C13.8271 12.1976 13.8558 12.1941 13.8849 12.1864C13.9136 12.1789 13.9498 12.175 13.993 12.175C14.3242 12.175 14.6123 12.2873 14.8573 12.5118C15.1022 12.7364 15.2462 13.0135 15.2896 13.3426C15.2896 13.3874 15.2929 13.4288 15.3003 13.466C15.3073 13.5036 15.3111 13.5373 15.3111 13.5669C15.3111 13.9114 15.2065 14.2107 14.9978 14.465C14.7887 14.7196 14.5331 14.8768 14.2306 14.9365C14.2015 14.9365 14.1692 14.9403 14.1335 14.9476C14.0973 14.9553 14.0649 14.959 14.0362 14.959C13.7046 14.959 13.4165 14.8431 13.1718 14.611C12.9266 14.379 12.7828 14.0984 12.7396 13.7691C12.7251 13.7393 12.7179 13.7056 12.7179 13.668C12.7179 13.6308 12.7179 13.5894 12.7179 13.5446C12.7179 13.2155 12.8222 12.9237 13.0313 12.669C13.24 12.4148 13.4958 12.2575 13.7983 12.1976ZM20.8216 9.18927C22.3484 9.95261 22.3916 10.8207 20.9511 11.7934C20.5332 12.0033 20.1949 12.3098 19.9356 12.7138C19.6762 13.118 19.5465 13.5748 19.5465 14.0834C19.5465 14.3528 19.586 14.611 19.6655 14.8579C19.7445 15.1048 19.849 15.3258 19.9787 15.5201C20.7708 17.0768 20.3244 17.7953 18.639 17.6753C18.5667 17.6753 18.4948 17.6719 18.4228 17.6642C18.3506 17.6567 18.2786 17.6528 18.2067 17.6528C17.5439 17.6528 16.975 17.8926 16.4996 18.3713C16.0241 18.8504 15.772 19.4264 15.7433 20.1C15.4981 21.8209 14.7201 22.1204 13.4095 20.9979C13.1933 20.7435 12.9303 20.5454 12.6208 20.4031C12.3108 20.261 11.9759 20.1897 11.6159 20.1897C11.2269 20.1897 10.8595 20.2794 10.5138 20.4591C10.1681 20.6388 9.8871 20.8856 9.67097 21.1999C8.47504 22.4572 7.66836 22.2327 7.25075 20.5265C7.16437 19.898 6.8906 19.3742 6.42961 18.955C5.96844 18.5361 5.42812 18.3264 4.80884 18.3264C4.67927 18.3264 4.55304 18.3341 4.43071 18.3488C4.30819 18.364 4.19641 18.3863 4.09576 18.4162C2.4103 18.7158 1.88425 18.057 2.51837 16.4406C2.61901 16.2609 2.69464 16.0666 2.74524 15.8569C2.79548 15.6474 2.82087 15.4304 2.82087 15.2059C2.82087 14.6522 2.66591 14.1585 2.35618 13.7242C2.04626 13.2902 1.65385 12.9909 1.1786 12.8261C-0.348386 12.0481 -0.391574 11.1874 1.04884 10.2443C1.46646 10.035 1.80511 9.72807 2.06442 9.32387C2.32374 8.91987 2.45349 8.46348 2.45349 7.95452C2.45349 7.68512 2.41364 7.42689 2.33468 7.18002C2.25534 6.93295 2.15099 6.71246 2.02123 6.51778C1.21437 4.96125 1.66108 4.24297 3.361 4.36256C3.43292 4.37758 3.50484 4.38875 3.57713 4.39626C3.64905 4.40396 3.72838 4.40743 3.81495 4.40743C4.47742 4.40743 5.04999 4.16055 5.53285 3.66662C6.01534 3.17268 6.25667 2.58169 6.25667 1.89307C6.50153 0.17209 7.27948 -0.127545 8.59052 0.995125C8.82092 1.2497 9.09098 1.44785 9.4009 1.58997C9.71045 1.73227 10.0384 1.80314 10.3842 1.80314C10.7874 1.80314 11.1583 1.7134 11.4971 1.53374C11.8354 1.35426 12.1199 1.1072 12.3507 0.792929C13.5316 -0.449133 14.3387 -0.231917 14.7709 1.444C14.8573 2.07254 15.1274 2.59671 15.5813 3.01555C16.0351 3.43477 16.5787 3.64409 17.2126 3.64409C17.3279 3.64409 17.4468 3.63292 17.5693 3.61039C17.6914 3.58805 17.8032 3.56205 17.9042 3.53182C19.5608 3.26242 20.0868 3.93602 19.4818 5.55243C19.3952 5.73191 19.3229 5.92659 19.2657 6.13611C19.2078 6.34581 19.1791 6.56264 19.1791 6.78718C19.1791 7.341 19.3339 7.83494 19.6438 8.26879C19.9534 8.70303 20.3532 9.0096 20.8431 9.18927H20.8216ZM5.93266 8.78507C6.00458 9.32387 6.24221 9.78064 6.64574 10.1546C7.04889 10.529 7.51711 10.7159 8.05038 10.7159C8.10766 10.7159 8.16178 10.7159 8.21239 10.7159C8.26262 10.7159 8.3097 10.7084 8.35289 10.6934C8.88561 10.6187 9.32861 10.3678 9.68191 9.94125C10.0346 9.51471 10.2113 9.01731 10.2113 8.44846C10.2113 8.38876 10.2076 8.32888 10.2005 8.26879C10.1931 8.2091 10.1896 8.14921 10.1896 8.08913C10.1173 7.55032 9.87968 7.09413 9.47653 6.71978C9.073 6.34581 8.59756 6.15844 8.05038 6.15844C7.99255 6.15844 7.93138 6.1623 7.86669 6.16981C7.80182 6.17751 7.74028 6.18097 7.683 6.18097C7.17846 6.28592 6.75714 6.54782 6.41886 6.96665C6.08021 7.38587 5.91098 7.87249 5.91098 8.42593C5.91098 8.48601 5.91098 8.5459 5.91098 8.6056C5.91098 8.66548 5.91802 8.71786 5.93266 8.76273V8.78507ZM15.4408 7.23605C15.484 7.19118 15.5198 7.139 15.5489 7.07892C15.5774 7.01941 15.5921 6.95202 15.5921 6.87691C15.5921 6.8022 15.5774 6.7348 15.5489 6.67491C15.5198 6.61521 15.484 6.56264 15.4408 6.51778C15.3976 6.45808 15.3468 6.41668 15.2896 6.39415C15.2317 6.37181 15.1668 6.36064 15.0949 6.36064C15.0373 6.36064 14.9761 6.37181 14.9112 6.39415C14.8465 6.41668 14.7924 6.45808 14.7492 6.51778L6.68893 14.8691C6.64574 14.9139 6.6133 14.9667 6.59161 15.0262C6.57011 15.0863 6.55936 15.1537 6.55936 15.2284C6.55936 15.3033 6.57011 15.3707 6.59161 15.4304C6.6133 15.4903 6.64574 15.5427 6.68893 15.5875C6.73211 15.6474 6.78253 15.6884 6.84018 15.711C6.89764 15.7335 6.96252 15.7447 7.03462 15.7447C7.10654 15.7447 7.17141 15.7335 7.22925 15.711C7.28652 15.6884 7.33712 15.6474 7.3805 15.5875L15.4408 7.23605ZM14.2738 15.8344C14.7924 15.7447 15.2247 15.4903 15.5704 15.0711C15.9162 14.6522 16.089 14.1658 16.089 13.612C16.089 13.5523 16.089 13.4922 16.089 13.4323C16.089 13.3726 16.0816 13.3127 16.0675 13.2526C15.9952 12.6992 15.7574 12.239 15.3542 11.8719C14.9509 11.5055 14.4755 11.322 13.9281 11.322C13.8703 11.322 13.8126 11.322 13.7552 11.322C13.6975 11.322 13.6397 11.3297 13.5824 11.3445C13.0779 11.4492 12.6565 11.7113 12.3183 12.1302C11.9796 12.5494 11.8104 13.0281 11.8104 13.5669C11.8104 13.642 11.8137 13.7094 11.8211 13.7691C11.8282 13.829 11.8321 13.8891 11.8321 13.9486C11.904 14.4874 12.1416 14.9403 12.5451 15.307C12.9483 15.6738 13.4237 15.8569 13.9713 15.8569C14.0287 15.8569 14.0827 15.8569 14.1335 15.8569C14.1837 15.8569 14.2306 15.8496 14.2738 15.8344Z" fill="#5CB16E"/>
</svg>
