<svg width="24" height="24" viewBox="0 0 24 24" fill="none" xmlns="http://www.w3.org/2000/svg">
<path d="M12.1508 6.87305C12.0402 6.87305 11.8543 6.97786 11.593 7.1875C11.3317 7.39714 10.9749 7.71159 10.5226 8.13086L7.26633 11.1797V19H9.07538V12.834H14.8643V19H16.7487V11.1797L13.794 8.22656C13.3216 7.77995 12.9598 7.44271 12.7085 7.21484C12.4673 6.98698 12.2814 6.87305 12.1508 6.87305ZM13.794 6.09375C13.3518 5.63802 13.0302 5.3418 12.8291 5.20508C12.6382 5.06836 12.4121 5 12.1508 5C11.8995 5 11.6784 5.05924 11.4874 5.17773C11.2965 5.28711 10.9749 5.55143 10.5226 5.9707L9.88945 6.55859V5.13672H8.17085V8.17188L6 10.2773L6.51256 10.6875C6.51256 10.6875 6.65327 10.5508 6.93467 10.2773C7.21608 10.013 7.55779 9.6849 7.9598 9.29297C8.37186 8.90104 8.80905 8.48633 9.27136 8.04883C9.73367 7.61133 10.1407 7.22852 10.4925 6.90039C10.9548 6.47201 11.3166 6.16667 11.5779 5.98437C11.8492 5.79297 12.0402 5.69727 12.1508 5.69727C12.2714 5.69727 12.4623 5.80208 12.7236 6.01172C12.995 6.21224 13.3518 6.53125 13.794 6.96875C14.1256 7.30599 14.5126 7.6888 14.9548 8.11719C15.397 8.55469 15.8141 8.9694 16.206 9.36133C16.608 9.75325 16.9447 10.0814 17.2161 10.3457C17.4874 10.6191 17.6231 10.7559 17.6231 10.7559L18 10.2773L13.794 6.09375Z" fill="#548F5E"/>
</svg>
