<svg width="12" height="14" viewBox="0 0 12 14" fill="none" xmlns="http://www.w3.org/2000/svg">
<path d="M10.1578 0.875C10.1499 0.875 10.138 0.875 10.1222 0.875C10.1143 0.875 10.1064 0.875 10.0985 0.875C9.71886 0.875 9.38671 1.00236 9.10202 1.25707C8.82523 1.50382 8.66706 1.81027 8.62752 2.17641L8.21234 7.42982C8.21234 7.43778 8.21234 7.44972 8.21234 7.46564C8.21234 7.4736 8.21234 7.48156 8.21234 7.48952C8.21234 7.60096 8.23211 7.70842 8.27165 7.81189C8.3191 7.90741 8.37841 7.99098 8.44958 8.06262C8.53658 8.14222 8.63543 8.2059 8.74614 8.25366C8.85686 8.30141 8.97944 8.32529 9.11388 8.32529L8.97153 12.4325C8.97153 12.4405 8.97153 12.4444 8.97153 12.4444C8.97153 12.4444 8.97153 12.4484 8.97153 12.4564C8.97153 12.5439 8.98735 12.6235 9.01898 12.6952C9.05852 12.7748 9.10993 12.8424 9.17319 12.8981C9.23646 12.9618 9.30763 13.0096 9.38671 13.0414C9.47371 13.0733 9.56465 13.0892 9.65955 13.0892C9.66746 13.0892 9.67141 13.0892 9.67141 13.0892C9.67141 13.0892 9.67537 13.0892 9.68327 13.0892H10.2883C10.2962 13.0892 10.3001 13.0892 10.3001 13.0892C10.308 13.0892 10.3159 13.0892 10.3238 13.0892C10.5057 13.0892 10.6599 13.0255 10.7865 12.8981C10.9209 12.7788 10.9921 12.6315 11 12.4564V1.67495C11 1.45208 10.9209 1.26503 10.7628 1.11379C10.6125 0.954597 10.4267 0.875 10.2052 0.875C10.1973 0.875 10.1894 0.875 10.1815 0.875C10.1736 0.875 10.1617 0.875 10.1459 0.875H10.1578ZM4.17912 0.875C4.17121 0.875 4.16331 0.875 4.1554 0.875C4.14749 0.875 4.13958 0.875 4.13167 0.875C4.06841 0.875 4.01305 0.898879 3.9656 0.946637C3.91815 0.986436 3.89442 1.04215 3.89442 1.11379V3.43007C3.88652 3.53354 3.84302 3.62508 3.76394 3.70468C3.69276 3.77632 3.60577 3.81213 3.50297 3.81213C3.50297 3.81213 3.49901 3.81213 3.4911 3.81213C3.4911 3.81213 3.48715 3.81213 3.47924 3.81213H3.43179C3.42388 3.81213 3.41993 3.81213 3.41993 3.81213C3.41993 3.81213 3.41597 3.81213 3.40807 3.81213C3.30526 3.81213 3.21431 3.77632 3.13523 3.70468C3.06406 3.62508 3.02452 3.53354 3.01661 3.43007V1.11379C3.01661 1.05011 2.99288 0.994396 2.94543 0.946637C2.89798 0.898879 2.84263 0.875 2.77936 0.875C2.77936 0.875 2.77541 0.875 2.7675 0.875H2.70819C2.70819 0.875 2.70423 0.875 2.69632 0.875C2.62515 0.875 2.56584 0.898879 2.51839 0.946637C2.47094 0.994396 2.44721 1.05011 2.44721 1.11379V3.43007C2.44721 3.53354 2.40767 3.62508 2.32859 3.70468C2.25741 3.77632 2.17042 3.81213 2.06762 3.81213C2.05971 3.81213 2.05575 3.81213 2.05575 3.81213C2.05575 3.81213 2.0518 3.81213 2.04389 3.81213H1.98458C1.98458 3.81213 1.98062 3.81213 1.97272 3.81213C1.86991 3.81213 1.77896 3.77632 1.69988 3.70468C1.62871 3.62508 1.59312 3.53354 1.59312 3.43007V1.11379C1.58521 1.05011 1.55753 0.994396 1.51008 0.946637C1.46263 0.898879 1.40728 0.875 1.34401 0.875C1.3361 0.875 1.33215 0.875 1.33215 0.875C1.33215 0.875 1.32819 0.875 1.32028 0.875H1.26097C1.26097 0.875 1.25702 0.875 1.24911 0.875C1.17794 0.875 1.11862 0.898879 1.07117 0.946637C1.02372 0.994396 1 1.05011 1 1.11379V4.61209C1 4.83496 1.07513 5.02599 1.22539 5.18519C1.38355 5.33642 1.57335 5.41204 1.79478 5.41204C1.80269 5.41204 1.8106 5.41204 1.81851 5.41204C1.83432 5.41204 1.84618 5.41204 1.85409 5.41204H1.96085L1.72361 12.4564C1.72361 12.4643 1.72361 12.4683 1.72361 12.4683C1.72361 12.4763 1.72361 12.4803 1.72361 12.4803C1.72361 12.5678 1.73942 12.6514 1.77106 12.731C1.8106 12.8106 1.862 12.8782 1.92527 12.934C1.98853 12.9897 2.05971 13.0335 2.13879 13.0653C2.22578 13.1051 2.31673 13.125 2.41163 13.125C2.41953 13.125 2.42349 13.125 2.42349 13.125C2.42349 13.125 2.42744 13.125 2.43535 13.125H2.99288C3.00079 13.125 3.00475 13.125 3.00475 13.125C3.09964 13.125 3.19059 13.1051 3.27758 13.0653C3.36457 13.0335 3.4397 12.9897 3.50297 12.934C3.56623 12.8782 3.61368 12.8106 3.64531 12.731C3.68486 12.6514 3.70463 12.5678 3.70463 12.4803C3.70463 12.4803 3.70463 12.4763 3.70463 12.4683C3.70463 12.4683 3.70463 12.4643 3.70463 12.4564L3.45552 5.38816H3.62159C3.6295 5.38816 3.63741 5.38816 3.64531 5.38816C3.65322 5.38816 3.66113 5.38816 3.66904 5.38816C3.89047 5.38816 4.07631 5.31254 4.22657 5.16131C4.38474 5.00211 4.46382 4.81108 4.46382 4.58821V1.11379C4.46382 1.04215 4.44009 0.986436 4.39265 0.946637C4.3452 0.898879 4.28984 0.875 4.22657 0.875C4.21866 0.875 4.21076 0.875 4.20285 0.875C4.19494 0.875 4.18703 0.875 4.17912 0.875ZM6.02966 13.0414H6.43298V0.934698H6.02966V13.0414Z" fill="#0F7EE6"/>
</svg>
