<svg width="16" height="16" viewBox="0 0 16 16" fill="none" xmlns="http://www.w3.org/2000/svg">
<path d="M8 0C3.6 0 0 3.6 0 8C0 12.4 3.6 16 8 16C12.4 16 16 12.4 16 8C16 3.6 12.4 0 8 0ZM8 14.5C4.4 14.5 1.5 11.6 1.5 8C1.5 4.4 4.4 1.5 8 1.5C11.6 1.5 14.5 4.4 14.5 8C14.5 11.6 11.6 14.5 8 14.5ZM11.3 6.25L8.6 7.65V3.15C8.6 2.8 8.35 2.55 8 2.55C7.65 2.55 7.4 2.8 7.4 3.15V8.65C7.4 8.95 7.7 9.25 8 9.25C8.1 9.25 8.2 9.2 8.3 9.2L11.85 7.35C12.1 7.15 12.2 6.8 12 6.55C11.86 6.33994 11.5352 6.25 11.3 6.25Z" fill="#000C7C"/>
</svg>
