<svg width="12" height="16" viewBox="0 0 12 16" fill="none" xmlns="http://www.w3.org/2000/svg">
<path d="M10.1578 1C10.1499 1 10.138 1 10.1222 1C10.1143 1 10.1064 1 10.0985 1C9.71886 1 9.38671 1.14555 9.10202 1.43665C8.82523 1.71865 8.66706 2.06888 8.62752 2.48733L8.21234 8.49123C8.21234 8.50032 8.21234 8.51397 8.21234 8.53216C8.21234 8.54126 8.21234 8.55036 8.21234 8.55945C8.21234 8.68681 8.23211 8.80962 8.27165 8.92788C8.3191 9.03704 8.37841 9.13255 8.44958 9.21443C8.53658 9.30539 8.63543 9.37817 8.74614 9.43275C8.85686 9.48733 8.97944 9.51462 9.11388 9.51462L8.97153 14.2086C8.97153 14.2177 8.97153 14.2222 8.97153 14.2222C8.97153 14.2222 8.97153 14.2268 8.97153 14.2359C8.97153 14.3359 8.98735 14.4269 9.01898 14.5088C9.05852 14.5997 9.10993 14.6771 9.17319 14.7407C9.23646 14.8135 9.30763 14.8681 9.38671 14.9045C9.47371 14.9409 9.56465 14.9591 9.65955 14.9591C9.66746 14.9591 9.67141 14.9591 9.67141 14.9591C9.67141 14.9591 9.67537 14.9591 9.68327 14.9591H10.2883C10.2962 14.9591 10.3001 14.9591 10.3001 14.9591C10.308 14.9591 10.3159 14.9591 10.3238 14.9591C10.5057 14.9591 10.6599 14.8863 10.7865 14.7407C10.9209 14.6043 10.9921 14.436 11 14.2359V1.91423C11 1.65952 10.9209 1.44574 10.7628 1.2729C10.6125 1.09097 10.4267 1 10.2052 1C10.1973 1 10.1894 1 10.1815 1C10.1736 1 10.1617 1 10.1459 1H10.1578ZM4.17912 1C4.17121 1 4.16331 1 4.1554 1C4.14749 1 4.13958 1 4.13167 1C4.06841 1 4.01305 1.02729 3.9656 1.08187C3.91815 1.12736 3.89442 1.19103 3.89442 1.2729V3.92008C3.88652 4.03834 3.84302 4.14295 3.76394 4.23392C3.69276 4.31579 3.60577 4.35672 3.50297 4.35672C3.50297 4.35672 3.49901 4.35672 3.4911 4.35672C3.4911 4.35672 3.48715 4.35672 3.47924 4.35672H3.43179C3.42388 4.35672 3.41993 4.35672 3.41993 4.35672C3.41993 4.35672 3.41597 4.35672 3.40807 4.35672C3.30526 4.35672 3.21431 4.31579 3.13523 4.23392C3.06406 4.14295 3.02452 4.03834 3.01661 3.92008V1.2729C3.01661 1.20013 2.99288 1.13645 2.94543 1.08187C2.89798 1.02729 2.84263 1 2.77936 1C2.77936 1 2.77541 1 2.7675 1H2.70819C2.70819 1 2.70423 1 2.69632 1C2.62515 1 2.56584 1.02729 2.51839 1.08187C2.47094 1.13645 2.44721 1.20013 2.44721 1.2729V3.92008C2.44721 4.03834 2.40767 4.14295 2.32859 4.23392C2.25741 4.31579 2.17042 4.35672 2.06762 4.35672C2.05971 4.35672 2.05575 4.35672 2.05575 4.35672C2.05575 4.35672 2.0518 4.35672 2.04389 4.35672H1.98458C1.98458 4.35672 1.98062 4.35672 1.97272 4.35672C1.86991 4.35672 1.77896 4.31579 1.69988 4.23392C1.62871 4.14295 1.59312 4.03834 1.59312 3.92008V1.2729C1.58521 1.20013 1.55753 1.13645 1.51008 1.08187C1.46263 1.02729 1.40728 1 1.34401 1C1.3361 1 1.33215 1 1.33215 1C1.33215 1 1.32819 1 1.32028 1H1.26097C1.26097 1 1.25702 1 1.24911 1C1.17794 1 1.11862 1.02729 1.07117 1.08187C1.02372 1.13645 1 1.20013 1 1.2729V5.27096C1 5.52567 1.07513 5.74399 1.22539 5.92593C1.38355 6.09877 1.57335 6.18518 1.79478 6.18518C1.80269 6.18518 1.8106 6.18518 1.81851 6.18518C1.83432 6.18518 1.84618 6.18518 1.85409 6.18518H1.96085L1.72361 14.2359C1.72361 14.245 1.72361 14.2495 1.72361 14.2495C1.72361 14.2586 1.72361 14.2632 1.72361 14.2632C1.72361 14.3632 1.73942 14.4587 1.77106 14.5497C1.8106 14.6407 1.862 14.718 1.92527 14.7817C1.98853 14.8454 2.05971 14.8954 2.13879 14.9318C2.22578 14.9773 2.31673 15 2.41163 15C2.41953 15 2.42349 15 2.42349 15C2.42349 15 2.42744 15 2.43535 15H2.99288C3.00079 15 3.00475 15 3.00475 15C3.09964 15 3.19059 14.9773 3.27758 14.9318C3.36457 14.8954 3.4397 14.8454 3.50297 14.7817C3.56623 14.718 3.61368 14.6407 3.64531 14.5497C3.68486 14.4587 3.70463 14.3632 3.70463 14.2632C3.70463 14.2632 3.70463 14.2586 3.70463 14.2495C3.70463 14.2495 3.70463 14.245 3.70463 14.2359L3.45552 6.15789H3.62159C3.6295 6.15789 3.63741 6.15789 3.64531 6.15789C3.65322 6.15789 3.66113 6.15789 3.66904 6.15789C3.89047 6.15789 4.07631 6.07148 4.22657 5.89864C4.38474 5.7167 4.46382 5.49838 4.46382 5.24366V1.2729C4.46382 1.19103 4.44009 1.12736 4.39265 1.08187C4.3452 1.02729 4.28984 1 4.22657 1C4.21866 1 4.21076 1 4.20285 1C4.19494 1 4.18703 1 4.17912 1ZM6.02966 14.9045H6.43298V1.06823H6.02966V14.9045Z" fill="#A86060"/>
</svg>
