<svg width="16" height="16" viewBox="0 0 16 16" fill="none" xmlns="http://www.w3.org/2000/svg">
<path d="M8 16C6.89807 16 5.85675 15.7906 4.87603 15.3719C3.90634 14.9532 3.05785 14.3857 2.33058 13.6694C1.61433 12.9421 1.04683 12.0882 0.628099 11.1074C0.209366 10.1377 0 9.10193 0 8C0 6.89807 0.209366 5.85675 0.628099 4.87603C1.04683 3.90634 1.61433 3.06336 2.33058 2.34711C3.05785 1.61983 3.90634 1.04683 4.87603 0.628099C5.85675 0.209366 6.89807 0 8 0C9.10193 0 10.1433 0.209366 11.124 0.628099C12.0937 1.04683 12.9366 1.61983 13.6529 2.34711C14.3802 3.06336 14.9532 3.90634 15.3719 4.87603C15.7906 5.85675 16 6.89807 16 8C16 9.10193 15.7906 10.1377 15.3719 11.1074C14.9532 12.0882 14.3802 12.9421 13.6529 13.6694C12.9366 14.3857 12.0937 14.9532 11.124 15.3719C10.1433 15.7906 9.10193 16 8 16ZM13.157 10.843C13.146 10.8099 13.1074 10.7713 13.0413 10.7273C12.9752 10.6722 12.8815 10.6116 12.7603 10.5455C12.6391 10.4683 12.5014 10.3912 12.3471 10.314C12.2039 10.2259 12.0441 10.1322 11.8678 10.0331L11.3388 9.75207C11.3168 9.74105 11.2893 9.72452 11.2562 9.70248C11.2231 9.68044 11.1846 9.65289 11.1405 9.61983C11.0964 9.58678 11.0523 9.55923 11.0083 9.53719C10.9642 9.50413 10.9256 9.48209 10.8926 9.47108C10.8595 9.44904 10.8209 9.43802 10.7769 9.43802C10.7438 9.427 10.7107 9.42149 10.6777 9.42149C10.6226 9.42149 10.551 9.44904 10.4628 9.50413C10.3857 9.54821 10.2975 9.62534 10.1983 9.73554C10.0992 9.84573 10 9.95592 9.90083 10.0661C9.81267 10.1763 9.71901 10.2865 9.61983 10.3967C9.53168 10.5179 9.44904 10.6061 9.3719 10.6612C9.29477 10.7163 9.23416 10.7438 9.19008 10.7438C9.15703 10.7438 9.12397 10.7438 9.09091 10.7438C9.06887 10.7328 9.04132 10.7218 9.00826 10.7107C8.97521 10.6887 8.94766 10.6722 8.92562 10.6612C8.90358 10.6501 8.88154 10.6446 8.8595 10.6446C8.83747 10.6336 8.80992 10.6226 8.77686 10.6116C8.75482 10.5895 8.72727 10.5675 8.69421 10.5455C8.65014 10.5234 8.61708 10.5069 8.59504 10.4959C8.573 10.4738 8.55647 10.4628 8.54545 10.4628C8.21488 10.2755 7.90634 10.0771 7.61983 9.86777C7.33333 9.64738 7.06887 9.41598 6.82645 9.17355C6.58402 8.93113 6.35262 8.66667 6.13223 8.38017C5.92287 8.09366 5.72452 7.78512 5.53719 7.45455C5.53719 7.44353 5.52617 7.427 5.50413 7.40496C5.49311 7.38292 5.47658 7.34986 5.45455 7.30579C5.43251 7.27273 5.41047 7.24518 5.38843 7.22314C5.37741 7.19008 5.36639 7.16253 5.35537 7.1405C5.34435 7.11846 5.33333 7.09642 5.32231 7.07438C5.3113 7.04132 5.30028 7.00826 5.28926 6.97521C5.27824 6.94215 5.26722 6.9146 5.2562 6.89256C5.2562 6.8595 5.2562 6.83196 5.2562 6.80992C5.2562 6.76584 5.27273 6.71625 5.30579 6.66116C5.33884 6.60606 5.39394 6.54545 5.47107 6.47934C5.53719 6.41322 5.60882 6.34711 5.68595 6.28099C5.76309 6.21488 5.84022 6.14876 5.91736 6.08264C6.00551 6.02755 6.08264 5.96694 6.14876 5.90083C6.2259 5.83471 6.30303 5.76309 6.38017 5.68595C6.44628 5.61983 6.49587 5.55372 6.52893 5.4876C6.56198 5.42149 6.57851 5.36639 6.57851 5.32231C6.57851 5.28926 6.573 5.2562 6.56198 5.22314C6.56198 5.17906 6.55096 5.1405 6.52893 5.10744C6.51791 5.07438 6.49587 5.03581 6.46281 4.99174C6.44077 4.94766 6.41322 4.90358 6.38017 4.8595C6.34711 4.80441 6.31956 4.76584 6.29752 4.7438C6.27548 4.71074 6.25895 4.6832 6.24793 4.66116C6.23691 4.63912 6.22039 4.60606 6.19835 4.56198C6.17631 4.50689 6.14325 4.44628 6.09917 4.38017C6.0551 4.30303 6.01102 4.2259 5.96694 4.14876C5.93388 4.07163 5.89532 3.99449 5.85124 3.91736C5.80716 3.84022 5.76309 3.76309 5.71901 3.68595C5.67493 3.5978 5.62534 3.51515 5.57025 3.43802C5.52617 3.34986 5.48209 3.27273 5.43802 3.20661C5.40496 3.1405 5.36639 3.07989 5.32231 3.02479C5.28926 2.9697 5.2562 2.93113 5.22314 2.90909C5.2011 2.87603 5.17906 2.85399 5.15702 2.84298C5.13499 2.83196 5.11295 2.82645 5.09091 2.82645C5.06887 2.82645 5.03581 2.82645 4.99174 2.82645C4.83747 2.82645 4.67218 2.84298 4.49587 2.87603C4.33058 2.90909 4.15427 2.96419 3.96694 3.04132C3.81267 3.11846 3.66942 3.23416 3.53719 3.38843C3.40496 3.5427 3.28375 3.74656 3.17355 4C3.05234 4.24242 2.96419 4.47383 2.90909 4.69421C2.85399 4.9146 2.82645 5.12397 2.82645 5.32231C2.82645 5.37741 2.82645 5.43251 2.82645 5.4876C2.82645 5.5427 2.83196 5.60331 2.84298 5.66942C2.85399 5.72452 2.86501 5.77961 2.87603 5.83471C2.88705 5.87879 2.89256 5.92287 2.89256 5.96694C2.90358 6.01102 2.9146 6.06061 2.92562 6.1157C2.94766 6.1708 2.9697 6.23141 2.99174 6.29752C3.01377 6.37466 3.0303 6.44077 3.04132 6.49587C3.06336 6.53995 3.07989 6.573 3.09091 6.59504C3.10193 6.6281 3.11846 6.67218 3.1405 6.72727C3.16253 6.78237 3.19008 6.85399 3.22314 6.94215C3.24518 7.01928 3.26722 7.0854 3.28926 7.1405C3.31129 7.18457 3.32231 7.21763 3.32231 7.23967C3.53168 7.79063 3.81818 8.33609 4.18182 8.87603C4.54545 9.41598 4.99174 9.95041 5.52066 10.4793C6.04959 11.0083 6.58402 11.4545 7.12397 11.8182C7.66391 12.1818 8.20937 12.4628 8.76033 12.6612C8.78237 12.6722 8.81543 12.6887 8.8595 12.7107C8.9146 12.7218 8.98072 12.7438 9.05785 12.7769C9.13499 12.8099 9.2011 12.8375 9.2562 12.8595C9.32231 12.8815 9.36639 12.8981 9.38843 12.9091C9.42149 12.9201 9.46006 12.9366 9.50413 12.9587C9.55923 12.9697 9.61983 12.9862 9.68595 13.0083C9.76309 13.0303 9.8292 13.0523 9.8843 13.0744C9.93939 13.0854 9.98898 13.0909 10.0331 13.0909C10.0661 13.1019 10.1102 13.1129 10.1653 13.124C10.2204 13.135 10.2755 13.146 10.3306 13.157C10.3967 13.157 10.4573 13.1625 10.5124 13.1736C10.5675 13.1736 10.6226 13.1736 10.6777 13.1736C10.865 13.1736 11.0689 13.146 11.2893 13.0909C11.5096 13.0358 11.7466 12.9477 12 12.8264C12.2424 12.7163 12.4408 12.595 12.595 12.4628C12.7603 12.3196 12.8815 12.1708 12.9587 12.0165C13.0248 11.8402 13.0744 11.6694 13.1074 11.5041C13.1515 11.3278 13.1736 11.1625 13.1736 11.0083C13.1736 10.9642 13.168 10.9311 13.157 10.9091C13.157 10.876 13.157 10.854 13.157 10.843Z" fill="#034074"/>
</svg>
