<svg width="160" height="32" viewBox="0 0 160 32" fill="none" xmlns="http://www.w3.org/2000/svg">
<path d="M13.5919 4.55828C12.6915 4.55828 11.8207 4.64941 10.9697 4.83169C11.3754 5.37852 11.791 5.88485 12.1967 6.42156C12.6519 6.3608 13.117 6.33042 13.5919 6.33042C16.1845 6.33042 18.5692 7.21143 20.4789 8.71015C21.2705 8.50762 21.8741 8.41648 22.5371 8.17345C20.2019 5.92536 17.0552 4.55828 13.5919 4.55828Z" fill="#034074"/>
<path d="M23.2985 24.0821C22.972 23.9707 22.5465 23.9302 22.3189 23.9302C21.369 23.9302 20.8643 24.2745 20.4487 24.558C20.1222 24.7808 19.9045 24.9327 19.39 24.9327C18.8754 24.9327 18.6676 24.7808 18.3312 24.558C17.9255 24.2846 17.4208 23.9302 16.461 23.9302C15.5111 23.9302 15.0064 24.2745 14.5908 24.558C14.2643 24.7808 14.0466 24.9327 13.5321 24.9327C13.0274 24.9327 12.8097 24.7808 12.4733 24.558C12.0676 24.2846 11.5629 23.9302 10.6031 23.9302C9.65319 23.9302 9.14854 24.2745 8.73295 24.558C8.40641 24.7808 8.18872 24.9327 7.67417 24.9327C7.15963 24.9327 6.95183 24.7808 6.6154 24.558C6.2097 24.2846 5.70505 23.9302 4.74522 23.9302C4.35931 23.9302 4.11194 24.0415 3.95361 24.1631C2.84536 22.3707 2.21208 20.2441 2.21208 17.9656C2.21208 14.3099 3.85466 11.0593 6.42739 8.92264C5.992 8.51757 5.56652 8.15302 5.09155 7.74796C2.28134 10.2188 0.49033 13.8745 0.49033 17.9656C0.49033 25.3782 6.35812 31.3732 13.5914 31.3732C18.3411 31.3732 22.5069 28.7909 24.7927 24.9124C24.3078 24.6086 23.8527 24.2745 23.2985 24.0821ZM4.70564 25.0238C4.71554 25.0238 4.73533 25.0238 4.74522 25.0238C5.24987 25.0238 5.46756 25.1757 5.804 25.3985C6.2097 25.6719 6.71435 26.0263 7.67417 26.0263C8.6241 26.0263 9.12875 25.682 9.54435 25.3985C9.87088 25.1757 10.0886 25.0238 10.6031 25.0238C11.1078 25.0238 11.3255 25.1757 11.6619 25.3985C12.0676 25.6719 12.5722 26.0263 13.5321 26.0263C14.482 26.0263 14.9866 25.682 15.4022 25.3985C15.7288 25.1757 15.9465 25.0238 16.461 25.0238C16.9756 25.0238 17.1834 25.1757 17.5198 25.3985C17.9255 25.6719 18.4301 26.0263 19.39 26.0263C20.3399 26.0263 20.8445 25.682 21.2601 25.3985C21.5867 25.1757 21.8044 25.0238 22.3189 25.0238C22.4179 25.0238 22.5465 25.0137 22.6949 25.0036C22.3387 25.4896 21.9528 25.9352 21.5273 26.3605C21.0523 26.482 20.7258 26.7048 20.4487 26.8972C20.1222 27.12 19.9045 27.2719 19.39 27.2719C18.8754 27.2719 18.6676 27.12 18.3312 26.8972C17.9255 26.6238 17.4208 26.2694 16.461 26.2694C15.5111 26.2694 15.0064 26.6137 14.5908 26.8972C14.2643 27.12 14.0466 27.2719 13.5321 27.2719C13.0274 27.2719 12.8097 27.12 12.4733 26.8972C12.0676 26.6238 11.5629 26.2694 10.6031 26.2694C9.65319 26.2694 9.14854 26.6137 8.73295 26.8972C8.40641 27.12 8.18872 27.2719 7.67417 27.2719C7.15963 27.2719 6.95183 27.12 6.6154 26.8972C6.38781 26.7453 6.13054 26.5631 5.77431 26.4415C5.31914 26.0061 4.90354 25.5301 4.52753 25.0238C4.5968 25.0137 4.65617 25.0238 4.70564 25.0238ZM8.32725 28.2947C8.88137 28.1833 9.2376 27.9403 9.54435 27.7276C9.87088 27.5048 10.0886 27.3529 10.6031 27.3529C11.1078 27.3529 11.3255 27.5048 11.6619 27.7276C12.0676 28.001 12.5722 28.3554 13.5321 28.3554C14.482 28.3554 14.9866 28.0111 15.4022 27.7276C15.7288 27.5048 15.9465 27.3529 16.461 27.3529C16.9756 27.3529 17.1834 27.5048 17.5198 27.7276C17.8463 27.9504 18.2322 28.2137 18.8655 28.3149C17.2922 29.1453 15.5012 29.6111 13.5914 29.6111C11.6916 29.6111 9.90057 29.1352 8.32725 28.2947Z" fill="#034074"/>
<path d="M0.332725 0.850628C0.797794 1.44809 7.33845 7.6354 7.33845 7.6354C7.33845 7.6354 8.00143 7.97971 8.47639 9.66071C8.88209 11.0886 9.8716 14.805 10.2674 15.929C10.0101 16.1012 9.85181 16.2733 9.8716 16.4759C9.02062 16.7088 7.6452 17.1341 7.2494 17.529C6.66559 18.1164 10.7622 17.6708 12.385 18.0354C12.7511 18.1164 13.137 18.1366 13.5328 18.1062L13.4734 18.1366L17.3226 18.9062L18.4408 20.2632L18.5298 20.1113L17.8569 18.6936C18.0449 18.0556 17.1742 16.6075 16.6893 16.0506C16.5805 15.7771 16.4419 15.5645 16.4419 15.5645C16.4419 15.5645 17.3127 14.2885 18.2231 13.5594C19.0938 13.2556 23.7445 10.5215 23.7445 10.5215C23.7445 10.5215 25.4267 8.31388 26.3271 7.10882C27.2276 5.89364 26.3173 6.37971 26.3173 6.37971L23.0321 9.51894C23.0321 9.51894 18.2923 11.2506 16.8476 11.6556C15.6404 11.9898 14.3838 13.1746 13.8296 13.9139L11.5637 8.95185C11.2767 8.20249 11.2767 8.20249 11.2767 8.20249C11.2767 8.20249 10.8512 6.66326 9.59454 5.86326C8.33786 5.06327 0.0259768 0 0.0259768 0C0.0259768 0 -0.132345 0.253163 0.332725 0.850628Z" fill="#034074"/>
<path d="M41.3083 23.6254H38.4387L35.7176 16.3849L34.8567 18.0456V23.6254H32.0564V5.46849H34.8567V13.3874L38.5179 5.46849H41.3083L37.4195 13.5596L41.3083 23.6254ZM46.6912 16.8001H45.3752V23.6254H42.5749V5.45837H46.6912C49.4916 5.45837 50.8571 7.03811 50.8571 9.94442V12.3039C50.8571 15.2203 49.4817 16.8001 46.6912 16.8001ZM48.0667 9.77227C48.0667 8.47607 47.5818 8.06089 46.6912 8.06089H45.3752V14.2077H46.6912C47.5818 14.2077 48.0667 13.7925 48.0667 12.4963V9.77227ZM58.3576 19.0077C57.6946 22.2785 56.6061 23.9089 52.7174 23.6557V21.114C54.1423 21.2152 54.9537 20.9621 55.1812 19.6355L55.2109 19.4836L51.3518 5.46849H54.1225L55.6463 11.6659L56.5072 15.9191L57.1702 11.6862L58.4367 5.45837H61.3558L58.3576 19.0077ZM68.8761 23.6254V10.8356L67.7282 15.3014L65.393 23.6355H62.5234V5.45837H65.017V16.952L66.0362 12.952L68.3219 5.44824H71.3993V23.6152H68.8761V23.6254ZM81.5517 17.8431V19.271C81.5517 22.1773 80.1268 23.838 77.3858 23.838C74.6449 23.838 73.22 22.1773 73.22 19.271V17.276H75.862V19.4532C75.862 20.7494 76.426 21.2456 77.3067 21.2456C78.1972 21.2456 78.7514 20.8001 78.7514 19.2001V17.7722C78.7514 16.0811 78.1873 15.4634 76.9208 15.4634H76.238V12.8609H77.0791C78.1181 12.8609 78.7613 12.395 78.7613 10.9368V9.92417C78.7613 8.2938 78.1972 7.84823 77.3166 7.84823C76.426 7.84823 75.8422 8.34443 75.8422 9.64062V11.1191H73.2794V9.77227C73.2794 6.86596 74.6548 5.25584 77.3957 5.25584C80.1367 5.25584 81.5616 6.91659 81.5616 9.8229V10.2887C81.5616 12.233 80.9481 13.4583 79.6023 14.0254C80.9976 14.6533 81.5517 16.0001 81.5517 17.8431ZM89.4084 23.6254V15.8381H86.232V23.6254H83.4317V5.45837H86.232V13.2457H89.4084V5.45837H92.2582V23.6254H89.4084ZM104.172 23.6254V5.45837H106.972V23.6254H104.172ZM98.403 23.6254H94.2867V5.45837H97.087V12.2837H98.4129C101.203 12.2837 102.579 13.8634 102.579 16.7697V19.1393C102.569 22.0456 101.193 23.6254 98.403 23.6254ZM99.7784 16.5975C99.7784 15.3014 99.2936 14.8862 98.403 14.8862H97.0771V21.033H98.403C99.2936 21.033 99.7784 20.6178 99.7784 19.3216V16.5975ZM115.353 23.6254V10.8356L114.205 15.3014L111.87 23.6355H109.001V5.45837H111.494V16.952L112.504 12.9621L114.789 5.45837H117.867V23.6254H115.353ZM113.473 4.29382C111.514 4.29382 110.604 3.1799 110.554 1.41788H112.286C112.365 2.3799 112.741 2.61281 113.483 2.61281C114.245 2.61281 114.68 2.3799 114.75 1.41788H116.452C116.442 3.1799 115.452 4.29382 113.473 4.29382ZM133.897 23.3621H127.93V25.8026H125.209V20.8203H126.297C126.782 20.1925 126.931 19.5241 126.98 18.4608L127.613 5.2052H135.44V20.8304H136.657V25.8127H133.897V23.3621ZM132.6 7.7976H130.236L129.731 18.4102C129.652 19.7874 129.404 20.3849 128.939 20.8203H132.6V7.7976ZM142.228 23.5747C139.487 23.5747 137.983 21.914 137.983 19.0077V9.55961C137.983 6.6533 139.487 4.99255 142.228 4.99255C144.969 4.99255 146.473 6.6533 146.473 9.55961V19.0077C146.473 21.914 144.979 23.5747 142.228 23.5747ZM143.683 9.37734C143.683 8.08114 143.119 7.58494 142.238 7.58494C141.348 7.58494 140.794 8.08114 140.794 9.37734V19.1899C140.794 20.4861 141.358 20.9823 142.238 20.9823C143.129 20.9823 143.683 20.4861 143.683 19.1899V9.37734ZM157.348 23.3722V10.3394L155.419 23.3621H152.777L150.699 10.5216V23.3621H148.255V5.2052H152.143L154.201 18.1064L156.111 5.2052H160V23.3722H157.348ZM35.5593 30.8355L35.6384 28.9317L34.5698 31.9392H34.0156L32.9569 28.9418L33.036 30.8456V31.9494H32.2246V27.919H33.2834L34.3026 30.8456L35.3119 27.919H36.3806V31.9494H35.5593V30.8355ZM42.3473 31.0582C42.2088 31.362 42.0109 31.5848 41.7536 31.7468C41.4963 31.9089 41.1995 31.9899 40.8729 31.9899C40.5464 31.9899 40.2495 31.9089 39.9923 31.7468C39.735 31.5848 39.5371 31.362 39.3986 31.0582C39.26 30.7544 39.1908 30.4203 39.1809 30.0253V29.8228C39.1809 29.4279 39.2501 29.0734 39.3887 28.7798C39.5272 28.476 39.7251 28.2431 39.9824 28.081C40.2396 27.919 40.5266 27.838 40.863 27.838C41.1896 27.838 41.4864 27.919 41.7437 28.081C42.001 28.2431 42.1989 28.476 42.3374 28.7798C42.4759 29.0836 42.5452 29.4279 42.5452 29.8228V30.0051C42.5551 30.4101 42.4858 30.7544 42.3473 31.0582ZM41.7338 29.8329C41.7338 29.4076 41.6645 29.0937 41.5161 28.8709C41.3677 28.6481 41.1599 28.5367 40.8828 28.5367C40.6058 28.5367 40.398 28.6481 40.2495 28.8608C40.1011 29.0734 40.022 29.3975 40.022 29.8127V30.0152C40.022 30.4304 40.0912 30.7443 40.2396 30.9772C40.3881 31.2 40.6058 31.3215 40.8828 31.3215C41.1599 31.3215 41.3677 31.2101 41.5161 30.9975C41.6645 30.7747 41.7338 30.4608 41.7338 30.0456V29.8329ZM47.9974 30.1772C47.7302 30.4 47.3641 30.5215 46.899 30.5215H46.1866V31.9392H45.3752V27.9089H46.9188C47.2157 27.9089 47.473 27.9696 47.7006 28.081C47.9281 28.1924 48.0964 28.3443 48.225 28.557C48.3437 28.7595 48.4031 28.9924 48.4031 29.2557C48.3932 29.6405 48.2547 29.9443 47.9974 30.1772ZM47.3938 28.7696C47.2751 28.6481 47.1266 28.5874 46.9188 28.5772H46.1767V29.8431H46.899C47.1167 29.8431 47.2751 29.7924 47.3938 29.6912C47.5026 29.5899 47.562 29.438 47.562 29.2456C47.5719 29.0532 47.5125 28.8912 47.3938 28.7696ZM53.4595 29.276C53.4397 29.0127 53.3704 28.8304 53.2517 28.7089C53.133 28.5874 52.9449 28.5367 52.6976 28.5367C52.4304 28.5367 52.2226 28.638 52.0841 28.8304C51.9455 29.0329 51.8763 29.3367 51.8763 29.7519V30.0557C51.8763 30.4911 51.9455 30.8051 52.0742 31.0076C52.2028 31.2101 52.4106 31.3114 52.6877 31.3114C52.9351 31.3114 53.1231 31.2506 53.2517 31.1392C53.3704 31.0177 53.4496 30.8355 53.4694 30.5924H54.2808C54.2511 31.0279 54.0928 31.3722 53.8058 31.6152C53.5189 31.8684 53.1527 31.9899 52.6877 31.9899C52.183 31.9899 51.7872 31.8177 51.4904 31.4633C51.2034 31.119 51.055 30.6329 51.055 30.0253V29.7823C51.055 29.3975 51.1243 29.0532 51.2529 28.7595C51.3914 28.4658 51.5794 28.2329 51.8268 28.081C52.0742 27.9291 52.3611 27.8481 52.6976 27.8481C53.1527 27.8481 53.5189 27.9696 53.7959 28.2228C54.073 28.476 54.2313 28.8203 54.2808 29.276H53.4595ZM60.3069 31.9392H59.3372L58.318 30.2886H57.8529V31.9392H57.0415V27.9089H57.8529V29.519H58.2289L59.1888 27.9089H60.1783L58.9612 29.8127L60.3069 31.9392ZM65.205 31.9392V29.2658L63.6218 31.9392H62.8104V27.9089H63.6218V30.5924L65.205 27.9089H66.0164V31.9392H65.205ZM71.5972 31.2709V31.9392H68.9552V27.9089H71.5972V28.5772H69.7666V29.5393H71.33V30.1874H69.7666V31.2709H71.5972ZM81.1262 31.9392H80.2356L80.0278 31.6962C79.7409 31.8886 79.4044 31.9899 79.0284 31.9899C78.6326 31.9899 78.3259 31.8886 78.0884 31.676C77.8509 31.4633 77.7322 31.1899 77.7322 30.8456C77.7322 30.6633 77.7816 30.4911 77.8905 30.3291C77.9894 30.1671 78.1775 29.9949 78.4545 29.8025C78.3358 29.6405 78.2467 29.4886 78.1774 29.3468C78.1082 29.2051 78.0785 29.0633 78.0785 28.9013C78.0785 28.5874 78.1774 28.3342 78.3654 28.1317C78.5633 27.9393 78.8206 27.838 79.1472 27.838C79.444 27.838 79.6815 27.9291 79.8695 28.1114C80.0575 28.2937 80.1565 28.5165 80.1565 28.7798C80.1565 29.1038 79.9981 29.3874 79.6815 29.6304L79.3747 29.8532L80.0575 30.6633C80.1664 30.4506 80.2158 30.2177 80.2158 29.9544H80.8788C80.8788 30.481 80.7601 30.9063 80.5226 31.2304L81.1262 31.9392ZM79.4539 29.0734C79.4935 29.0026 79.5133 28.9317 79.5133 28.8304C79.5133 28.7393 79.4836 28.6582 79.4143 28.5874C79.3451 28.5165 79.256 28.4861 79.1571 28.4861C79.0482 28.4861 78.9493 28.5266 78.8899 28.5975C78.8206 28.6684 78.7909 28.7696 78.7909 28.8912C78.7909 29.0329 78.8701 29.2051 79.0284 29.4177L79.2362 29.276C79.3352 29.2152 79.4044 29.1443 79.4539 29.0734ZM78.8206 30.2684L78.7613 30.3089C78.6029 30.4506 78.5238 30.6127 78.5238 30.8051C78.5238 30.9671 78.5732 31.0987 78.6722 31.2C78.7711 31.3013 78.8998 31.3519 79.068 31.3519C79.256 31.3519 79.4341 31.3013 79.6023 31.1899L78.8206 30.2684ZM90.0021 30.1772C89.7349 30.4 89.3688 30.5215 88.9037 30.5215H88.1913V31.9392H87.37V27.9089H88.9136C89.2105 27.9089 89.4678 27.9696 89.6953 28.081C89.9229 28.1924 90.0911 28.3443 90.2099 28.557C90.3286 28.7595 90.388 28.9924 90.388 29.2557C90.3979 29.6405 90.2594 29.9443 90.0021 30.1772ZM89.3985 28.7696C89.2797 28.6481 89.1313 28.5874 88.9235 28.5772H88.1814V29.8431H88.9037C89.1214 29.8431 89.2797 29.7924 89.3985 29.6912C89.5073 29.5899 89.5667 29.438 89.5667 29.2456C89.5766 29.0532 89.5172 28.8912 89.3985 28.7696ZM95.8204 31.2709V31.9392H93.1685V27.9089H95.8105V28.5772H93.9799V29.5393H95.5433V30.1874H93.9799V31.2709H95.8204ZM100.857 31.9392V30.4101C100.61 30.4608 100.352 30.4911 100.085 30.4911C99.5805 30.4911 99.2045 30.3798 98.9473 30.157C98.69 29.9342 98.5514 29.6101 98.5514 29.1848V27.9089H99.3628V29.1646C99.3628 29.3975 99.4222 29.5595 99.5311 29.6608C99.6399 29.762 99.8279 29.8127 100.095 29.8127C100.362 29.8127 100.62 29.7823 100.867 29.7317V27.8988H101.678V31.9291H100.857V31.9392ZM107.002 31.9392V30.2076H105.419V31.9392H104.607V27.9089H105.419V29.5393H107.002V27.9089H107.813V31.9392H107.002ZM114.067 31.9392V27.9089H114.878V31.9392H114.067ZM113.325 31.5747C113.058 31.8076 112.692 31.9291 112.246 31.9392H110.762V27.9089H111.583V29.3671H112.217C112.682 29.3671 113.048 29.4785 113.325 29.7114C113.602 29.9443 113.731 30.2481 113.731 30.643C113.731 31.0279 113.592 31.3418 113.325 31.5747ZM112.731 30.1975C112.612 30.0861 112.454 30.0355 112.246 30.0355H111.583V31.2709H112.226C112.434 31.2709 112.602 31.2101 112.721 31.0987C112.84 30.9873 112.909 30.8253 112.909 30.6329C112.909 30.4405 112.85 30.2987 112.731 30.1975ZM120.459 31.2709V31.9392H117.817V27.9089H120.459V28.5772H118.629V29.5393H120.192V30.1874H118.629V31.2709H120.459ZM130.038 31.9392H129.068L128.049 30.2886H127.584V31.9392H126.772V27.9089H127.584V29.519H127.96L128.92 27.9089H129.909L128.692 29.8127L130.038 31.9392ZM135.203 30.1772C134.936 30.4 134.57 30.5215 134.105 30.5215H133.392V31.9392H132.581V27.9089H134.124C134.421 27.9089 134.678 27.9696 134.906 28.081C135.134 28.1924 135.302 28.3443 135.43 28.557C135.549 28.7595 135.609 28.9924 135.609 29.2557C135.599 29.6405 135.47 29.9443 135.203 30.1772ZM134.609 28.7696C134.5 28.6481 134.342 28.5874 134.134 28.5772H133.392V29.8431H134.114C134.332 29.8431 134.49 29.7924 134.609 29.6912C134.728 29.5899 134.777 29.438 134.777 29.2456C134.777 29.0532 134.718 28.8912 134.609 28.7696ZM140.081 31.2304L139.972 31.4532C139.765 31.8177 139.458 32 139.032 32L138.745 31.9899L138.735 31.3215C138.775 31.3317 138.844 31.3317 138.943 31.3317C139.052 31.3317 139.151 31.3114 139.22 31.2709C139.29 31.2304 139.349 31.1595 139.398 31.0481L139.497 30.7848L138.112 27.9089H138.993L139.863 29.8127L140.586 27.9089H141.466L140.081 31.2304ZM146.473 31.9392V29.2658L144.89 31.9392H144.079V27.9089H144.89V30.5924L146.473 27.9089H147.285V31.9392H146.473ZM152.371 29.8633C152.589 29.9443 152.757 30.0557 152.866 30.2177C152.984 30.3798 153.044 30.5722 153.044 30.8051C153.044 31.1696 152.905 31.4532 152.628 31.6658C152.351 31.8785 151.985 31.9899 151.52 31.9899C151.233 31.9899 150.976 31.9392 150.748 31.838C150.52 31.7367 150.342 31.5949 150.224 31.4228C150.105 31.2506 150.046 31.0481 150.046 30.8152H150.867C150.867 30.957 150.926 31.0785 151.055 31.1798C151.174 31.281 151.332 31.3215 151.53 31.3215C151.747 31.3215 151.916 31.2709 152.044 31.1696C152.173 31.0684 152.232 30.9468 152.232 30.7848C152.232 30.5722 152.173 30.4203 152.064 30.3291C151.955 30.238 151.787 30.1874 151.569 30.1874H151.085V29.5393H151.589C151.975 29.5291 152.173 29.357 152.173 29.0025C152.173 28.8507 152.114 28.7291 151.995 28.638C151.876 28.5469 151.718 28.5063 151.53 28.5063C151.352 28.5063 151.213 28.5469 151.094 28.638C150.986 28.7291 150.926 28.8405 150.926 28.9823H150.115C150.115 28.7595 150.174 28.5671 150.293 28.395C150.412 28.2228 150.58 28.081 150.807 27.9899C151.025 27.8886 151.273 27.838 151.53 27.838C151.985 27.838 152.341 27.9393 152.598 28.1317C152.856 28.3342 152.984 28.6177 152.984 28.9823C152.984 29.1646 152.935 29.3266 152.826 29.4785C152.717 29.6506 152.569 29.7722 152.371 29.8633ZM159.179 31.9392V27.9089H159.99V31.9392H159.179ZM158.437 31.5747C158.169 31.8076 157.803 31.9291 157.358 31.9392H155.874V27.9089H156.695V29.3671H157.328C157.793 29.3671 158.16 29.4785 158.437 29.7114C158.704 29.9443 158.842 30.2481 158.842 30.643C158.842 31.0279 158.704 31.3418 158.437 31.5747ZM157.843 30.1975C157.724 30.0861 157.566 30.0355 157.358 30.0355H156.695V31.2709H157.338C157.546 31.2709 157.714 31.2101 157.833 31.0987C157.952 30.9873 158.021 30.8253 158.021 30.6329C158.021 30.4405 157.962 30.2987 157.843 30.1975Z" fill="#034074"/>
</svg>
