<svg width="16" height="24" viewBox="0 0 16 24" fill="none" xmlns="http://www.w3.org/2000/svg">
<path fill-rule="evenodd" clip-rule="evenodd" d="M4.48824 10.1819C3.73957 8.48885 3.9862 7.6327 4.02972 7.47574C4.07325 7.31877 4.33182 7.33161 4.30429 7.18128C3.71795 4.91887 3.75641 2.08338 6.56684 1.26922C7.82502 0.890713 9.76503 0.930718 11.0352 1.26807C14.0337 2.06442 13.749 4.74402 13.4422 7.22152C13.5512 7.28986 13.8047 7.28909 13.81 7.45772C13.837 8.33189 13.505 9.7753 12.8826 10.1977C12.7067 10.8275 12.4509 11.3629 12.1311 11.8353C11.8113 12.3077 11.5395 12.6069 11.3316 12.7329C10.9799 13.0793 10.5641 13.3628 10.1164 13.5517C9.66437 13.7536 9.17375 13.8579 8.67741 13.8579C8.18107 13.8579 7.69045 13.7536 7.23838 13.5517C6.7747 13.347 6.39096 13.0793 6.05518 12.7644C5.60748 12.3392 5.23973 11.8826 4.93594 11.3787C4.70143 11.0217 4.54866 10.6187 4.48824 10.1977C4.48824 10.1977 5.23692 11.875 4.48824 10.1819ZM14.8652 15.2524C15.4317 16.3664 15.7892 17.572 15.9205 18.8112C16.0165 19.4411 16.0165 20.0079 15.9685 20.4961C14.9353 21.304 13.7664 21.9275 12.5148 22.3385C11.2464 22.7582 9.91946 22.9813 8.58148 22.9998C7.23604 23.0068 5.89964 22.783 4.63214 22.3385C3.39822 21.9354 2.24556 21.3225 1.22644 20.5276C1.26249 19.0622 1.53228 17.6115 2.0259 16.2287C2.29776 16.5914 2.60283 16.9287 2.93729 17.2365C3.12916 17.394 3.33702 17.5199 3.57686 17.6144C4.02821 17.8062 4.53645 17.8231 4.99989 17.6617L5.01588 17.6459C5.49556 17.457 5.89529 17.205 6.24705 16.8901C6.41059 16.7367 6.66425 16.4649 7.19515 15.9124C7.74467 15.3406 8.08449 15.456 8.59747 15.4414C9.25303 15.4414 9.87661 15.3154 10.4362 15.0477C11.216 14.685 11.9919 14.3378 12.7914 14.3378C13.8271 14.3378 14.4182 14.4878 14.8652 15.2524Z" fill="#5EB26D"/>
<path d="M3.40097 16.6066C1.74534 15.2207 0.66964 12.8224 0.043239 10.8433C-0.0313426 10.5291 -0.00907439 10.2001 0.107196 9.89848C0.41299 9.29616 2.0709 7.7983 2.53756 8.71747C2.66547 8.98517 2.77739 9.26861 2.85734 9.5678C2.93729 9.85124 2.98525 10.1189 2.98525 10.3551C2.98525 10.7174 2.28238 10.988 2.0259 11.1582C2.56645 12.4093 3.27665 13.5337 4.02455 14.6698C4.7843 13.9215 5.1613 13.7654 5.94326 14.654C6.59417 15.3378 6.13949 15.9012 5.49556 16.4649C5.20775 16.7011 4.96792 16.8428 4.77605 16.8743C4.6217 16.9266 4.45959 16.9532 4.29637 16.9531C4.13154 16.9548 3.96816 16.9226 3.81669 16.8586C3.6568 16.7956 3.52889 16.7011 3.40097 16.6066Z" fill="#5EB26D"/>
</svg>
