<svg width="108" height="24" viewBox="0 0 108 24" fill="none" xmlns="http://www.w3.org/2000/svg">
<path d="M9.95557 7.76V17.66C11.1304 17.74 12.3245 17.66 13.48 17.42C14.6741 17.18 15.8296 16.8 16.9274 16.24V7.1C16.08 6.16 14.4045 6 13.4222 6C13.1719 6 12.9215 6 12.6904 6.04C10.6682 6.5 10.4178 6.7 9.95557 7.76Z" fill="url(#paint0_linear)"/>
<path d="M12.6904 6.0398C12.9215 5.9798 15.7333 5.7798 16.9274 7.0998V4.8998C16.3496 3.5598 14.52 3.2998 13.403 3.2998H13.2104C12.96 3.2998 12.7289 3.3198 12.4785 3.3598C10.283 3.8598 9.97483 5.2598 9.95557 5.9998V7.7998C10.4178 6.6998 10.6682 6.4998 12.6904 6.0398Z" fill="url(#paint1_linear)"/>
<path d="M9.95578 6.54004H9.8017C7.87578 6.54004 6.89355 7.88004 6.89355 8.68004V10.48L9.95578 8.78004V6.54004Z" fill="url(#paint2_linear)"/>
<path d="M9.95578 8.78004V6.54004H9.8017C7.87578 6.54004 6.89355 7.88004 6.89355 8.68004V10.48C7.04763 9.24004 8.7617 8.74004 9.95578 8.78004Z" fill="url(#paint3_linear)"/>
<path d="M4.87109 12.8999V14.7999C5.06369 15.7399 5.8148 16.4599 6.91257 16.9599V11.4199C5.33332 11.7799 5.04443 12.0599 4.87109 12.8999Z" fill="url(#paint4_linear)"/>
<path d="M9.51258 20.7196C4.69776 20.7196 1.21184 19.0196 0.634059 16.3796C0.0562812 13.7396 2.52147 10.8396 6.89332 8.95965V9.55965C5.06369 9.99965 4.85184 11.0196 4.85184 11.4396V14.7996C5.04443 15.6796 5.73776 16.4197 6.89332 16.9597C7.87554 17.3797 8.89628 17.6196 9.95554 17.6596C10.2252 17.6797 10.5141 17.6796 10.7837 17.6796C11.6889 17.6796 12.5748 17.5796 13.4607 17.3996C14.6548 17.1596 15.8104 16.7796 16.9081 16.2396C17.8133 15.7996 18.6415 15.1996 19.3348 14.4596L23.1481 15.7596C21.1259 17.8596 17.9096 19.4396 14.0963 20.2196C12.5941 20.5596 11.0533 20.7196 9.51258 20.7196ZM18.1985 9.53965C17.7941 9.33965 17.3704 9.17965 16.9274 9.05965V7.13965C18.4874 7.19965 20.0281 7.51965 21.5111 8.09965L18.1985 9.53965Z" fill="#0078BB"/>
<path d="M6.89353 11.4196V9.55957C5.21798 9.95957 4.85205 10.8396 4.85205 11.4596V12.9196C5.04464 12.0596 5.33353 11.7796 6.89353 11.4196Z" fill="url(#paint5_linear)"/>
<path d="M9.8017 8.7793C8.60763 8.7793 7.04763 9.2793 6.89355 10.4793V16.9593C7.85652 17.3793 8.89652 17.6193 9.95578 17.6593V8.7793H9.8017Z" fill="url(#paint6_linear)"/>
<path d="M55.465 20.5601H55.2531C54.6176 20.5401 53.4235 20.3801 52.7109 19.4401C52.2872 18.9001 52.0754 18.2201 51.9983 17.2001C51.9983 17.1601 52.0176 17.1201 52.0368 17.0801C52.0368 17.0601 52.0561 17.0601 52.0561 17.0601C52.0754 17.0601 52.0946 17.0801 52.1139 17.1001L52.1717 17.1801C52.7302 18.1201 53.7124 18.7001 54.7909 18.7201H54.8872C55.8309 18.7201 56.8324 18.3401 56.8709 17.2801C56.8902 16.3201 55.8887 15.8001 55.0798 15.3601L54.0783 14.8601C53.4042 14.4801 52.1524 13.7601 52.2102 11.9801C52.2679 10.0201 53.905 8.86008 56.5435 8.86008H59.5287V10.5801H57.025H56.9479C56.4087 10.5801 56.0042 10.7001 55.7731 10.9401C55.6191 11.1001 55.5228 11.3201 55.5228 11.5401C55.5035 12.3801 56.3894 12.8001 57.0828 13.1401L57.9879 13.5801C59.5094 14.3201 60.2605 15.3801 60.2028 16.7801C60.1835 17.8201 59.702 18.8001 58.9124 19.4401C58.3154 19.9801 57.2176 20.5401 55.465 20.5601ZM71.508 20.5601C70.2368 20.5601 69.3124 20.0001 68.7539 18.8801C67.8872 19.6601 66.6931 20.5601 65.1909 20.5601C64.4013 20.5601 63.3613 20.2601 62.7835 19.4401C62.302 18.7601 62.2442 17.8001 62.2442 16.8801V10.6201H60.6072C60.5687 10.6201 60.5494 10.6001 60.5302 10.5601C60.5302 10.5201 60.5494 10.4801 60.6072 10.4601C61.6279 9.96008 64.7672 6.52008 65.0946 5.56008C65.0946 5.52008 65.1331 5.48008 65.1717 5.48008C65.2102 5.48008 65.2487 5.52008 65.2487 5.56008V8.90008H68.022L68.0413 10.6201H65.2294V16.0801C65.2294 17.0001 65.2679 17.4001 65.4028 17.7201C65.7109 18.5001 66.3465 18.6001 66.7894 18.6001C67.3865 18.5801 67.9835 18.3601 68.4265 17.9401C68.4072 17.8801 68.388 17.8201 68.388 17.7601C67.9835 15.7801 68.4265 12.7401 70.025 11.0201C71.7968 9.14008 73.4724 8.90008 74.7242 8.90008H77.7865L77.8057 17.2001C77.8057 17.4001 77.825 17.5801 77.8635 17.7601C77.9983 18.4401 78.268 18.8201 78.6146 18.8201C78.8843 18.8001 79.1539 18.7201 79.3657 18.5601C79.385 18.5401 79.4043 18.5401 79.4235 18.5201C79.4428 18.5401 79.4428 18.5401 79.4428 18.5801C79.3657 19.6001 78.2487 20.5401 77.1509 20.5401C77.0931 20.5401 77.0354 20.5401 76.9776 20.5401C75.2057 20.3801 75.0324 18.1001 75.0324 18.0801C75.0131 18.1201 74.9939 18.1601 74.9746 18.2001C74.0694 19.7601 72.9139 20.5601 71.508 20.5601ZM73.7998 10.4801C72.028 10.4801 71.6042 12.6001 71.4694 13.2801V13.3001C71.2961 14.2201 71.1998 15.6801 71.3924 16.6401C71.4887 17.1001 71.8354 17.9001 72.5672 17.9001C73.1642 17.9001 74.0502 17.5801 74.9554 16.0801L74.9939 16.0001V10.4601L73.7998 10.4801ZM34.6842 20.5601C33.8176 20.5801 32.9509 20.4401 32.1228 20.1601C28.8872 19.0401 27.0576 15.9801 27.2116 11.9801C27.2502 10.4601 27.6739 8.98008 28.4442 7.68008C29.0991 6.58008 30.0042 5.66008 31.0635 5.00008C32.662 3.96008 34.5302 3.42008 36.4176 3.46008C36.5909 3.46008 36.745 3.46008 36.8991 3.46008C38.6709 3.52008 39.9613 3.82008 40.8665 4.38008L41.1361 4.56008L39.8842 6.50008L39.6339 6.38008C38.8442 6.00008 37.9776 5.78008 37.0916 5.78008H36.7835C31.6991 5.78008 30.9865 9.94008 30.9287 11.7201C30.8324 14.0201 31.4872 16.0401 32.7005 17.2401C33.5479 18.0601 34.6457 18.5001 35.8013 18.4601C35.9746 18.4601 36.1479 18.4601 36.3213 18.4401C37.785 18.3001 38.902 17.8401 39.7879 16.9401C39.5568 16.2401 39.4413 15.4801 39.4605 14.7401C39.4605 12.9801 40.0576 11.4801 41.1746 10.3801C42.2916 9.34008 43.7168 8.76008 45.2191 8.76008H45.3539C47.0679 8.76008 48.5702 9.34008 49.6102 10.4201C50.6502 11.5001 51.1509 12.9201 51.1509 14.6401C51.1509 16.4601 50.5731 17.9801 49.4368 19.0401C48.3968 20.0201 46.9331 20.5801 45.3154 20.5801H45.2576C43.5242 20.5801 42.022 20.0001 41.0013 18.9401C40.8279 18.7601 40.6546 18.5601 40.5005 18.3401C38.9983 19.6801 37.3228 20.4201 35.5124 20.5401C35.2428 20.5401 34.9539 20.5601 34.6842 20.5601ZM45.3539 10.4001C43.7746 10.4001 42.7539 12.0601 42.7539 14.6401C42.7539 16.2401 43.1391 17.5201 43.8324 18.2401L43.8709 18.2801C44.6991 19.1201 46.0472 19.1201 46.8754 18.2401C47.5879 17.5001 47.9539 16.2601 47.9539 14.6401C47.9539 13.0201 47.5879 11.8001 46.8946 11.0801C46.4709 10.6401 45.9316 10.4001 45.3539 10.4001Z" fill="#0078BB"/>
<defs>
<linearGradient id="paint0_linear" x1="11.3769" y1="11.8449" x2="16.9929" y2="11.8449" gradientUnits="userSpaceOnUse">
<stop stop-color="#F7B842"/>
<stop offset="0.1" stop-color="#FDF5B4"/>
<stop offset="1" stop-color="#F7B842"/>
</linearGradient>
<linearGradient id="paint1_linear" x1="10.8935" y1="5.5498" x2="15.7333" y2="5.5498" gradientUnits="userSpaceOnUse">
<stop stop-color="#003D6A"/>
<stop offset="0.12" stop-color="#023E6A"/>
<stop offset="0.14" stop-color="#22618C"/>
<stop offset="0.15" stop-color="#4182AD"/>
<stop offset="0.17" stop-color="#589DC6"/>
<stop offset="0.19" stop-color="#6AAFD9"/>
<stop offset="0.2" stop-color="#74BAE3"/>
<stop offset="0.22" stop-color="#77BEE7"/>
<stop offset="1" stop-color="#023E6A"/>
</linearGradient>
<linearGradient id="paint2_linear" x1="7.59844" y1="8.51" x2="12.1128" y2="8.51" gradientUnits="userSpaceOnUse">
<stop stop-color="#BAE4F1"/>
<stop offset="0.02" stop-color="#BAE4F1"/>
<stop offset="0.03" stop-color="#BAE4F1"/>
<stop offset="0.1" stop-color="#BAE4F1"/>
<stop offset="1" stop-color="#005999"/>
</linearGradient>
<linearGradient id="paint3_linear" x1="7.59844" y1="8.51" x2="12.1128" y2="8.51" gradientUnits="userSpaceOnUse">
<stop stop-color="#003D6A"/>
<stop offset="0.12" stop-color="#023E6A"/>
<stop offset="0.14" stop-color="#22618C"/>
<stop offset="0.15" stop-color="#4182AD"/>
<stop offset="0.17" stop-color="#589DC6"/>
<stop offset="0.19" stop-color="#6AAFD9"/>
<stop offset="0.2" stop-color="#74BAE3"/>
<stop offset="0.22" stop-color="#77BEE7"/>
<stop offset="1" stop-color="#023E6A"/>
</linearGradient>
<linearGradient id="paint4_linear" x1="5.6068" y1="14.1899" x2="8.04887" y2="14.1899" gradientUnits="userSpaceOnUse">
<stop stop-color="#F7B842"/>
<stop offset="0.1" stop-color="#FDF5B4"/>
<stop offset="1" stop-color="#F7B842"/>
</linearGradient>
<linearGradient id="paint5_linear" x1="5.11975" y1="11.2395" x2="8.47471" y2="11.2395" gradientUnits="userSpaceOnUse">
<stop stop-color="#003D6A"/>
<stop offset="0.12" stop-color="#023E6A"/>
<stop offset="0.14" stop-color="#22618C"/>
<stop offset="0.15" stop-color="#4182AD"/>
<stop offset="0.17" stop-color="#589DC6"/>
<stop offset="0.19" stop-color="#6AAFD9"/>
<stop offset="0.2" stop-color="#74BAE3"/>
<stop offset="0.22" stop-color="#77BEE7"/>
<stop offset="1" stop-color="#023E6A"/>
</linearGradient>
<linearGradient id="paint6_linear" x1="7.96244" y1="13.2192" x2="11.6621" y2="13.2192" gradientUnits="userSpaceOnUse">
<stop stop-color="#F7B842"/>
<stop offset="0.1" stop-color="#FDF5B4"/>
<stop offset="1" stop-color="#F7B842"/>
</linearGradient>
</defs>
</svg>
