<svg width="24" height="24" viewBox="0 0 24 24" fill="none" xmlns="http://www.w3.org/2000/svg">
<path d="M20.3538 16.7402C20.2583 16.0885 20.3668 15.4538 20.6793 14.8359C21.0005 14.2096 21.3825 13.5833 21.8253 12.957C22.2767 12.3307 22.7195 11.6917 23.1536 11.04C23.5876 10.3883 23.8698 9.71126 24 9.00879C23.6961 8.97493 23.3662 8.94954 23.0103 8.93262C22.663 8.90723 22.3028 8.89453 21.9295 8.89453C20.6272 8.89453 19.3294 9.01725 18.0358 9.2627C16.7423 9.50814 15.4531 9.82975 14.1682 10.2275C12.892 10.6169 11.6158 11.0527 10.3397 11.5352C9.06348 12.0176 7.7873 12.5 6.51112 12.9824C8.20401 12.2884 9.14162 11.9245 9.32393 11.8906C9.49756 11.8568 9.18068 12.0049 8.3733 12.335C7.56592 12.665 6.39826 13.1094 4.87032 13.668C3.34238 14.2266 1.71894 14.7555 0 15.2549L0.182311 17.667V19H21.7732C21.7732 17.9928 21.5648 17.5273 21.1481 17.6035C20.7401 17.6712 20.4753 17.3792 20.3538 16.7275V16.7402ZM18.4395 13.5918C18.1617 13.5918 17.9273 13.4987 17.7363 13.3125C17.5453 13.1178 17.4498 12.8893 17.4498 12.627C17.4498 12.3561 17.5453 12.1276 17.7363 11.9414C17.9273 11.7552 18.1617 11.6621 18.4395 11.6621C18.7086 11.6621 18.9387 11.7552 19.1297 11.9414C19.3294 12.1276 19.4292 12.3561 19.4292 12.627C19.4292 12.8893 19.3294 13.1178 19.1297 13.3125C18.9387 13.4987 18.7086 13.5918 18.4395 13.5918ZM13.5822 7.95508L13.8947 8.38672H14.7672L14.4417 7.95508H13.5301H13.5822ZM13.9859 9.42773L12.7618 7.54883H17.2154L17.7623 8.1709L18.1009 8.05664L17.541 6.97754H15.4965L14.9756 6H9.8318L3.63321 9.35156V11.0273L1.758 11.9033V13.8711C2.15735 13.7441 2.5567 13.613 2.95605 13.4775C3.3554 13.3421 3.75041 13.2025 4.14107 13.0586C4.54042 12.9147 4.93543 12.7708 5.3261 12.627C5.71677 12.4746 6.10309 12.3223 6.48508 12.1699C7.11015 11.9245 7.73087 11.679 8.34726 11.4336C8.97233 11.1882 9.59739 10.9512 10.2225 10.7227C10.8475 10.4857 11.4726 10.2572 12.0977 10.0371C12.7314 9.82552 13.3608 9.6224 13.9859 9.42773ZM14.65 6.58398L15.0277 6.96484H13.465L13.2957 6.74902H12.3711L12.5274 6.96484H12.3842L12.1498 7.0791L11.9023 6.76172H10.9908L11.3033 7.19336H11.9154L10.8996 7.67578L10.2094 6.58398H14.663H14.65ZM4.06294 9.71973L9.85784 6.92676L10.0662 7.23145L4.06294 9.96094V9.71973ZM2.40912 12.2334L11.9935 8.24707L12.3581 8.79297L2.344 12.6523L2.40912 12.2334ZM16.1476 8.33594L15.822 7.8916H14.9235L15.2491 8.33594H16.1606H16.1476ZM15.197 9.12305L14.9365 8.69141H13.9859L14.2594 9.12305H15.21H15.197Z" fill="#8ABEFF"/>
</svg>
