<svg width="18" height="20" viewBox="0 0 18 20" fill="none" xmlns="http://www.w3.org/2000/svg">
<path d="M10.0203 11.1643C9.89472 11.1643 9.79601 11.2076 9.68702 11.2618C9.30797 11.5349 8.88317 11.7494 8.41262 11.9055C7.95515 12.0615 7.47153 12.1395 6.96177 12.1395C6.45202 12.1395 5.96186 12.0615 5.49132 11.9055C5.03384 11.7494 4.60904 11.5349 4.21692 11.2618C4.02706 11.1359 3.75929 11.1362 3.56992 11.2618C3.02095 11.6519 2.5308 12.1005 2.09947 12.6076C1.65506 13.1148 1.27601 13.6609 0.962312 14.246C0.661686 14.8312 0.432948 15.4554 0.276099 16.1185C0.10618 16.7817 0.0212202 17.4709 0.0212202 18.186C0.0212202 18.5202 -0.0796523 18.9824 0.158463 19.2588C0.236887 19.3498 0.334918 19.4084 0.452554 19.4344C0.936171 19.5254 1.43286 19.6034 1.94262 19.6684C2.45237 19.7334 2.9752 19.7919 3.5111 19.844C4.047 19.896 4.58944 19.935 5.13841 19.961C5.70045 19.987 6.26249 20 6.82453 20C7.47153 20 8.11853 19.9909 8.76553 19.961C9.3145 19.935 9.86347 19.896 10.4124 19.844C10.9614 19.7919 11.5038 19.7269 12.0398 19.6489C12.5887 19.5839 13.1312 19.4994 13.6671 19.3953C13.6671 19.3953 13.6997 19.3498 13.7651 19.2588C13.8304 19.1678 13.8697 19.0638 13.8827 18.9467C13.8827 18.6867 13.8827 18.4266 13.8827 18.1665C13.8827 17.4644 13.7978 16.7817 13.6278 16.1185C13.471 15.4554 13.2357 14.8312 12.922 14.246C12.6214 13.6609 12.2554 13.1148 11.8241 12.6076C11.3783 12.097 10.8008 11.1643 10.0203 11.1643ZM6.96177 11.5739C6.97484 11.5739 6.98792 11.5739 7.00099 11.5739C7.56303 11.5739 8.09893 11.4698 8.60869 11.2618C9.10537 11.0407 9.53671 10.7482 9.90269 10.3841C10.2817 10.007 10.5824 9.57137 10.8046 9.07725C11.0137 8.57012 11.1183 8.03698 11.1183 7.47784C11.1183 6.9057 11.0137 6.37256 10.8046 5.87844C10.5824 5.38432 10.2817 4.95521 9.90269 4.59112C9.53671 4.21402 9.10537 3.91495 8.60869 3.69389C8.09893 3.48584 7.56303 3.38181 7.00099 3.38181C6.42587 3.38181 5.88998 3.48584 5.39329 3.69389C4.8966 3.90194 4.45873 4.19452 4.07968 4.57161C3.7137 4.9357 3.41961 5.36481 3.19741 5.85894C2.7722 6.86358 2.77214 8.07244 3.19741 9.07725C3.40654 9.57137 3.69409 10.007 4.06007 10.3841C4.43912 10.7482 4.87699 11.0342 5.37368 11.2423C5.87037 11.4633 6.39973 11.5739 6.96177 11.5739ZM12.9024 8.45309C12.5234 8.60913 12.1116 8.71966 11.6672 8.78467C11.6672 8.8887 11.5823 9.12276 11.4124 9.48685C11.3681 9.58591 10.7794 10.5261 10.785 10.5206C11.0464 10.5726 11.4712 10.9107 12.0594 11.5349C12.6606 12.146 13.1769 12.8807 13.6082 13.7389C13.6605 13.7519 13.7912 14.025 14.0004 14.5581C14.2095 15.0913 14.3794 15.6959 14.5101 16.3721C15.046 16.3591 15.5558 16.3201 16.0394 16.2551C16.5361 16.19 17.0197 16.1185 17.4902 16.0405C17.7435 16.0125 17.9512 15.8104 18 15.5919C18 14.6492 17.9806 13.7021 17.7451 12.7832C17.5752 12.12 17.3334 11.4959 17.0197 10.9107C16.7191 10.3256 16.3531 9.77942 15.9218 9.2723C14.7509 7.89573 14.3891 7.79007 12.9024 8.45309ZM11.8633 8.16052C12.8436 7.97847 13.6605 7.51035 14.3141 6.75616C14.9676 6.00197 15.2944 5.11775 15.2944 4.10349C15.2944 3.54435 15.1833 3.01122 14.9611 2.50409C14.7519 2.00996 14.4578 1.58086 14.0788 1.21676C13.6997 0.83967 13.2619 0.540594 12.7652 0.319539C11.49 -0.214591 9.88585 -0.0754647 8.74593 0.709637C8.07932 1.17775 7.58917 1.77591 7.27547 2.50409C7.92901 2.5561 8.53026 2.71864 9.07923 2.99171C9.64127 3.27778 10.1249 3.64188 10.5301 4.08399C10.9483 4.5261 11.2751 5.03323 11.5104 5.60537C11.7983 6.30561 12.0535 7.40377 11.8633 8.16052Z" fill="#5EB26D"/>
</svg>
