<svg width="10" height="12" viewBox="0 0 10 12" fill="none" xmlns="http://www.w3.org/2000/svg">
<path fill-rule="evenodd" clip-rule="evenodd" d="M9.14576 0C9.16158 0 9.17344 0 9.18134 0C9.18925 0 9.19715 0 9.20506 0C9.42644 0 9.61439 0.0758283 9.76856 0.227839C9.92273 0.37985 10 0.565169 10 0.783441V11.3448C9.99209 11.5163 9.92273 11.6623 9.79228 11.7835C9.66183 11.9043 9.5055 11.9646 9.32401 11.9646C9.31575 11.9646 9.31 11.9646 9.30605 11.9646C9.30209 11.9646 9.29598 11.9646 9.28844 11.9646H8.68325H8.67139H8.65953C8.56465 11.9646 8.47553 11.949 8.39251 11.9178C8.30949 11.8866 8.23654 11.8398 8.17329 11.7775C8.10968 11.7229 8.06045 11.6588 8.02487 11.5847C7.98929 11.5103 7.97168 11.4306 7.97168 11.3448V11.3331V11.3214L8.11399 7.29794C7.97923 7.29794 7.85668 7.27455 7.74635 7.22778C7.63531 7.18101 7.53648 7.11864 7.44951 7.04069C7.37835 6.97053 7.32085 6.88691 7.27773 6.78946C7.23388 6.69202 7.21232 6.58855 7.21232 6.47942C7.21232 6.47162 7.21232 6.4617 7.21232 6.45001C7.21232 6.43832 7.21232 6.42875 7.21232 6.42095L7.6274 1.27455C7.66693 0.915963 7.82721 0.613713 8.10789 0.368157C8.38856 0.122601 8.71882 0 9.09833 0C9.10623 0 9.11629 0 9.12815 0C9.14001 0 9.14972 0 9.15762 0H9.14576ZM3.17904 0C3.18695 0 3.19485 0 3.20312 0C3.21067 0 3.21857 0 3.22684 0C3.28973 0 3.34543 0.0212603 3.39287 0.0641351C3.44031 0.10701 3.46403 0.163704 3.46403 0.233863V3.63728C3.46403 3.85555 3.38676 4.04087 3.23259 4.19288C3.07842 4.34489 2.89046 4.42072 2.66909 4.42072C2.66118 4.42072 2.65327 4.42072 2.64537 4.42072C2.63746 4.42072 2.62956 4.42072 2.62165 4.42072H2.45562L2.70466 11.3448C2.70466 11.3526 2.70466 11.3604 2.70466 11.3682C2.70466 11.454 2.68706 11.5358 2.65148 11.6138C2.6159 11.6917 2.5663 11.758 2.50305 11.8126C2.4398 11.8671 2.3647 11.9121 2.27773 11.9472C2.19076 11.9823 2.09983 12 2.00496 12H1.9931H1.43535H1.42349H1.41163C1.31675 12 1.22799 11.9823 1.14497 11.9472C1.06196 11.9121 0.988644 11.8671 0.925394 11.8126C0.862143 11.758 0.812549 11.6917 0.776971 11.6138C0.741393 11.5358 0.723784 11.454 0.723784 11.3682C0.723784 11.3604 0.723784 11.3526 0.723784 11.3448L0.960972 4.4441H0.854237C0.846331 4.4441 0.836268 4.4441 0.824409 4.4441C0.812549 4.4441 0.802846 4.4441 0.79494 4.4441C0.573564 4.4441 0.385611 4.36827 0.231438 4.21626C0.0772659 4.06425 0 3.87893 0 3.66066V0.233863C0 0.171499 0.0237188 0.116931 0.0711565 0.0701589C0.118594 0.0233863 0.178251 0 0.249407 0H0.261266H0.320563H0.332423H0.344282C0.407173 0 0.462876 0.0233863 0.510314 0.0701589C0.557752 0.116931 0.585424 0.171499 0.59333 0.233863V2.50269C0.59333 2.60403 0.630705 2.6919 0.705815 2.76596C0.780924 2.84002 0.87005 2.87687 0.972831 2.87687H0.984691H1.04399H1.05585H1.06771C1.17049 2.87687 1.25925 2.84002 1.33472 2.76596C1.40983 2.6919 1.44721 2.60403 1.44721 2.50269V0.233863C1.44721 0.171499 1.47093 0.116931 1.51836 0.0701589C1.5658 0.0233863 1.6251 0 1.69661 0H1.70847H1.76777H1.77963C1.84252 0 1.89822 0.0233863 1.94566 0.0701589C1.9931 0.116931 2.01682 0.171499 2.01682 0.233863V2.50269C2.02437 2.60403 2.06605 2.6919 2.14116 2.76596C2.21627 2.84002 2.3054 2.87687 2.40818 2.87687H2.42004H2.4319H2.47934C2.48724 2.87687 2.49515 2.87687 2.50305 2.87687C2.60584 2.87687 2.6946 2.84002 2.77007 2.76596C2.84518 2.6919 2.88651 2.60403 2.89442 2.50269V0.233863C2.89442 0.163704 2.91813 0.10701 2.96557 0.0641351C3.01301 0.0212603 3.06835 0 3.1316 0C3.13951 0 3.14742 0 3.15532 0C3.16323 0 3.17113 0 3.17904 0ZM5.02983 0.0584657H5.43305V11.9178H5.02983V0.0584657Z" fill="#A86060"/>
</svg>
