<svg width="13" height="13" viewBox="0 0 13 13" fill="none" xmlns="http://www.w3.org/2000/svg">
<path d="M12.9957 1.9038L12.6609 4.16705C12.6524 4.31279 12.5923 4.43281 12.4807 4.52711C12.3777 4.61284 12.236 4.65142 12.0558 4.64284L9.78962 4.3085C9.63511 4.29993 9.51493 4.23563 9.42909 4.11561C9.34325 3.99559 9.30463 3.86699 9.31321 3.72983C9.33896 3.57552 9.40763 3.45549 9.51922 3.36977C9.6394 3.28404 9.77674 3.24546 9.93125 3.25403L10.9227 3.40834C10.6308 2.9797 10.2832 2.60249 9.87975 2.27672C9.47631 1.95095 9.03853 1.68948 8.56641 1.4923C8.0943 1.29512 7.60072 1.16653 7.08569 1.10652C6.56207 1.04651 6.02987 1.06365 5.48908 1.15796C4.87962 1.2694 4.31308 1.47515 3.78947 1.7752C3.27443 2.07526 2.81948 2.44389 2.42462 2.88111C2.02976 3.31833 1.71645 3.81127 1.48469 4.35994C1.24434 4.9086 1.1027 5.49156 1.05978 6.10881C1.04261 6.26312 0.982527 6.39172 0.87952 6.49459C0.785097 6.58889 0.660631 6.63604 0.50612 6.63604C0.35161 6.63604 0.222851 6.57603 0.119845 6.45601C0.0254216 6.33599 -0.013206 6.20311 0.0039618 6.05737C0.0554653 5.31153 0.222851 4.60426 0.50612 3.93558C0.789389 3.27546 1.16279 2.68393 1.62632 2.16099C2.09844 1.63804 2.64781 1.19653 3.27443 0.836471C3.89247 0.484982 4.56631 0.240654 5.29594 0.103487C5.93115 -0.00796056 6.55778 -0.0293928 7.17582 0.0391904C7.79386 0.116347 8.38186 0.270659 8.93981 0.502128C9.50635 0.733596 10.03 1.03793 10.5107 1.41514C10.9999 1.79235 11.4249 2.23386 11.7854 2.73966L11.9141 1.76235C11.9485 1.61661 12.0214 1.50087 12.133 1.41514C12.2446 1.32084 12.3777 1.28226 12.5322 1.29941C12.6867 1.30798 12.8069 1.37228 12.8927 1.4923C12.9785 1.61232 13.0129 1.74949 12.9957 1.9038ZM9.51922 7.6005L9.78962 7.87054L9.57073 8.08915L8.51491 8.37206L8.18013 8.7064L7.69085 9.97948L7.40758 9.69657L7.57497 8.4235L6.18438 7.36903L4.57489 9.97948L4.40751 9.81231L4.96117 6.14739C4.96117 6.14739 4.75086 5.94164 4.33025 5.53014C3.91822 5.11007 3.69504 4.88288 3.66071 4.84859C3.49761 4.68571 3.40748 4.50139 3.39031 4.29564C3.38173 4.08132 3.44611 3.90557 3.58345 3.76841C3.72079 3.63124 3.89247 3.57123 4.09849 3.58837C4.31308 3.60552 4.50193 3.69554 4.66502 3.85842C4.76803 3.9613 5.00838 4.20562 5.38607 4.5914C5.77235 4.96861 5.96549 5.15722 5.96549 5.15722L9.57073 4.6557L9.73811 4.82287L7.18869 6.37886L8.24451 7.76767L9.51922 7.6005ZM0.995403 8.39778L3.27443 8.73212C3.42894 8.74927 3.54912 8.81785 3.63496 8.93787C3.72079 9.05789 3.75513 9.19506 3.73796 9.34937C3.72938 9.48654 3.665 9.60227 3.54482 9.69657C3.42465 9.7823 3.29589 9.81231 3.15855 9.78659L2.0126 9.61942C2.31303 10.0481 2.66497 10.421 3.06842 10.7382C3.47186 11.064 3.90964 11.3254 4.38176 11.5226C4.85387 11.7112 5.34745 11.8312 5.86248 11.8827C6.37751 11.9427 6.90113 11.9255 7.43333 11.8312C8.04279 11.7198 8.60933 11.514 9.13295 11.214C9.64798 10.9139 10.1029 10.5496 10.4978 10.1209C10.8926 9.68371 11.206 9.18648 11.4377 8.62925C11.6781 8.08058 11.8197 7.49762 11.8626 6.88037C11.8798 6.72606 11.9442 6.60175 12.0558 6.50745C12.1674 6.41315 12.2961 6.37028 12.442 6.37886C12.5966 6.396 12.721 6.4603 12.8154 6.57175C12.9185 6.68319 12.9614 6.81607 12.9442 6.97039C12.9013 7.70766 12.7339 8.40635 12.442 9.06646C12.1588 9.72658 11.7811 10.3224 11.309 10.8539C10.8369 11.3769 10.2875 11.8184 9.66086 12.1784C9.03423 12.5299 8.3561 12.7742 7.62647 12.9114C7.53205 12.92 7.26595 12.9457 6.82817 12.9886C6.39039 13.0229 5.86677 12.98 5.25731 12.86C4.64786 12.7485 3.99119 12.5128 3.28731 12.1527C2.58343 11.8012 1.91817 11.2311 1.29155 10.4424L1.16279 11.2783C1.13704 11.4154 1.06837 11.5355 0.956776 11.6383C0.845185 11.7326 0.70355 11.7669 0.531872 11.7412C0.377362 11.7326 0.257187 11.6683 0.171348 11.5483C0.0855089 11.4283 0.0468813 11.2911 0.0554653 11.1368L0.390238 8.87357C0.415989 8.71926 0.484661 8.59924 0.596251 8.51351C0.716426 8.42778 0.849477 8.3892 0.995403 8.39778Z" fill="#0F7EE6"/>
</svg>
