<svg width="18" height="16" viewBox="0 0 18 16" fill="none" xmlns="http://www.w3.org/2000/svg">
<path d="M15.2653 11.2617C15.1937 10.7604 15.2751 10.2721 15.5095 9.79688C15.7504 9.3151 16.0369 8.83333 16.369 8.35156C16.7075 7.86979 17.0396 7.37826 17.3652 6.87695C17.6907 6.37565 17.9023 5.85482 18 5.31445C17.7721 5.28841 17.5247 5.26888 17.2577 5.25586C16.9973 5.23633 16.7271 5.22656 16.4471 5.22656C15.4704 5.22656 14.497 5.32096 13.5269 5.50977C12.5567 5.69857 11.5898 5.94596 10.6262 6.25195C9.66902 6.55143 8.71188 6.88672 7.75475 7.25781C6.79761 7.62891 5.84048 8 4.88334 8.37109C6.15301 7.83724 6.85621 7.55729 6.99295 7.53125C7.12317 7.50521 6.88551 7.61914 6.27998 7.87305C5.67444 8.12695 4.7987 8.46875 3.65274 8.89844C2.50678 9.32812 1.2892 9.73503 0 10.1191L0.136734 11.9746V13H16.3299C16.3299 12.2253 16.1736 11.8672 15.8611 11.9258C15.5551 11.9779 15.3565 11.7533 15.2653 11.252V11.2617ZM13.8296 8.83984C13.6213 8.83984 13.4455 8.76823 13.3022 8.625C13.159 8.47526 13.0874 8.29948 13.0874 8.09766C13.0874 7.88932 13.159 7.71354 13.3022 7.57031C13.4455 7.42708 13.6213 7.35547 13.8296 7.35547C14.0315 7.35547 14.204 7.42708 14.3473 7.57031C14.497 7.71354 14.5719 7.88932 14.5719 8.09766C14.5719 8.29948 14.497 8.47526 14.3473 8.625C14.204 8.76823 14.0315 8.83984 13.8296 8.83984ZM10.1867 4.50391L10.4211 4.83594H11.0754L10.8313 4.50391H10.1476H10.1867ZM10.4894 5.63672L9.57135 4.19141H12.9116L13.3218 4.66992L13.5757 4.58203L13.1557 3.75195H11.6224L11.2317 3H7.37385L2.72491 5.57812V6.86719L1.3185 7.54102V9.05469C1.61801 8.95703 1.91753 8.85612 2.21704 8.75195C2.51655 8.64779 2.81281 8.54036 3.10581 8.42969C3.40532 8.31901 3.70157 8.20833 3.99457 8.09766C4.28757 7.98047 4.57732 7.86328 4.86381 7.74609C5.33261 7.55729 5.79815 7.36849 6.26044 7.17969C6.72925 6.99089 7.19805 6.80859 7.66685 6.63281C8.13565 6.45052 8.60445 6.27474 9.07325 6.10547C9.54856 5.94271 10.0206 5.78646 10.4894 5.63672ZM10.9875 3.44922L11.2708 3.74219H10.0988L9.97178 3.57617H9.27835L9.39555 3.74219H9.28812L9.11232 3.83008L8.92675 3.58594H8.24308L8.47748 3.91797H8.93652L8.17472 4.28906L7.65708 3.44922H10.9973H10.9875ZM3.04721 5.86133L7.39338 3.71289L7.54965 3.94727L3.04721 6.04688V5.86133ZM1.80684 7.79492L8.99512 4.72852L9.26858 5.14844L1.758 8.11719L1.80684 7.79492ZM12.1107 4.79688L11.8665 4.45508H11.1926L11.4368 4.79688H12.1205H12.1107ZM11.3977 5.40234L11.2024 5.07031H10.4894L10.6945 5.40234H11.4075H11.3977Z" fill="#0F7EE6"/>
</svg>
