<svg width="32" height="20" viewBox="0 0 32 20" fill="none" xmlns="http://www.w3.org/2000/svg">
<path fill-rule="evenodd" clip-rule="evenodd" d="M16 2.85751H15C13.8954 2.85751 13 3.71031 13 4.76228V6.66704C13 7.71901 13.8954 8.5718 15 8.5718H16C17.1046 8.5718 18 7.71901 18 6.66704V4.76228C18 3.71031 17.1046 2.85751 16 2.85751ZM15 0.952753C12.7909 0.952753 11 2.65833 11 4.76228V6.66704C11 8.77098 12.7909 10.4766 15 10.4766H16C18.2091 10.4766 20 8.77098 20 6.66704V4.76228C20 2.65833 18.2091 0.952753 16 0.952753H15Z" fill="#163B85"/>
<path fill-rule="evenodd" clip-rule="evenodd" d="M28 12.3813H27C25.8954 12.3813 25 13.2341 25 14.2861V16.1908C25 17.2428 25.8954 18.0956 27 18.0956H28C29.1046 18.0956 30 17.2428 30 16.1908V14.2861C30 13.2341 29.1046 12.3813 28 12.3813ZM27 10.4766C24.7909 10.4766 23 12.1821 23 14.2861V16.1908C23 18.2948 24.7909 20.0004 27 20.0004H28C30.2091 20.0004 32 18.2948 32 16.1908V14.2861C32 12.1821 30.2091 10.4766 28 10.4766H27Z" fill="#163B85"/>
<path d="M26.2731 0.945312L28.0056 1.89796L17.0332 19.9978L15.3007 19.0451L26.2731 0.945312Z" fill="#163B85"/>
<path d="M5.78571 0.953125L5.78571 14.0484L9 14.0484L4.5 20.0007L-6.01032e-07 14.0484L3.21429 14.0484L3.21429 0.953125L5.78571 0.953125Z" fill="#163B85"/>
</svg>
