<?xml version="1.0" encoding="UTF-8"?>
<svg viewBox="0 0 30.48 31.93" xmlns="http://www.w3.org/2000/svg">
<defs>
<style>.bus-a{fill:#fff;}</style>
</defs>
<title>icon-bus</title>
<path class="bus-a" transform="translate(0)" d="M29.56,6.34H28.33V4.21A4.27,4.27,0,0,0,24.06,0H6.42A4.27,4.27,0,0,0,2.15,4.2V6.34H.88A.89.89,0,0,0,0,7.23H0v4.84a.89.89,0,0,0,.88.87H2.15V23.39a2.27,2.27,0,0,0-.79,1.71v1.62A2.33,2.33,0,0,0,3.69,29H4v2.31a.69.69,0,0,0,.69.67H7.94a.69.69,0,0,0,.69-.67V29H21.88v2.31a.69.69,0,0,0,.69.67H25.8a.69.69,0,0,0,.69-.67V29h.32a2.33,2.33,0,0,0,2.33-2.28V25.11a2.27,2.27,0,0,0-.79-1.7V13h1.24a.88.88,0,0,0,.89-.88h0V7.22a.89.89,0,0,0-.89-.87h0Zm-3.91.33V17H16.41V6.69h9.22Zm-15-4.48h9.15A1.15,1.15,0,0,1,21,3.32a1.15,1.15,0,0,1-1.15,1.13H10.65A1.14,1.14,0,0,1,9.51,3.32a1.15,1.15,0,0,1,1.14-1.13ZM4.83,6.69h9.22V17H4.83ZM9,21.65a1.13,1.13,0,0,1-1.13,1.12H5.91a1.12,1.12,0,0,1-1.12-1.12V20.42a1.12,1.12,0,0,1,1.12-1.11H7.83A1.12,1.12,0,0,1,9,20.42Zm12.56,0V20.42a1.12,1.12,0,0,1,1.12-1.11h1.91a1.12,1.12,0,0,1,1.13,1.11v1.23a1.13,1.13,0,0,1-1.13,1.12H22.64a1.13,1.13,0,0,1-1.12-1.12Z"/>
</svg>
