<svg width="16" height="16" viewBox="0 0 16 16" fill="none" xmlns="http://www.w3.org/2000/svg">
<path fill-rule="evenodd" clip-rule="evenodd" d="M6.01187 7.10759C5.99084 7.11852 5.96995 7.12398 5.94905 7.12398C5.92802 7.12398 5.90187 7.12398 5.87046 7.12398C5.62929 7.12398 5.41994 7.04233 5.24186 6.87903C5.06365 6.71574 4.95904 6.51448 4.92749 6.27486C4.92749 6.25329 4.92749 6.23159 4.92749 6.2096C4.92749 6.18789 4.92749 6.16058 4.92749 6.12795C4.92749 5.88874 5.00339 5.67363 5.15545 5.48302C5.30724 5.2927 5.49853 5.18094 5.72905 5.1483C5.74994 5.1483 5.77084 5.14578 5.79187 5.14018C5.81276 5.13486 5.82854 5.13206 5.83905 5.13206C6.07995 5.13206 6.28944 5.21105 6.46765 5.36874C6.64573 5.52672 6.75061 5.72545 6.78202 5.96465C6.7924 5.98664 6.79779 6.01115 6.79779 6.03818C6.79779 6.06549 6.79779 6.09532 6.79779 6.12795C6.79779 6.36757 6.72163 6.57975 6.56983 6.76475C6.41791 6.9499 6.23201 7.06418 6.01187 7.10759ZM10.0352 8.87095C10.0561 8.87095 10.0769 8.86843 10.0981 8.86283C10.119 8.85737 10.1453 8.85457 10.1767 8.85457C10.4176 8.85457 10.6271 8.93622 10.8053 9.09951C10.9834 9.26281 11.0881 9.46434 11.1197 9.70369C11.1197 9.73632 11.1221 9.76643 11.1275 9.79346C11.1326 9.82077 11.1353 9.84528 11.1353 9.86684C11.1353 10.1174 11.0593 10.335 10.9075 10.52C10.7554 10.7052 10.5695 10.8195 10.3495 10.8629C10.3284 10.8629 10.3049 10.8657 10.2789 10.871C10.2526 10.8766 10.229 10.8793 10.2081 10.8793C9.96695 10.8793 9.75746 10.795 9.57952 10.6262C9.40117 10.4574 9.29656 10.2534 9.26515 10.0139C9.25463 9.99219 9.24937 9.96768 9.24937 9.94037C9.24937 9.91334 9.24937 9.88323 9.24937 9.8506C9.24937 9.61125 9.32527 9.39908 9.47733 9.21379C9.62912 9.02893 9.81516 8.91451 10.0352 8.87095ZM15.143 6.6831C16.2534 7.23826 16.2848 7.8696 15.2372 8.57699C14.9332 8.72964 14.6872 8.9526 14.4986 9.24643C14.31 9.54039 14.2156 9.87259 14.2156 10.2425C14.2156 10.4384 14.2443 10.6262 14.3022 10.8057C14.3596 10.9853 14.4356 11.1461 14.53 11.2874C15.106 12.4195 14.7814 12.942 13.5556 12.8548C13.503 12.8548 13.4507 12.8523 13.3984 12.8467C13.3459 12.8412 13.2936 12.8384 13.2413 12.8384C12.7592 12.8384 12.3455 13.0128 11.9997 13.3609C11.6539 13.7094 11.4706 14.1283 11.4497 14.6182C11.2713 15.8698 10.7055 16.0876 9.75234 15.2712C9.59515 15.0862 9.40386 14.9421 9.17874 14.8386C8.95334 14.7352 8.70975 14.6834 8.44795 14.6834C8.165 14.6834 7.89781 14.7487 7.6464 14.8793C7.39498 15.01 7.19062 15.1896 7.03343 15.4181C6.16366 16.3325 5.57699 16.1692 5.27327 14.9284C5.21045 14.4712 5.01134 14.0903 4.67608 13.7854C4.34068 13.4808 3.94772 13.3283 3.49734 13.3283C3.40311 13.3283 3.3113 13.3339 3.22233 13.3445C3.13323 13.3556 3.05194 13.3719 2.97874 13.3936C1.75295 13.6115 1.37037 13.1324 1.83154 11.9568C1.90474 11.8261 1.95974 11.6848 1.99654 11.5323C2.03307 11.3799 2.05154 11.2221 2.05154 11.0588C2.05154 10.6562 1.93884 10.2971 1.71358 9.98126C1.48819 9.66559 1.2028 9.44796 0.85716 9.32807C-0.253372 8.76228 -0.284781 8.13626 0.762796 7.45043C1.06651 7.2982 1.3128 7.07496 1.5014 6.781C1.68999 6.48717 1.78436 6.15526 1.78436 5.78511C1.78436 5.58918 1.75537 5.40137 1.69795 5.22183C1.64025 5.04215 1.56435 4.88179 1.46999 4.7402C0.883178 3.60818 1.20806 3.0858 2.44437 3.17277C2.49667 3.18369 2.54898 3.19182 2.60155 3.19728C2.65386 3.20288 2.71155 3.2054 2.77451 3.2054C3.2563 3.2054 3.67272 3.02586 4.02389 2.66663C4.37479 2.3074 4.55031 1.87759 4.55031 1.37678C4.72838 0.125156 5.29417 -0.0927602 6.24765 0.723727C6.41521 0.908872 6.61163 1.05298 6.83702 1.15634C7.06215 1.25984 7.30062 1.31137 7.55217 1.31137C7.84537 1.31137 8.11512 1.24611 8.36154 1.11544C8.60756 0.984919 8.81449 0.805236 8.98232 0.576675C9.84117 -0.326643 10.4281 -0.168667 10.7425 1.05018C10.8053 1.5073 11.0017 1.88852 11.3319 2.19312C11.6619 2.49801 12.0572 2.65024 12.5183 2.65024C12.6021 2.65024 12.6885 2.64212 12.7777 2.62574C12.8665 2.60949 12.9478 2.59058 13.0212 2.5686C14.226 2.37267 14.6086 2.86256 14.1686 4.03813C14.1056 4.16866 14.0531 4.31025 14.0114 4.46262C13.9693 4.61514 13.9484 4.77283 13.9484 4.93613C13.9484 5.33891 14.061 5.69814 14.2864 6.01367C14.5115 6.32948 14.8023 6.55244 15.1586 6.6831H15.143ZM4.31466 6.38914C4.36697 6.781 4.53979 7.1132 4.83326 7.38517C5.12647 7.65743 5.46699 7.79341 5.85482 7.79341C5.89648 7.79341 5.93584 7.79341 5.97264 7.79341C6.00918 7.79341 6.04342 7.78795 6.07483 7.77703C6.46226 7.72269 6.78445 7.54021 7.04139 7.23C7.29792 6.91979 7.42639 6.55804 7.42639 6.14433C7.42639 6.10092 7.4237 6.05736 7.41857 6.01367C7.41318 5.97025 7.41062 5.9267 7.41062 5.883C7.35805 5.49114 7.18522 5.15937 6.89202 4.88711C6.59855 4.61514 6.25277 4.47887 5.85482 4.47887C5.81276 4.47887 5.76828 4.48167 5.72123 4.48713C5.67405 4.49273 5.62929 4.49525 5.58764 4.49525C5.2207 4.57158 4.91428 4.76205 4.66826 5.06666C4.42197 5.37154 4.29889 5.72545 4.29889 6.12795C4.29889 6.17164 4.29889 6.2152 4.29889 6.25861C4.29889 6.30217 4.30402 6.34026 4.31466 6.3729V6.38914ZM11.2297 5.26258C11.2611 5.22995 11.2871 5.192 11.3083 5.1483C11.329 5.10503 11.3397 5.05601 11.3397 5.00139C11.3397 4.94705 11.329 4.89804 11.3083 4.85448C11.2871 4.81107 11.2611 4.77283 11.2297 4.7402C11.1983 4.69678 11.1613 4.66667 11.1197 4.65029C11.0776 4.63404 11.0304 4.62592 10.9781 4.62592C10.9362 4.62592 10.8917 4.63404 10.8445 4.65029C10.7975 4.66667 10.7581 4.69678 10.7267 4.7402L4.86467 10.8139C4.83326 10.8465 4.80967 10.8849 4.7939 10.9281C4.77826 10.9718 4.77044 11.0209 4.77044 11.0752C4.77044 11.1297 4.77826 11.1787 4.7939 11.2221C4.80967 11.2657 4.83326 11.3037 4.86467 11.3364C4.89608 11.3799 4.93275 11.4098 4.97468 11.4262C5.01647 11.4425 5.06365 11.4507 5.11609 11.4507C5.16839 11.4507 5.21557 11.4425 5.25763 11.4262C5.29929 11.4098 5.33609 11.3799 5.36763 11.3364L11.2297 5.26258ZM10.3809 11.5159C10.7581 11.4507 11.0725 11.2657 11.3239 10.9608C11.5755 10.6562 11.7011 10.3024 11.7011 9.89961C11.7011 9.8562 11.7011 9.8125 11.7011 9.76895C11.7011 9.72553 11.6957 9.68198 11.6855 9.63828C11.6329 9.23578 11.4599 8.90106 11.1667 8.63413C10.8734 8.36762 10.5276 8.23415 10.1295 8.23415C10.0875 8.23415 10.0455 8.23415 10.0037 8.23415C9.96182 8.23415 9.91977 8.23975 9.87811 8.25054C9.51117 8.32672 9.20475 8.51733 8.95873 8.82194C8.71244 9.12682 8.58936 9.47499 8.58936 9.86684C8.58936 9.92146 8.59179 9.97048 8.59718 10.0139C8.60231 10.0575 8.60514 10.1011 8.60514 10.1444C8.65744 10.5363 8.83026 10.8657 9.12374 11.1323C9.41694 11.3991 9.76272 11.5323 10.1609 11.5323C10.2027 11.5323 10.242 11.5323 10.2789 11.5323C10.3154 11.5323 10.3495 11.527 10.3809 11.5159Z" fill="#0F7EE6"/>
</svg>
