<svg width="36" height="36" viewBox="0 0 36 36" fill="none" xmlns="http://www.w3.org/2000/svg">
<path d="M32.6149 8.46785L32.6149 8.46786L34.9217 10.7771L34.8864 10.8124L34.9217 10.7771C35.0081 10.8636 35.0669 10.9738 35.0908 11.0937C35.1146 11.2137 35.1024 11.338 35.0556 11.451C35.0088 11.564 34.9297 11.6606 34.8281 11.7285C34.7265 11.7965 34.607 11.8328 34.4848 11.8328H31.2628L30.3436 12.753L30.3436 12.753C30.2277 12.8689 30.0706 12.9341 29.9067 12.9341H29.3889V16.2946C29.3888 16.4169 29.3526 16.5365 29.2847 16.6382C29.2168 16.7399 29.1203 16.8191 29.0075 16.8659C28.8946 16.9128 28.7703 16.925 28.6505 16.9012C28.5306 16.8773 28.4205 16.8184 28.3341 16.7319L28.3341 16.7319L26.0628 14.4582L26.0628 14.4582C25.9469 14.3422 25.8819 14.1849 25.8819 14.0209V12.5719L23.1276 9.81473L20.1549 13.2865C20.0995 13.3512 20.0313 13.4038 19.9547 13.4409C19.878 13.478 19.7945 13.4988 19.7094 13.5021C19.7015 13.5024 19.6936 13.5025 19.6857 13.5025C19.5219 13.5025 19.3647 13.4374 19.2488 13.3214L19.2488 13.3214L17.5453 11.6161L17.5453 11.6161C17.4665 11.5372 17.4104 11.4383 17.3832 11.33C17.3559 11.2217 17.3584 11.1081 17.3904 11.0012L17.3904 11.0011L18.9879 5.67074L17.5695 4.25082L17.5695 4.25082C17.295 3.97606 17.1081 3.62602 17.0324 3.24496C16.9567 2.86391 16.9956 2.46893 17.1441 2.10998C17.2927 1.75104 17.5442 1.44423 17.8669 1.22837C18.1897 1.0125 18.5691 0.89728 18.9572 0.897273H20.8322H20.8323V0.947273C21.0835 0.946591 21.3324 0.995797 21.5646 1.09204C21.7967 1.18829 22.0074 1.32967 22.1846 1.50799L32.6149 8.46785ZM32.6149 8.46785C32.499 8.3519 32.3419 8.28674 32.178 8.28674H29.027L27.4957 6.75382L29.7409 4.82733C29.8056 4.77187 29.8581 4.70365 29.8951 4.62693C29.9321 4.55022 29.953 4.46667 29.9562 4.38153C29.9595 4.29639 29.9452 4.21149 29.9141 4.13216C29.8831 4.05282 29.836 3.98076 29.7758 3.9205L29.7404 3.95583L29.7758 3.9205L28.0723 2.21524L28.0369 2.25057L28.0723 2.21523C27.9934 2.13628 27.8946 2.08017 27.7864 2.05287C27.6782 2.02556 27.5647 2.02808 27.4578 2.06016L27.4722 2.10805L27.4578 2.06016L23.8802 3.13456L22.2201 1.47275C22.2201 1.47274 22.2201 1.47273 22.2201 1.47272L32.6149 8.46785ZM25.8819 10.8225L18.4433 3.37622L18.4433 3.37619C18.3461 3.27913 18.2784 3.15649 18.248 3.02249C18.2176 2.88848 18.2258 2.74859 18.2716 2.61906C18.3174 2.48952 18.399 2.37563 18.5068 2.29061C18.6073 2.21133 18.7268 2.16016 18.8532 2.14205L19.9581 3.59544L19.9884 3.63529L20.0282 3.60496L20.9319 2.9165L20.9716 2.88623L20.9414 2.84646L20.3999 2.13411L20.8323 2.13411L20.8324 2.13411C20.9279 2.13385 21.0224 2.15255 21.1106 2.18911C21.1987 2.22568 21.2788 2.27939 21.3461 2.34714L21.3462 2.34725L28.3317 9.34001L28.332 9.34029L30.1544 11.1931L29.6508 11.6973H29.027L26.9366 9.6047L26.9366 9.6047C26.8502 9.51822 26.7401 9.45932 26.6203 9.43547C26.5004 9.41161 26.3762 9.42387 26.2633 9.47068C26.1504 9.51749 26.0539 9.59676 25.986 9.69845C25.9181 9.80014 25.8819 9.9197 25.8819 10.042V10.8225ZM24.8725 4.12793L27.4594 3.35106L28.4303 4.32285L26.6194 5.87663L24.8725 4.12793ZM18.6801 11.0027L19.9803 6.66418L22.2513 8.93754L19.6508 11.9745L18.6801 11.0027ZM28.1532 14.8016L27.1175 13.7648V11.5351L28.1532 12.5718V14.8016ZM32.9933 10.5959H31.3338L30.2626 9.52358H31.9221L32.9933 10.5959Z" fill="#163B85" stroke="#163B85" stroke-width="0.1"/>
<path d="M14.0258 24.0564L14.0258 24.0564C13.9739 23.9009 13.8625 23.7723 13.716 23.6989C13.5694 23.6255 13.3997 23.6135 13.2443 23.6653L13.2443 23.6653L12.1086 24.0442L12.0612 24.0601L12.077 24.1075L12.436 25.186L12.4518 25.2335L12.4993 25.2177L13.0489 25.0343L13.4213 26.1529C13.4469 26.2299 13.4875 26.3011 13.5407 26.3625C13.5938 26.4238 13.6585 26.4741 13.7311 26.5104C13.7311 26.5104 13.7311 26.5104 13.7311 26.5104L16.0024 27.6472L16.0472 27.6696L16.0695 27.6249L16.5775 26.6081L16.5998 26.5634L16.5551 26.541L14.5127 25.5187L14.0258 24.0564Z" fill="#163B85" stroke="#163B85" stroke-width="0.1"/>
<path d="M21.5765 30.3377L21.5358 30.3087L20.6103 29.6498L20.5696 29.6208L20.5985 29.5801C20.9963 29.0199 21.3365 28.4207 21.6137 27.7919L20.5451 25.6525L19.9621 25.9442L19.9621 25.9442L19.9397 25.8995C19.8502 25.9444 19.7504 25.9647 19.6505 25.9585C19.5506 25.9523 19.4541 25.9197 19.3708 25.8641L21.5765 30.3377ZM21.5765 30.3377L21.6055 30.2969C23.1923 28.0627 23.9232 25.3316 23.6646 22.6026C23.406 19.8735 22.1753 17.3287 20.1972 15.4329C18.2191 13.5372 15.6257 12.4171 12.8908 12.2774C10.1559 12.1376 7.46198 12.9875 5.30131 14.6717L5.26191 14.7024L5.29258 14.7418L5.99031 15.6387L6.02106 15.6782L6.06054 15.6474C6.83437 15.0435 7.69158 14.5555 8.60517 14.1986L7.8151 15.385C7.8151 15.385 7.8151 15.385 7.8151 15.385C7.75468 15.4757 7.71929 15.5808 7.71252 15.6896C7.70576 15.7984 7.72785 15.9071 7.77657 16.0046L8.34439 17.1414C8.38068 17.214 8.4309 17.2788 8.4922 17.332C8.55349 17.3852 8.62466 17.4258 8.70164 17.4515C8.77862 17.4772 8.85989 17.4875 8.94083 17.4817C9.02177 17.4759 9.10078 17.4543 9.17335 17.4179C9.17335 17.4179 9.17335 17.4179 9.17335 17.4179L11.0463 16.4805L11.4303 16.8648L8.46008 19.8381L8.42478 19.8734L8.46008 19.9087L9.26316 20.7126L9.29854 20.7481L9.33391 20.7126L12.7409 17.3021L12.7409 17.3021C12.8567 17.1861 12.9218 17.0288 12.9218 16.8648C12.9218 16.7008 12.8567 16.5435 12.7409 16.4275L12.7409 16.4275L11.6052 15.2907L11.6052 15.2907C11.5135 15.1989 11.3953 15.1383 11.2673 15.1176C11.1393 15.0968 11.008 15.1168 10.892 15.1749L10.9143 15.2196L10.892 15.1749L9.17333 16.0351L9.04209 15.7724L9.97889 14.3657L9.9789 14.3657C10.0441 14.2677 10.08 14.1532 10.0823 14.0355C10.0843 13.9406 10.0643 13.8469 10.0244 13.7614C11.6981 13.379 13.441 13.4238 15.0931 13.8918V15.728C15.0931 15.892 15.1582 16.0493 15.2741 16.1652C15.3899 16.2812 15.5471 16.3464 15.7109 16.3464H15.9894L15.6926 17.2377L15.6926 17.2377C15.6611 17.3325 15.6529 17.4336 15.6689 17.5323C15.6849 17.6309 15.7246 17.7243 15.7845 17.8043L15.7845 17.8043L17.3644 19.9131V24.2543C17.3644 24.3561 17.3895 24.4563 17.4375 24.5461C17.4855 24.6358 17.5549 24.7124 17.6395 24.7688L19.343 25.9057L21.5765 30.3377ZM21.374 24.5461L21.3293 24.5685L21.374 24.5461C21.3007 24.3994 21.1722 24.2879 21.0168 24.236C20.8613 24.1842 20.6916 24.1962 20.5451 24.2696L19.7302 24.6775L18.6001 23.9234V19.7069C18.6001 19.5731 18.5567 19.443 18.4766 19.3359L18.4766 19.3359L16.9673 17.3215L17.4328 15.9236C17.4637 15.8306 17.4722 15.7316 17.4574 15.6347C17.4426 15.5379 17.4051 15.4459 17.3479 15.3664C17.2906 15.2869 17.2153 15.2222 17.1282 15.1775C17.041 15.1329 16.9445 15.1096 16.8466 15.1096H16.3288V14.3322C18.5517 15.2937 20.3606 17.0169 21.4297 19.1937C22.4903 21.3531 22.7533 23.817 22.1749 26.1496L21.374 24.5461Z" fill="#163B85" stroke="#163B85" stroke-width="0.1"/>
<path d="M12.304 33.8658H12.304C14.2493 33.8683 16.1542 33.3103 17.7912 32.2585L17.8333 32.2315L17.8603 32.2736L18.4739 33.2303L18.5009 33.2724L18.4588 33.2994C16.0996 34.8098 13.2687 35.4009 10.503 34.9605C10.503 34.9605 10.503 34.9605 10.503 34.9605L10.5108 34.9111C9.90203 34.8148 9.30218 34.6685 8.71739 34.4735L12.304 33.8658ZM12.304 33.8658C11.9413 33.8654 11.5789 33.8458 11.2183 33.8071V33.3974M12.304 33.8658L11.2183 33.3974M11.2183 33.3974H12.304C12.4678 33.3973 12.625 33.3322 12.7409 33.2162L12.7409 33.2162L13.3087 32.6478L13.3087 32.6478C13.4245 32.5318 13.4896 32.3745 13.4896 32.2105V31.4214L14.1268 31.0337L14.1695 31.0077L14.1436 30.965L13.5537 29.9936L13.5277 29.9508L13.485 29.9768L12.5509 30.5452C12.5509 30.5452 12.5509 30.5452 12.5509 30.5452C12.4602 30.6004 12.3853 30.678 12.3333 30.7705C12.2813 30.8631 12.254 30.9675 12.254 31.0737V31.9544L12.048 32.1605H10.6005C10.4366 32.1605 10.2794 32.2257 10.1636 32.3417C10.0477 32.4576 9.98265 32.6149 9.98264 32.7789V33.5988C9.82582 33.5622 9.66988 33.522 9.51481 33.4781V30.5053C9.51481 30.3413 9.44974 30.184 9.33391 30.068L9.3339 30.068L7.24349 27.9754V26.5263C7.24349 26.3623 7.17842 26.205 7.06259 26.089L7.06258 26.089L3.83651 22.8597V19.7492L3.91143 19.2243L3.91143 19.2243C3.92404 19.1358 3.91734 19.0456 3.8918 18.96C3.86626 18.8743 3.82248 18.7952 3.76348 18.7282L3.72593 18.7612L11.2183 33.3974ZM8.27915 33.038C5.93059 32.0232 4.04871 30.16 3.00957 27.818C2.00214 25.5476 1.85924 22.9905 2.60085 20.6271V23.1158C2.60086 23.2798 2.66592 23.4371 2.78176 23.5531L2.78177 23.5531L6.00783 26.7824V28.2316C6.00784 28.3956 6.0729 28.5529 6.18874 28.6689L6.18875 28.6689L8.27915 30.7614V33.038Z" fill="#163B85" stroke="#163B85" stroke-width="0.1"/>
<path d="M30.8714 14.8177L30.8277 14.8419L21.6203 32.5451L21.6096 32.594C21.6096 32.594 21.6096 32.594 21.6096 32.594C22.6645 32.8243 23.7406 32.9433 24.8202 32.9489H24.8205C27.6552 32.9488 30.0838 32.0441 31.8355 30.2906C33.6009 28.5233 34.5162 26.0398 34.4867 23.1125C34.4585 20.3176 33.5749 17.2662 31.9338 14.2882L31.9096 14.2444L31.8658 14.2686L30.8714 14.8177Z" fill="#163B85" stroke="#163B85" stroke-width="0.1"/>
</svg>
