<svg width="14" height="14" viewBox="0 0 14 14" fill="none" xmlns="http://www.w3.org/2000/svg">
<path fill-rule="evenodd" clip-rule="evenodd" d="M4.27928 0.546959C3.42248 0.91156 2.67733 1.41055 2.04394 2.04394C1.41032 2.67757 0.911325 3.42272 0.546842 4.27928C0.182242 5.12704 0 6.03403 0 7C0 7.96621 0.182242 8.87308 0.546842 9.72072C0.911325 10.5775 1.41032 11.3227 2.04394 11.9561C2.67733 12.5897 3.42248 13.0887 4.27928 13.4532C5.12692 13.8176 6.03379 14 7 14C7.96597 14 8.87308 13.8176 9.72072 13.4532C10.5773 13.0887 11.3224 12.5897 11.9561 11.9561C12.5894 11.3227 13.0884 10.5775 13.4532 9.72072C13.8175 8.87308 14 7.96621 14 7C14 6.03403 13.8175 5.12704 13.4532 4.27928C13.0884 3.42272 12.5894 2.67757 11.9561 2.04394C11.3224 1.41055 10.5773 0.91156 9.72072 0.546959C8.87308 0.182476 7.96597 0 7 0C6.03379 0 5.12692 0.182476 4.27928 0.546959ZM7.25976 8.75006L5.83795 8.76366C5.82868 8.69084 5.81953 8.61801 5.8105 8.54495C5.80136 8.47212 5.7969 8.39461 5.7969 8.31251C5.7969 8.2031 5.8037 8.09169 5.81742 7.97758C5.83103 7.86371 5.85155 7.75195 5.87887 7.64265C5.92438 7.50591 5.9768 7.37598 6.03614 7.25296C6.09536 7.12994 6.16127 7.00926 6.23433 6.8907C6.30727 6.79043 6.3869 6.69474 6.47368 6.6035C6.56011 6.5125 6.649 6.43052 6.74024 6.35746L7.28708 5.89259C7.36917 5.82892 7.44435 5.76055 7.51272 5.68749C7.58109 5.61466 7.64711 5.53269 7.71091 5.44145C7.76567 5.36862 7.8066 5.28653 7.83404 5.19529C7.86137 5.10429 7.87497 5.00859 7.87497 4.90821V4.89461V4.88088C7.87497 4.87197 7.87497 4.86271 7.87497 4.85356C7.87497 4.73523 7.8521 4.62347 7.8066 4.51863C7.76098 4.41391 7.70176 4.32501 7.62893 4.25195C7.51952 4.16998 7.40096 4.10395 7.27348 4.05376C7.14565 4.0038 7.00903 3.97859 6.86326 3.97859C6.84497 3.97859 6.82679 3.98093 6.80861 3.98539C6.7902 3.99008 6.77202 3.99219 6.75396 3.99219C6.71737 3.99219 6.6809 3.99008 6.64455 3.98539C6.60796 3.98093 6.56703 3.97859 6.52153 3.97859C6.48494 3.97859 6.44847 3.98093 6.41211 3.98539C6.37552 3.99008 6.3346 3.99219 6.28909 3.99219C6.207 4.0106 6.12714 4.02878 6.04986 4.04696C5.97222 4.06525 5.89705 4.08789 5.82423 4.11521C5.74213 4.14265 5.66462 4.17232 5.59179 4.2041C5.51873 4.23612 5.4459 4.27036 5.37308 4.30672C5.30916 4.33404 5.2476 4.36606 5.18849 4.40241C5.12903 4.43888 5.07227 4.47547 5.01762 4.51171L4.36137 3.36326C4.52543 3.25396 4.70075 3.15369 4.88769 3.06257C5.07438 2.97157 5.26812 2.89394 5.46877 2.83014C5.69652 2.76646 5.9313 2.71627 6.17288 2.67968C6.41422 2.64344 6.66272 2.62503 6.91803 2.62503C6.94535 2.62503 6.96799 2.62503 6.98628 2.62503C7.00446 2.62503 7.02263 2.62503 7.04105 2.62503C7.06837 2.62503 7.09781 2.62503 7.12994 2.62503C7.16172 2.62503 7.19139 2.62503 7.21871 2.62503C7.54684 2.62503 7.85668 2.67288 8.14845 2.76857C8.43999 2.86427 8.70432 3.00335 8.94145 3.18559C9.15101 3.34966 9.31742 3.55254 9.44044 3.794C9.56346 4.03558 9.62503 4.30214 9.62503 4.5938C9.62503 4.60295 9.62503 4.6121 9.62503 4.62113C9.62503 4.63027 9.62503 4.63954 9.62503 4.64845C9.62503 4.6576 9.62503 4.66686 9.62503 4.67577C9.62503 4.68504 9.62503 4.69419 9.62503 4.7031C9.62503 4.87643 9.60896 5.04495 9.57718 5.20901C9.54505 5.37308 9.4972 5.53269 9.43364 5.68749C9.37887 5.81531 9.31742 5.93599 9.24905 6.04986C9.18068 6.16396 9.10082 6.26646 9.00982 6.35746C8.92773 6.4487 8.83883 6.53748 8.74314 6.62402C8.64745 6.71081 8.54026 6.79501 8.42193 6.87698C8.33069 6.94089 8.23734 7.01161 8.14165 7.08889C8.04595 7.16641 7.95706 7.24616 7.87497 7.32813C7.793 7.40119 7.71548 7.48328 7.64254 7.57428C7.56948 7.66552 7.50591 7.76122 7.45115 7.86137C7.38735 7.97993 7.3395 8.1074 7.30761 8.24414C7.27559 8.38088 7.25976 8.51762 7.25976 8.65436C7.25976 8.67266 7.25976 8.69084 7.25976 8.70901C7.25976 8.72743 7.25976 8.74103 7.25976 8.75006ZM5.86527 11.1152C5.77403 11.0424 5.70332 10.949 5.65336 10.835C5.60317 10.7212 5.57807 10.6004 5.57807 10.4727C5.57807 10.4638 5.57807 10.4545 5.57807 10.4454V10.418C5.57807 10.2904 5.60317 10.1719 5.65336 10.0626C5.70332 9.95316 5.77403 9.85746 5.86527 9.77537C5.95627 9.6934 6.06112 9.63183 6.17968 9.5909C6.29801 9.54986 6.42103 9.52934 6.54885 9.52934C6.55777 9.52934 6.56703 9.52934 6.57618 9.52934C6.58509 9.52934 6.59435 9.52934 6.6035 9.52934C6.61253 9.52934 6.62402 9.52934 6.63775 9.52934C6.65135 9.52934 6.66272 9.52934 6.67187 9.52934C6.80861 9.52934 6.93609 9.54986 7.05465 9.5909C7.17298 9.63183 7.28239 9.6934 7.38278 9.77537C7.46487 9.85746 7.53089 9.95316 7.58109 10.0626C7.63104 10.1719 7.65626 10.2904 7.65626 10.418V10.4454C7.65626 10.4545 7.65626 10.4638 7.65626 10.4727C7.65626 10.6004 7.63104 10.7212 7.58109 10.835C7.53089 10.949 7.46487 11.0424 7.38278 11.1152C7.28239 11.1973 7.17087 11.2612 7.04785 11.3067C6.92483 11.3523 6.79946 11.3751 6.67187 11.3751C6.65346 11.3751 6.63986 11.3751 6.63083 11.3751C6.62168 11.3751 6.61253 11.3751 6.6035 11.3751C6.59435 11.3751 6.58755 11.3751 6.58298 11.3751C6.57829 11.3751 6.57149 11.3751 6.56246 11.3751C6.42583 11.3751 6.29801 11.3523 6.17968 11.3067C6.06112 11.2612 5.95627 11.1973 5.86527 11.1152Z" fill="#0F7EE6"/>
</svg>
