<svg width="16" height="16" viewBox="0 0 16 16" fill="none" xmlns="http://www.w3.org/2000/svg">
<g clip-path="url(#clip0)">
<path d="M7.51712 0.367673C7.66911 -0.122557 8.33089 -0.122558 8.48287 0.367672L10.0233 5.33637C10.0913 5.55561 10.2863 5.70405 10.5062 5.70405L15.4913 5.70405C15.9831 5.70405 16.1876 6.36365 15.7897 6.66662L11.7567 9.73745C11.5788 9.87295 11.5043 10.1131 11.5723 10.3324L13.1128 15.3011C13.2647 15.7913 12.7294 16.1989 12.3314 15.896L8.29843 12.8251C8.12048 12.6896 7.87952 12.6896 7.70157 12.8251L3.66855 15.896C3.27064 16.1989 2.73526 15.7913 2.88724 15.3011L4.42772 10.3324C4.49569 10.1131 4.42123 9.87295 4.24328 9.73745L0.210265 6.66663C-0.187646 6.36365 0.0168528 5.70405 0.508698 5.70405L5.49377 5.70405C5.71373 5.70405 5.90868 5.55561 5.97665 5.33637L7.51712 0.367673Z" fill="#F48F2E"/>
</g>
<defs>
<clipPath id="clip0">
<rect y="16" width="16" height="16" transform="rotate(-90 0 16)" fill="white"/>
</clipPath>
</defs>
</svg>
