<svg width="16" height="12" viewBox="0 0 16 12" fill="none" xmlns="http://www.w3.org/2000/svg">
<path fill-rule="evenodd" clip-rule="evenodd" d="M14.535 0.187508C14.8317 0.312761 15.0878 0.484643 15.3026 0.703154C15.5175 0.921913 15.6874 1.17589 15.8127 1.46484C15.9375 1.75404 16 2.06655 16 2.40238V9.59762C16 9.9337 15.9375 10.2462 15.8127 10.5352C15.6874 10.8244 15.5175 11.0783 15.3026 11.2968C15.0878 11.5154 14.8317 11.6875 14.535 11.8125C14.2457 11.9373 13.9371 12 13.6089 12H2.40278C2.06686 12 1.75426 11.9373 1.46524 11.8125C1.17596 11.6875 0.921913 11.5154 0.703343 11.2968C0.484277 11.0783 0.312349 10.8244 0.187558 10.5352C0.0622713 10.2462 0 9.9337 0 9.59762V2.40238C0 2.06655 0.0622713 1.75404 0.187558 1.46484C0.312349 1.17589 0.484277 0.921913 0.703343 0.703154C0.921913 0.484643 1.17596 0.312761 1.46524 0.187508C1.75426 0.0627506 2.06686 0 2.40278 0H13.6089C13.9371 0 14.2457 0.0627506 14.535 0.187508ZM14.828 10.6173C14.9451 10.4766 15.0369 10.3204 15.1034 10.1485C15.1696 9.9766 15.2031 9.79306 15.2031 9.59762V2.40238C15.2031 2.20718 15.1696 2.02166 15.1034 1.84581C15.0369 1.66996 14.9451 1.51172 14.828 1.37109L8.66241 6L14.828 10.6173ZM13.6089 0.796908H2.40278C2.30131 0.796908 2.20554 0.806829 2.11574 0.826175C2.02568 0.845769 1.94182 0.867347 1.86367 0.890662L8.00595 5.50792L14.148 0.902319C14.0619 0.871316 13.9741 0.845769 13.8843 0.826175C13.7945 0.806829 13.7027 0.796908 13.6089 0.796908ZM7.33784 6L1.1839 1.37109C1.05861 1.51172 0.962848 1.66996 0.896607 1.84581C0.830118 2.02166 0.796874 2.20718 0.796874 2.40238V9.59762C0.804565 9.79306 0.841779 9.97859 0.908268 10.1542C0.974756 10.33 1.06258 10.4843 1.17199 10.6173L7.33784 6ZM2.40278 11.2031H13.6089C13.7104 11.1954 13.8061 11.1837 13.8962 11.1679C13.9857 11.1525 14.0661 11.1289 14.1363 11.0977L8.00595 6.49233L1.85201 11.0977C1.93785 11.1289 2.02766 11.1545 2.12144 11.1738C2.21522 11.1934 2.309 11.2031 2.40278 11.2031Z" fill="#0F7EE6"/>
</svg>
