<svg width="16" height="16" viewBox="0 0 16 16" fill="none" xmlns="http://www.w3.org/2000/svg">
<path d="M6.31877 4.96875H3.66581C3.20308 4.96875 2.8072 5.13542 2.47815 5.46875C2.15938 5.79167 2 6.1875 2 6.65625V10.125C2 10.5312 2.12339 10.8854 2.37018 11.1875C2.61697 11.4896 2.92545 11.6823 3.29563 11.7656V15.4844H4.12853V10.9844H3.66581C3.42931 10.9844 3.22879 10.901 3.06427 10.7344C2.89974 10.5677 2.81748 10.3646 2.81748 10.125V6.65625C2.81748 6.41667 2.89974 6.21354 3.06427 6.04688C3.22879 5.88021 3.42931 5.79688 3.66581 5.79688H6.31877C6.55527 5.79688 6.75064 5.88021 6.90488 6.04688C7.06941 6.21354 7.15167 6.41146 7.15167 6.64062C7.15167 6.65104 7.15167 6.65625 7.15167 6.65625V7.29688C6.92545 7.43229 6.92031 7.43229 7.13625 7.29688C7.35219 7.16146 7.62468 7.03125 7.95373 6.90625L7.98458 6.65625C7.98458 6.1875 7.82005 5.79167 7.491 5.46875C7.17224 5.13542 6.78149 4.96875 6.31877 4.96875ZM9.74293 7.39062C9.15681 7.39062 8.60154 7.50521 8.07712 7.73438C7.56298 7.95312 7.11568 8.26042 6.73522 8.65625C6.35476 9.04167 6.05141 9.49479 5.82519 10.0156C5.59897 10.5469 5.48586 11.1094 5.48586 11.7031C5.48586 12.2969 5.59897 12.8542 5.82519 13.375C6.05141 13.8958 6.35476 14.3542 6.73522 14.75C7.11568 15.1354 7.56812 15.4375 8.09255 15.6562C8.60668 15.8854 9.15681 16 9.74293 16C10.329 16 10.8792 15.8854 11.3933 15.6562C11.9075 15.4375 12.3548 15.1354 12.7352 14.75C13.126 14.3542 13.4344 13.8958 13.6607 13.375C13.8869 12.8542 14 12.2969 14 11.7031C14 11.6927 14 11.6875 14 11.6875C14 11.0938 13.8869 10.5365 13.6607 10.0156C13.4344 9.49479 13.1311 9.04167 12.7506 8.65625C12.3702 8.26042 11.9177 7.95312 11.3933 7.73438C10.8792 7.50521 10.329 7.39062 9.74293 7.39062ZM13.1517 11.2812H11.5784C11.5681 10.8229 11.491 10.3385 11.347 9.82812C11.2031 9.30729 11.0026 8.8125 10.7455 8.34375C11.3728 8.55208 11.9075 8.92188 12.3496 9.45312C12.7918 9.97396 13.0591 10.5781 13.1517 11.2656V11.2812ZM8.66324 11.2812C8.67352 10.7604 8.77121 10.2344 8.9563 9.70312C9.14139 9.16146 9.39846 8.66146 9.72751 8.20312V8.21875C10.0051 8.59375 10.2416 9.04688 10.437 9.57812C10.6324 10.1094 10.7455 10.6719 10.7764 11.2656L8.66324 11.2812ZM10.7455 12.1094C10.7455 12.5156 10.6478 12.9948 10.4524 13.5469C10.2674 14.099 10.0154 14.6302 9.69666 15.1406C9.491 14.8594 9.28535 14.4479 9.07969 13.9062C8.88432 13.3646 8.75064 12.776 8.67866 12.1406L10.7455 12.1094ZM8.64782 8.40625C8.44216 8.75 8.26735 9.17188 8.12339 9.67188C7.97943 10.1719 7.89203 10.7031 7.86118 11.2656L6.34961 11.2812C6.41131 10.6354 6.64782 10.0521 7.05913 9.53125C7.48072 9.01042 8 8.64062 8.61697 8.42188L8.64782 8.40625ZM6.34961 12.1094H7.86118C7.86118 12.5052 7.9383 12.9688 8.09255 13.5C8.24679 14.0312 8.45758 14.5469 8.72494 15.0469C8.10797 14.8385 7.57841 14.474 7.13625 13.9531C6.69409 13.4323 6.43188 12.8229 6.34961 12.125V12.1094ZM10.6992 15.0312C10.8843 14.75 11.0591 14.349 11.2237 13.8281C11.3985 13.3073 11.5116 12.7448 11.563 12.1406L13.1517 12.1094C13.0797 12.7865 12.8175 13.3906 12.365 13.9219C11.9229 14.4531 11.3779 14.8177 10.7301 15.0156L10.6992 15.0312ZM4.99229 0C4.43702 0 3.96401 0.197917 3.57326 0.59375C3.18252 0.989583 2.98715 1.46875 2.98715 2.03125C2.98715 2.59375 3.18252 3.07812 3.57326 3.48438C3.96401 3.88021 4.43702 4.07812 4.99229 4.07812C5.54756 4.07812 6.02057 3.88021 6.41131 3.48438C6.80206 3.07812 6.99743 2.59375 6.99743 2.03125C6.99743 1.46875 6.80206 0.989583 6.41131 0.59375C6.02057 0.197917 5.54756 0 4.99229 0ZM4.99229 3.25C4.66324 3.25 4.38046 3.13021 4.14396 2.89062C3.91774 2.65104 3.80463 2.36458 3.80463 2.03125C3.80463 1.70833 3.91774 1.42708 4.14396 1.1875C4.38046 0.947917 4.66324 0.828125 4.99229 0.828125C5.32134 0.828125 5.59897 0.947917 5.82519 1.1875C6.0617 1.42708 6.17995 1.70833 6.17995 2.03125C6.17995 2.36458 6.0617 2.65104 5.82519 2.89062C5.59897 3.11979 5.32134 3.23958 4.99229 3.25Z" fill="#0F7EE6"/>
</svg>
