<?xml version="1.0" encoding="UTF-8"?>
<svg viewBox="0 0 15.14 19.56" xmlns="http://www.w3.org/2000/svg">
<defs>
<style>.house-2-a{isolation:isolate;}.house-2-b{fill:#fff;}</style>
</defs>
<title>icon-house-2</title>
<g class="house-2-a">
<path class="house-2-b" transform="translate(-.71 -1.15)" d="M15.85,8.53l-.47.67-.52-.58L13.6,7.25,12,5.51c-.56-.6-1-1.13-1.47-1.6A14.14,14.14,0,0,0,9.2,2.56a1.44,1.44,0,0,0-.73-.43,1.52,1.52,0,0,0-.71.39A13.73,13.73,0,0,0,6.38,3.81L4.84,5.41,3.19,7.15,1.89,8.53l-.53.57L.71,8.53,3.45,5.59V1.35H5.62v2l.8-.82A10.18,10.18,0,0,1,7.63,1.39a1.5,1.5,0,0,1,.84-.24,1.4,1.4,0,0,1,.87.29,11.31,11.31,0,0,1,1.2,1.24ZM8.47,3.77c.17,0,.4.16.72.48l1.35,1.41,3.73,4.13V20.71H11.9V12.1H4.59v8.61H2.31V9.79L6.42,5.53q.86-.88,1.35-1.32C8.1,3.92,8.33,3.77,8.47,3.77Z"/>
</g>
</svg>
