<?xml version="1.0" encoding="UTF-8"?>
<svg viewBox="0 0 15 14.8" xmlns="http://www.w3.org/2000/svg">
<defs>
<style>.airplane-a{fill:#fff;}</style>
</defs>
<title>icon-airplane</title>
<path class="airplane-a" transform="translate(0 -.1)" d="M14.64,6.73a1.14,1.14,0,0,1,0,1.66,1,1,0,0,1-.82.35H10a1.05,1.05,0,0,0-.95.6l-3.2,5.32a.47.47,0,0,1-.47.24H4L5.76,9.45a.59.59,0,0,0-.59-.82H2.92A1.08,1.08,0,0,0,2,9.1l-.35.59c-.12.12-.24.36-.48.36,0,0-.94.11-1.06-.12S.2,9,.43,8.74A1.79,1.79,0,0,0,.79,7.68,2.35,2.35,0,0,0,.43,6.49C.2,6.26-.16,5.55.08,5.31s1.06-.12,1.06-.12c.24,0,.36.24.48.36L2,6a1.47,1.47,0,0,0,1,.47H5.17c.47,0,.71-.35.59-.83L4,.1H5.41a.62.62,0,0,1,.47.24l3.2,5.44a1.23,1.23,0,0,0,1.06.59h3.79A1,1,0,0,1,14.64,6.73Z"/>
</svg>
