<svg width="32" height="32" viewBox="0 0 32 32" fill="none" xmlns="http://www.w3.org/2000/svg">
<path d="M23.5583 32C22.6803 32 21.85 31.8242 21.0675 31.4727C20.2849 31.1406 19.5978 30.6816 19.0061 30.0957C18.4335 29.4902 17.985 28.7871 17.6605 27.9863C17.317 27.1855 17.1452 26.3359 17.1452 25.4375C17.1452 24.5195 17.317 23.6602 17.6605 22.8594C17.985 22.0586 18.4335 21.3652 19.0061 20.7793C19.5978 20.1934 20.2849 19.7246 21.0675 19.373C21.85 19.0215 22.6803 18.8457 23.5583 18.8457C24.4554 18.8457 25.2952 19.0215 26.0777 19.373C26.8412 19.7246 27.5092 20.1934 28.0818 20.7793C28.6735 21.3652 29.1411 22.0586 29.4847 22.8594C29.8282 23.6602 30 24.5195 30 25.4375C30 26.3359 29.8282 27.1855 29.4847 27.9863C29.1411 28.7871 28.6735 29.4902 28.0818 30.0957C27.5092 30.6816 26.8316 31.1406 26.0491 31.4727C25.2856 31.8242 24.4554 32 23.5583 32ZM23.5583 19.9004C22.0695 19.9004 20.8003 20.4473 19.7505 21.541C18.7008 22.6152 18.1759 23.9141 18.1759 25.4375C18.1759 26.9609 18.7008 28.2598 19.7505 29.334C20.8003 30.4082 22.0695 30.9453 23.5583 30.9453C25.047 30.9453 26.3163 30.4082 27.3661 29.334C28.4158 28.2598 28.9407 26.9609 28.9407 25.4375C28.9407 23.9141 28.4158 22.6152 27.3661 21.541C26.3163 20.4473 25.047 19.9004 23.5583 19.9004ZM26.3926 22.5371C26.3545 22.5176 26.3163 22.498 26.2781 22.4785C26.2399 22.459 26.2018 22.4492 26.1636 22.4492C26.1254 22.4492 26.0873 22.459 26.0491 22.4785C26.0109 22.498 25.9823 22.5176 25.9632 22.5371L23.9305 24.6172C23.8923 24.5781 23.835 24.5586 23.7587 24.5586C23.7014 24.5391 23.6346 24.5293 23.5583 24.5293C23.501 24.5293 23.4342 24.5391 23.3579 24.5586C23.3006 24.5586 23.2434 24.5781 23.1861 24.6172L20.4376 21.8047C20.3995 21.7656 20.3613 21.7461 20.3231 21.7461C20.304 21.7266 20.2658 21.7168 20.2086 21.7168C20.1322 21.7168 20.0654 21.7461 20.0082 21.8047C19.9509 21.8633 19.9223 21.9316 19.9223 22.0098C19.9223 22.0488 19.9318 22.0879 19.9509 22.127C19.97 22.166 19.9891 22.1953 20.0082 22.2148L22.7566 25.0566C22.7376 25.1152 22.7185 25.1738 22.6994 25.2324C22.6803 25.291 22.6708 25.3594 22.6708 25.4375C22.6708 25.6719 22.7566 25.877 22.9284 26.0527C23.1002 26.2285 23.3102 26.3164 23.5583 26.3164C23.8064 26.3164 24.0164 26.2285 24.1881 26.0527C24.3599 25.877 24.4458 25.6719 24.4458 25.4375C24.4458 25.3594 24.4363 25.291 24.4172 25.2324C24.3981 25.1738 24.379 25.1152 24.3599 25.0566L26.3926 22.9766C26.4117 22.957 26.4308 22.9277 26.4499 22.8887C26.469 22.8496 26.4785 22.8105 26.4785 22.7715C26.4785 22.7129 26.469 22.6738 26.4499 22.6543C26.4308 22.6152 26.4117 22.5762 26.3926 22.5371ZM9.3865 17.1172H12.9366V20.6035H9.3865V17.1172ZM12.9366 13.6309H16.4867V17.1172H12.9366V13.6309ZM5.8364 13.6309H9.3865V17.1172H5.8364V13.6309ZM24.7321 4.57812H20.6094V2.9082C20.6094 2.6543 20.5235 2.43945 20.3517 2.26367C20.18 2.08789 19.97 2 19.7219 2C19.4928 2 19.2924 2.08789 19.1207 2.26367C18.9489 2.43945 18.863 2.6543 18.863 2.9082V4.57812H10.274V2.9082C10.274 2.6543 10.1881 2.43945 10.0164 2.26367C9.84458 2.08789 9.63463 2 9.3865 2C9.13838 2 8.92843 2.08789 8.75665 2.26367C8.58487 2.43945 8.49898 2.6543 8.49898 2.9082V4.57812H4.80573C4.02318 4.57812 3.35515 4.86133 2.80164 5.42773C2.26721 5.97461 2 6.64844 2 7.44922V26.3457C2 27.127 2.26721 27.8008 2.80164 28.3672C3.35515 28.9336 4.02318 29.2168 4.80573 29.2168H17.002C17.1738 29.5488 17.1738 29.5586 17.002 29.2461C16.8303 28.9336 16.6585 28.543 16.4867 28.0742L4.80573 28.0156C4.34765 28.0156 3.95637 27.8594 3.6319 27.5469C3.32652 27.2148 3.17382 26.8145 3.17382 26.3457V11.082H26.364V18.2598C26.0395 18.1035 26.0491 18.1035 26.3926 18.2598C26.7362 18.3965 27.1275 18.6113 27.5665 18.9043L27.5378 7.44922C27.5378 6.86328 27.3088 6.23828 26.8507 5.57422C26.4117 4.91016 25.7055 4.57812 24.7321 4.57812ZM26.364 9.85156H3.17382V7.44922C3.17382 6.98047 3.32652 6.58984 3.6319 6.27734C3.95637 5.94531 4.34765 5.7793 4.80573 5.7793H8.49898V7.5957C8.49898 7.84961 8.58487 8.06445 8.75665 8.24023C8.92843 8.41602 9.13838 8.50391 9.3865 8.50391C9.61554 8.50391 9.81595 8.41602 9.98773 8.24023C10.1595 8.06445 10.2454 7.84961 10.2454 7.5957V5.7793H18.8344V7.5957C18.8344 7.84961 18.9202 8.06445 19.092 8.24023C19.2638 8.41602 19.4738 8.50391 19.7219 8.50391C19.97 8.50391 20.18 8.41602 20.3517 8.24023C20.5235 8.06445 20.6094 7.84961 20.6094 7.5957V5.7793H24.7321C25.1902 5.7793 25.5719 5.94531 25.8773 6.27734C26.2018 6.58984 26.364 6.98047 26.364 7.44922V9.85156Z" fill="#0F7EE6"/>
</svg>
