<svg width="16" height="16" viewBox="0 0 16 16" fill="none" xmlns="http://www.w3.org/2000/svg">
<path fill-rule="evenodd" clip-rule="evenodd" d="M2.65607 3.51527C2.55774 3.51527 2.46983 3.47929 2.39384 3.40592C2.31686 3.33349 2.27912 3.24497 2.27912 3.14035C2.27912 3.03669 2.31686 2.95053 2.39384 2.88284C2.46983 2.81515 2.55774 2.78106 2.65607 2.78106L2.80358 2.74982C2.83635 2.61444 2.87162 2.4871 2.90986 2.36686C2.9481 2.24757 2.98932 2.13018 3.03303 2.01562C2.95654 1.99479 2.89595 1.95314 2.85274 1.89065C2.80904 1.82817 2.78719 1.76047 2.78719 1.68757C2.78719 1.58343 2.82543 1.49491 2.90191 1.42154C2.9784 1.34911 3.07127 1.31219 3.18053 1.31219L3.39359 1.29657C3.55749 0.963314 3.79786 0.679763 4.11473 0.44497C4.43159 0.210651 4.80358 0.0624852 5.2297 0C5.63397 0.0624852 5.99454 0.210651 6.3114 0.44497C6.62826 0.679763 6.86913 0.974201 7.03303 1.32781H7.2297H7.24609C7.35535 1.32781 7.44524 1.36473 7.51676 1.43716C7.58729 1.51053 7.62304 1.59385 7.62304 1.68757C7.62304 1.77089 7.60119 1.84095 7.55749 1.89822C7.51378 1.9555 7.45369 1.98959 7.3772 2C7.42091 2.12497 7.46163 2.24994 7.50037 2.37491C7.53812 2.49988 7.57388 2.63527 7.60666 2.78106H7.75416C7.76509 2.78106 7.77601 2.78106 7.78694 2.78106C7.79786 2.78106 7.80879 2.78106 7.81972 2.78106C7.92898 2.78106 8.01887 2.81751 8.09039 2.89041C8.16141 2.96331 8.19667 3.04663 8.19667 3.14035C8.19667 3.24497 8.16141 3.33349 8.09039 3.40592C8.01887 3.47929 7.92898 3.51527 7.81972 3.51527C7.80879 3.51527 7.79786 3.51527 7.78694 3.51527C7.77601 3.51527 7.76509 3.51527 7.75416 3.51527H2.65607ZM6.22945 2.96852H6.80358V2.03124H6.22945V2.96852ZM4.9183 2.96852H5.49193V2.03124H4.9183V2.96852ZM3.60666 2.96852H4.18028V2.03124H3.60666V2.96852ZM9.36081 14.9373C9.37174 14.9373 9.38515 14.9373 9.40154 14.9373C9.41793 14.9373 9.43184 14.9373 9.44276 14.9373C9.59573 14.9373 9.72684 14.9898 9.83611 15.0935C9.94537 15.1976 10 15.3226 10 15.4684C10 15.6142 9.94537 15.7392 9.83611 15.8438C9.72684 15.9475 9.59573 16 9.44276 16C9.43184 16 9.41793 16 9.40154 16C9.38515 16 9.37174 16 9.36081 16H0.639682C0.628756 16 0.61485 16 0.59846 16C0.582071 16 0.568165 16 0.557735 16C0.404271 16 0.273156 15.9475 0.16439 15.8438C0.0551279 15.7392 0 15.6142 0 15.4684C0 15.3226 0.0551279 15.1976 0.16439 15.0935C0.273156 14.9898 0.404271 14.9373 0.557735 14.9373C0.568165 14.9373 0.579588 14.9373 0.590514 14.9373C0.600944 14.9373 0.612366 14.9373 0.623293 14.9373H1.62304L2.6069 4.48426C2.61733 4.35929 2.67246 4.25515 2.7708 4.17183C2.86913 4.08852 2.98932 4.04686 3.13136 4.04686H7.29526H7.31165C7.44276 4.04686 7.55749 4.08852 7.65582 4.17183C7.75416 4.25515 7.80879 4.35929 7.81972 4.48426L8.81997 14.9373H9.36081ZM3.27887 8.53112L6.80358 5.2497V5.03101H4.09834L3.55749 5.53089L3.27887 8.53112ZM2.73802 14.0625L7.27887 9.87503L7.03303 7.34343L3.03303 11.0466L2.73802 14.0625ZM7.72138 14.4999L7.49193 11.9688L4.27862 14.9373H7.24609L7.72138 14.4999Z" fill="#0F7EE6"/>
</svg>
