<svg width="18" height="16" viewBox="0 0 18 16" fill="none" xmlns="http://www.w3.org/2000/svg">
<path fill-rule="evenodd" clip-rule="evenodd" d="M17.6905 13.8845C18.0251 14.4697 18.0883 14.9684 17.8805 15.3811C17.6727 15.7936 17.2545 16 16.6261 16H1.3739C0.745311 16 0.327123 15.7936 0.119338 15.3811C-0.0882608 14.9684 -0.0251029 14.4697 0.309559 13.8845L7.82142 0.814933C7.91279 0.574805 8.06714 0.378775 8.28539 0.227226C8.50326 0.0758705 8.74393 0 9.00759 0C9.28133 0 9.52462 0.0758705 9.73746 0.227226C9.95047 0.378775 10.1074 0.579812 10.2089 0.830531L17.6905 13.8845ZM10.0568 13.9159V12.0667H7.92793V13.8845H10.0721L10.0568 13.9159ZM10.0721 3.49466H7.91279L8.14076 10.9071H9.84396L10.0721 3.49466Z" fill="#FF0000"/>
</svg>
