<svg width="16" height="16" viewBox="0 0 16 16" fill="none" xmlns="http://www.w3.org/2000/svg">
<path fill-rule="evenodd" clip-rule="evenodd" d="M0 0H16V16H0V0ZM8.97415 9.63028H7.07109L6.80385 2.03829H9.24139L8.97415 9.63028ZM7.11158 12.1366C6.87944 12.3525 6.76336 12.6312 6.76336 12.9726C6.76336 13.3091 6.87674 13.5852 7.10348 13.8011C7.33563 14.017 7.64066 14.125 8.01857 14.125C8.39109 14.125 8.69072 14.017 8.91746 13.8011C9.14961 13.5852 9.26568 13.3091 9.26568 12.9726C9.26568 12.6312 9.14961 12.3525 8.91746 12.1366C8.68532 11.9157 8.38569 11.8052 8.01857 11.8052C7.64606 11.8052 7.34373 11.9157 7.11158 12.1366Z" fill="#5CB16E"/>
</svg>
