<svg width="60" height="60" viewBox="0 0 60 60" fill="none" xmlns="http://www.w3.org/2000/svg">
<path opacity="0.05" d="M47.31 37.2152L58.065 40.6952L58.995 37.8452L48.24 34.3652L47.31 37.2152Z" fill="#1A459C"/>
<path opacity="0.1" d="M44.22 42.2405L53.355 48.8405L55.125 46.4255L45.99 39.8105L44.22 42.2405Z" fill="#1A459C"/>
<path opacity="0.15" d="M39.72 46.0493L46.365 55.1543L48.795 53.3843L42.165 44.2793L39.72 46.0493Z" fill="#1A459C"/>
<path opacity="0.2" d="M34.26 48.3011L37.74 58.9961L40.605 58.0661L37.125 47.3711L34.26 48.3011Z" fill="#1A459C"/>
<path opacity="0.25" d="M31.5 48.75H28.5V60H31.5V48.75Z" fill="#1A459C"/>
<path opacity="0.3" d="M19.125 58.0661L21.99 58.9961L25.485 48.3011L22.62 47.3711L19.125 58.0661Z" fill="#1A459C"/>
<path opacity="0.35" d="M17.58 44.2793L10.935 53.3843L13.38 55.1543L20.025 46.0493L17.58 44.2793Z" fill="#1A459C"/>
<path opacity="0.4" d="M13.74 39.8105L4.60501 46.4255L6.37501 48.8405L15.525 42.2405L13.74 39.8105Z" fill="#1A459C"/>
<path opacity="0.45" d="M11.49 34.3652L0.75 37.8452L1.68 40.6952L12.42 37.2152L11.49 34.3652Z" fill="#1A459C"/>
<path opacity="0.5" d="M11.25 28.5H0V31.5H11.25V28.5Z" fill="#1A459C"/>
<path opacity="0.55" d="M1.9431 19.307L1.01605 22.1602L11.7154 25.6366L12.6425 22.7834L1.9431 19.307Z" fill="#1A459C"/>
<path opacity="0.6" d="M6.6068 11.1569L4.84344 13.584L13.9449 20.1966L15.7082 17.7695L6.6068 11.1569Z" fill="#1A459C"/>
<path opacity="0.65" d="M13.5831 4.84212L11.156 6.60547L17.7686 15.7069L20.1956 13.9435L13.5831 4.84212Z" fill="#1A459C"/>
<path opacity="0.7" d="M22.1626 1.0085L19.3095 1.93555L22.7859 12.6349L25.6391 11.7079L22.1626 1.0085Z" fill="#1A459C"/>
<path opacity="0.75" d="M31.5 0H28.5V11.25H31.5V0Z" fill="#1A459C"/>
<path opacity="0.8" d="M37.8596 1.01351L34.3832 11.7129L37.2363 12.6399L40.7128 1.94056L37.8596 1.01351Z" fill="#1A459C"/>
<path opacity="0.85" d="M46.419 4.84387L39.8064 13.9453L42.2334 15.7087L48.846 6.60723L46.419 4.84387Z" fill="#1A459C"/>
<path opacity="0.9" d="M53.396 11.153L44.2945 17.7656L46.0579 20.1927L55.1593 13.5801L53.396 11.153Z" fill="#1A459C"/>
<path opacity="0.95" d="M58.0672 19.3087L47.3678 22.7852L48.2948 25.6383L58.9942 22.1619L58.0672 19.3087Z" fill="#1A459C"/>
<path d="M60 28.5H37.5V31.5H60V28.5Z" fill="#1A459C"/>
</svg>
