<svg width="220" height="179" viewBox="0 0 220 179" fill="none" xmlns="http://www.w3.org/2000/svg">
<path d="M7 128V51M7 128C7 132.971 11.0294 137 16 137H204C208.971 137 213 132.971 213 128V51C213 46.0294 208.971 42 204 42H16C11.0294 42 7 46.0294 7 51M7 128V117.65M7 51V117.65M7 117.65L7 61M1 130.596C1 137.58 6.66135 143.241 13.645 143.241H27.3016C27.3016 143.521 27.528 143.747 27.8074 143.747H35.1415C35.421 143.747 35.6473 143.521 35.6473 143.241H44.2459C44.2459 143.66 44.5856 144 45.0046 144H59.42C59.839 144 60.1787 143.66 60.1787 143.241H64.2251C64.2251 143.66 64.5647 144 64.9838 144H79.3991C79.8181 144 80.1578 143.66 80.1578 143.241H206.355C213.339 143.241 219 137.58 219 130.596V48.4037C219 41.4201 213.339 35.7587 206.355 35.7587L74.8469 35.7587C74.8469 35.3396 74.5072 35 74.0882 35L50.3155 35C49.8965 35 49.5568 35.3396 49.5568 35.7587L13.645 35.7587C6.66138 35.7587 1 41.4201 1 48.4037L1 130.596Z" stroke="#004586" stroke-width="2" stroke-miterlimit="16" stroke-linejoin="round"/>
<path fill-rule="evenodd" clip-rule="evenodd" d="M50.4747 5.68517C50.8953 5.84663 51.1066 6.3215 50.9465 6.74582L48.338 12.6605C48.1779 13.0848 47.7072 13.2979 47.2865 13.1365C46.8659 12.975 46.6546 12.5001 46.8147 12.0758L48.6939 8.09439C44.189 10.39 39.892 13.127 36.1129 16.5C32.1944 19.9974 28.7525 24.2225 26.4821 28.9812L26.4747 28.9967L26.4732 29L25 28.2966L25.0011 28.2943L25.0038 28.2886L25.0134 28.2683C27.4413 23.1794 31.1174 18.706 35.3388 15C39.1945 11.615 43.5554 8.85619 48.1252 6.54246L44.04 5.59057C43.6193 5.4291 43.4081 4.95423 43.5682 4.52991C43.7282 4.10559 44.199 3.8925 44.6197 4.05397L50.4747 5.68517Z" fill="#004586"/>
<path fill-rule="evenodd" clip-rule="evenodd" d="M170.525 173.315C170.105 173.153 169.893 172.678 170.054 172.254L172.662 166.339C172.822 165.915 173.293 165.702 173.713 165.864C174.134 166.025 174.345 166.5 174.185 166.924L172.306 170.906C176.811 168.61 181.108 165.873 184.887 162.5C188.806 159.003 192.248 154.777 194.518 150.019L194.525 150.003L194.527 150L196 150.703L195.999 150.706L195.996 150.711L195.987 150.732C193.559 155.821 189.883 160.294 185.661 164C181.806 167.385 177.445 170.144 172.875 172.458L176.96 173.409C177.381 173.571 177.592 174.046 177.432 174.47C177.272 174.894 176.801 175.107 176.38 174.946L170.525 173.315Z" fill="#004586"/>
</svg>
