<svg width="24" height="24" viewBox="0 0 24 24" fill="none" xmlns="http://www.w3.org/2000/svg">
<path d="M17.5692 14.4355C17.5055 13.9844 17.5779 13.5449 17.7862 13.1172C18.0004 12.6836 18.255 12.25 18.5502 11.8164C18.8511 11.3828 19.1463 10.9404 19.4357 10.4893C19.7251 10.0381 19.9132 9.56934 20 9.08301C19.7974 9.05957 19.5775 9.04199 19.3402 9.03027C19.1087 9.0127 18.8685 9.00391 18.6196 9.00391C17.7515 9.00391 16.8862 9.08887 16.0239 9.25879C15.1615 9.42871 14.302 9.65137 13.4455 9.92676C12.0894 10.3564 10.5552 10.9727 9.5822 11.3857C9.04395 11.6143 8.26551 11.9219 7.24688 12.3086C6.22825 12.6953 5.14596 13.0615 4 13.4072L4.12154 15.0771V16H18.5155C18.5155 15.3027 18.3766 14.9805 18.0988 15.0332C17.8267 15.0801 17.6502 14.8779 17.5692 14.4268V14.4355ZM16.293 12.2559C16.1078 12.2559 15.9515 12.1914 15.8242 12.0625C15.6969 11.9277 15.6332 11.7695 15.6332 11.5879C15.6332 11.4004 15.6969 11.2422 15.8242 11.1133C15.9515 10.9844 16.1078 10.9199 16.293 10.9199C16.4724 10.9199 16.6258 10.9844 16.7531 11.1133C16.8862 11.2422 16.9528 11.4004 16.9528 11.5879C16.9528 11.7695 16.8862 11.9277 16.7531 12.0625C16.6258 12.1914 16.4724 12.2559 16.293 12.2559ZM13.0548 8.35352L13.2632 8.65234H13.8448L13.6278 8.35352H13.0201H13.0548ZM13.3239 9.37305L12.5079 8.07227H15.4769L15.8416 8.50293L16.0673 8.42383L15.694 7.67676H14.331L13.9837 7H10.5545L6.42214 9.32031V10.4805L5.172 11.0869V12.4492C5.43823 12.3613 5.70447 12.2705 5.9707 12.1768C6.23693 12.083 6.50027 11.9863 6.76072 11.8867C7.02695 11.7871 7.29029 11.6875 7.55073 11.5879C7.81118 11.4824 8.06873 11.377 8.32339 11.2715C8.7401 11.1016 9.15392 10.9316 9.56484 10.7617C9.98155 10.5918 10.3983 10.4277 10.815 10.2695C11.2317 10.1055 11.6484 9.94727 12.0651 9.79492C12.4876 9.64844 12.9072 9.50781 13.3239 9.37305ZM13.7667 7.4043L14.0184 7.66797H12.9767L12.8638 7.51855H12.2474L12.3516 7.66797H12.2561L12.0998 7.74707L11.9349 7.52734H11.3272L11.5355 7.82617H11.9436L11.2664 8.16016L10.8063 7.4043H13.7754H13.7667ZM6.70863 9.5752L10.5719 7.6416L10.7108 7.85254L6.70863 9.74219V9.5752ZM5.60608 11.3154L11.9957 8.55566L12.2387 8.93359L5.56267 11.6055L5.60608 11.3154ZM14.7651 8.61719L14.548 8.30957H13.949L14.166 8.61719H14.7737H14.7651ZM14.1313 9.16211L13.9577 8.86328H13.3239L13.5062 9.16211H14.14H14.1313Z" fill="#0F7EE6"/>
</svg>
