<svg width="12" height="12" viewBox="0 0 12 12" fill="none" xmlns="http://www.w3.org/2000/svg">
<path d="M3.26426 12H4.19567C4.35909 12 4.5021 11.9174 4.58626 11.7897L7.29034 7.23918C7.3588 7.10066 7.50388 7.00264 7.65839 7.00639H10.7531C11.566 7.00951 11.9924 6.66846 11.9999 5.95511C12.0075 5.24176 11.2926 4.99345 10.7606 4.99393H7.68093C7.52596 4.99393 7.37781 4.91935 7.29785 4.78368L4.57123 0.210585C4.49056 0.0826781 4.34679 -0.00610571 4.19567 0.000328259H3.29431L3.1591 0.233113L4.62381 4.74613L4.47359 4.98642H2.03992C1.87528 4.98642 1.75126 4.91785 1.64933 4.79119L1.21367 4.21298C1.12113 4.1027 0.961752 4.01419 0.815569 4.01774H0.184617C0.0845615 4.01079 -0.00581888 4.11323 0.00434501 4.21298L0.440002 6.21793L0.00434501 7.7498C-0.00952617 7.87461 0.00338597 7.97648 0.139549 7.9901H0.815569C0.97895 7.9901 1.10783 7.91578 1.21367 7.79486L1.64933 7.20163C1.73559 7.07415 1.88603 6.99421 2.03992 6.99889H4.49612L4.63884 7.24669L3.13657 11.7597L3.26426 12Z" fill="#127EDC"/>
</svg>
