<svg width="16" height="16" viewBox="0 0 16 16" fill="none" xmlns="http://www.w3.org/2000/svg">
<g clip-path="url(#clip0)">
<path fill-rule="evenodd" clip-rule="evenodd" d="M8.83502 12.6593L8.83714 12.6573L15.5869 6.27464L15.5884 6.2733C15.6944 6.17336 15.7824 6.05673 15.8509 5.92795L15.8717 5.88884L15.8891 5.84791C15.957 5.68845 16 5.50587 16 5.30769C16 5.12287 15.9622 4.92861 15.8731 4.74414C15.8115 4.60963 15.7204 4.46623 15.5869 4.34075C15.4565 4.21819 15.3174 4.14275 15.1992 4.095C15.063 4.03627 14.9099 4 14.7451 4C14.5863 4 14.4349 4.03024 14.2947 4.08292L14.2609 4.09566L14.228 4.11111C14.1112 4.16598 13.9957 4.24103 13.8896 4.34075L13.8867 4.34349L7.99384 9.92857L2.11039 4.34074C2.00429 4.24101 1.88878 4.16598 1.77202 4.11111L1.73914 4.09566L1.70526 4.08292C1.56514 4.03024 1.41368 4 1.2549 4C1.09015 4 0.937035 4.03628 0.800813 4.09501C0.68256 4.14275 0.543454 4.21819 0.413059 4.34075C0.279545 4.46624 0.188511 4.60964 0.126856 4.74413C0.0378469 4.92861 4.67998e-08 5.12288 5.45024e-08 5.30769C6.27618e-08 5.50586 0.0430139 5.68845 0.110877 5.84791L0.128298 5.88884L0.149104 5.92796C0.217407 6.05635 0.30512 6.17269 0.410746 6.27246L7.13769 12.6593C7.26847 12.7822 7.40801 12.8577 7.5265 12.9054C7.68658 12.974 7.84653 13 7.99318 13C8.16499 13 8.3145 12.9605 8.4299 12.9171L8.46378 12.9043L8.49665 12.8889C8.61343 12.834 8.72893 12.759 8.83502 12.6593Z" fill="white"/>
</g>
<defs>
<clipPath id="clip0">
<rect y="16" width="16" height="16" transform="rotate(-90 0 16)" fill="white"/>
</clipPath>
</defs>
</svg>
