<svg width="14" height="8" viewBox="0 0 14 8" fill="none" xmlns="http://www.w3.org/2000/svg">
<path d="M11.873 6.60938C11.8173 6.20833 11.8806 5.81771 12.0629 5.4375C12.2503 5.05208 12.4731 4.66667 12.7314 4.28125C12.9948 3.89583 13.253 3.5026 13.5062 3.10156C13.7594 2.70052 13.924 2.28385 14 1.85156C13.8228 1.83073 13.6303 1.8151 13.4227 1.80469C13.2201 1.78906 13.0099 1.78125 12.7922 1.78125C12.0326 1.78125 11.2755 1.85677 10.5209 2.00781C9.76632 2.15885 9.01429 2.35677 8.26479 2.60156C7.07818 2.98345 5.73581 3.53124 4.88443 3.89844C4.41346 4.10156 3.73232 4.375 2.84102 4.71875C1.94972 5.0625 1.00271 5.38802 0 5.69531L0.106348 7.17969V8H12.701C12.701 7.38021 12.5795 7.09375 12.3364 7.14062C12.0984 7.18229 11.9439 7.0026 11.873 6.60156V6.60938ZM10.7564 4.67188C10.5943 4.67188 10.4576 4.61458 10.3462 4.5C10.2348 4.38021 10.1791 4.23958 10.1791 4.07812C10.1791 3.91146 10.2348 3.77083 10.3462 3.65625C10.4576 3.54167 10.5943 3.48438 10.7564 3.48438C10.9134 3.48438 11.0476 3.54167 11.159 3.65625C11.2755 3.77083 11.3337 3.91146 11.3337 4.07812C11.3337 4.23958 11.2755 4.38021 11.159 4.5C11.0476 4.61458 10.9134 4.67188 10.7564 4.67188ZM7.92295 1.20312L8.10526 1.46875H8.61422L8.42431 1.20312H7.89257H7.92295ZM8.15844 2.10938L7.44438 0.953125H10.0423L10.3614 1.33594L10.5589 1.26562L10.2322 0.601562H9.03961L8.73576 0H5.73521L2.11937 2.0625V3.09375L1.0255 3.63281V4.84375C1.25846 4.76562 1.49141 4.6849 1.72436 4.60156C1.95732 4.51823 2.18774 4.43229 2.41563 4.34375C2.64858 4.25521 2.879 4.16667 3.10689 4.07812C3.33478 3.98438 3.56014 3.89062 3.78296 3.79688C4.14759 3.64583 4.50968 3.49479 4.86924 3.34375C5.23386 3.19271 5.59848 3.04688 5.9631 2.90625C6.32773 2.76042 6.69235 2.61979 7.05697 2.48438C7.42666 2.35417 7.79381 2.22917 8.15844 2.10938ZM8.54585 0.359375L8.76614 0.59375H7.85458L7.75583 0.460938H7.21649L7.30765 0.59375H7.22409L7.08736 0.664062L6.94303 0.46875H6.41129L6.5936 0.734375H6.95062L6.35811 1.03125L5.95551 0.359375H8.55344H8.54585ZM2.37005 2.28906L5.75041 0.570312L5.87195 0.757812L2.37005 2.4375V2.28906ZM1.40532 3.83594L6.9962 1.38281L7.2089 1.71875L1.36734 4.09375L1.40532 3.83594ZM9.41942 1.4375L9.22952 1.16406H8.70537L8.89528 1.4375H9.42702H9.41942ZM8.86489 1.92188L8.71297 1.65625H8.15844L8.31796 1.92188H8.87249H8.86489Z" fill="#0F7EE6"/>
</svg>
