<svg width="22" height="22" viewBox="0 0 22 22" fill="none" xmlns="http://www.w3.org/2000/svg">
<path fill-rule="evenodd" clip-rule="evenodd" d="M6.72458 0.859507C5.37819 1.43245 4.20724 2.21659 3.21191 3.21191C2.21622 4.20761 1.43208 5.37856 0.859323 6.72458C0.28638 8.05678 0 9.48204 0 11C0 12.5183 0.28638 13.9434 0.859323 15.2754C1.43208 16.6218 2.21622 17.7928 3.21191 18.7881C4.20724 19.7838 5.37819 20.5679 6.72458 21.1407C8.05659 21.7134 9.48167 22 11 22C12.518 22 13.9434 21.7134 15.2754 21.1407C16.6214 20.5679 17.7924 19.7838 18.7881 18.7881C19.7834 17.7928 20.5676 16.6218 21.1407 15.2754C21.7133 13.9434 22 12.5183 22 11C22 9.48204 21.7133 8.05678 21.1407 6.72458C20.5676 5.37856 19.7834 4.20761 18.7881 3.21191C17.7924 2.21659 16.6214 1.43245 15.2754 0.859507C13.9434 0.286748 12.518 0 11 0C9.48167 0 8.05659 0.286748 6.72458 0.859507ZM11.4082 13.7501L9.17391 13.7715C9.15936 13.657 9.14498 13.5426 9.13079 13.4278C9.11642 13.3133 9.10942 13.1915 9.10942 13.0625C9.10942 12.8906 9.1201 12.7155 9.14167 12.5362C9.16304 12.3573 9.19529 12.1816 9.23823 12.0099C9.30973 11.795 9.39211 11.5908 9.48536 11.3975C9.57842 11.2042 9.68199 11.0146 9.7968 10.8282C9.91143 10.6707 10.0366 10.5203 10.1729 10.3769C10.3087 10.2339 10.4484 10.1051 10.5918 9.9903L11.4511 9.25979C11.5801 9.15973 11.6983 9.05229 11.8057 8.93748C11.9131 8.82304 12.0169 8.69422 12.1171 8.55085C12.2032 8.4364 12.2675 8.3074 12.3106 8.16403C12.3536 8.02102 12.375 7.87065 12.375 7.7129V7.69152V7.66996C12.375 7.65596 12.375 7.6414 12.375 7.62702C12.375 7.44108 12.339 7.26545 12.2675 7.1007C12.1958 6.93614 12.1028 6.79645 11.9883 6.68164C11.8164 6.55282 11.6301 6.44907 11.4298 6.3702C11.2289 6.29169 11.0142 6.25207 10.7851 6.25207C10.7564 6.25207 10.7278 6.25575 10.6992 6.26276C10.6703 6.27013 10.6417 6.27345 10.6134 6.27345C10.5559 6.27345 10.4986 6.27013 10.4414 6.26276C10.3839 6.25575 10.3196 6.25207 10.2481 6.25207C10.1906 6.25207 10.1333 6.25575 10.0762 6.26276C10.0187 6.27013 9.95436 6.27345 9.88286 6.27345C9.75386 6.30238 9.62836 6.33094 9.50692 6.35951C9.38492 6.38826 9.2668 6.42382 9.15235 6.46676C9.02335 6.50988 8.90154 6.55651 8.7871 6.60645C8.67229 6.65676 8.55785 6.71057 8.44341 6.7677C8.34297 6.81064 8.24622 6.86095 8.15334 6.91808C8.05991 6.97539 7.97072 7.03289 7.88484 7.08983L6.85358 5.28512C7.11139 5.11337 7.3869 4.9558 7.68065 4.81262C7.97403 4.66961 8.27847 4.54761 8.59378 4.44736C8.95167 4.34729 9.32061 4.26842 9.70023 4.21092C10.0795 4.15398 10.47 4.12505 10.8712 4.12505C10.9141 4.12505 10.9497 4.12505 10.9784 4.12505C11.007 4.12505 11.0356 4.12505 11.0645 4.12505C11.1074 4.12505 11.1537 4.12505 11.2042 4.12505C11.2541 4.12505 11.3008 4.12505 11.3437 4.12505C11.8593 4.12505 12.3462 4.20023 12.8047 4.35061C13.2628 4.50099 13.6782 4.71955 14.0508 5.00593C14.3802 5.26375 14.6417 5.58256 14.835 5.962C15.0283 6.34163 15.125 6.76051 15.125 7.21883C15.125 7.2332 15.125 7.24758 15.125 7.26177C15.125 7.27614 15.125 7.2907 15.125 7.30471C15.125 7.31908 15.125 7.33364 15.125 7.34765C15.125 7.3622 15.125 7.37658 15.125 7.39058C15.125 7.66296 15.0998 7.92778 15.0499 8.18559C14.9994 8.44341 14.9242 8.69422 14.8243 8.93748C14.7382 9.13835 14.6417 9.32798 14.5342 9.50692C14.4268 9.68623 14.3013 9.84729 14.1583 9.9903C14.0293 10.1337 13.8896 10.2732 13.7392 10.4092C13.5888 10.5456 13.4204 10.6779 13.2345 10.8067C13.0911 10.9071 12.9444 11.0182 12.794 11.1397C12.6436 11.2615 12.504 11.3868 12.375 11.5156C12.2461 11.6304 12.1243 11.7594 12.0097 11.9024C11.8949 12.0458 11.795 12.1962 11.7089 12.3536C11.6087 12.5399 11.5335 12.7402 11.4834 12.9551C11.4331 13.17 11.4082 13.3848 11.4082 13.5997C11.4082 13.6285 11.4082 13.657 11.4082 13.6856C11.4082 13.7145 11.4082 13.7359 11.4082 13.7501ZM9.21685 17.4668C9.07348 17.3523 8.96236 17.2056 8.88385 17.0265C8.80498 16.8476 8.76554 16.6577 8.76554 16.4571C8.76554 16.4431 8.76554 16.4285 8.76554 16.4141V16.3712C8.76554 16.1707 8.80498 15.9844 8.88385 15.8126C8.96236 15.6407 9.07348 15.4903 9.21685 15.3613C9.35986 15.2325 9.52461 15.1357 9.71092 15.0714C9.89687 15.0069 10.0902 14.9747 10.2911 14.9747C10.3051 14.9747 10.3196 14.9747 10.334 14.9747C10.348 14.9747 10.3626 14.9747 10.3769 14.9747C10.3911 14.9747 10.4092 14.9747 10.4307 14.9747C10.4521 14.9747 10.47 14.9747 10.4844 14.9747C10.6992 14.9747 10.8996 15.0069 11.0859 15.0714C11.2718 15.1357 11.4438 15.2325 11.6015 15.3613C11.7305 15.4903 11.8343 15.6407 11.9131 15.8126C11.9916 15.9844 12.0313 16.1707 12.0313 16.3712V16.4141C12.0313 16.4285 12.0313 16.4431 12.0313 16.4571C12.0313 16.6577 11.9916 16.8476 11.9131 17.0265C11.8343 17.2056 11.7305 17.3523 11.6015 17.4668C11.4438 17.5958 11.2685 17.6962 11.0752 17.7677C10.8819 17.8394 10.6849 17.8751 10.4844 17.8751C10.4554 17.8751 10.4341 17.8751 10.4199 17.8751C10.4055 17.8751 10.3911 17.8751 10.3769 17.8751C10.3626 17.8751 10.3519 17.8751 10.3447 17.8751C10.3373 17.8751 10.3266 17.8751 10.3124 17.8751C10.0977 17.8751 9.89687 17.8394 9.71092 17.7677C9.52461 17.6962 9.35986 17.5958 9.21685 17.4668Z" fill="#5CB16E"/>
</svg>
