<svg width="18" height="10" viewBox="0 0 18 10" fill="none" xmlns="http://www.w3.org/2000/svg">
<path d="M15.2653 8.26172C15.1937 7.76042 15.2751 7.27214 15.5095 6.79688C15.7504 6.3151 16.0369 5.83333 16.369 5.35156C16.7075 4.86979 17.0396 4.37826 17.3652 3.87695C17.6907 3.37565 17.9023 2.85482 18 2.31445C17.7721 2.28841 17.5247 2.26888 17.2577 2.25586C16.9973 2.23633 16.7271 2.22656 16.4471 2.22656C15.4704 2.22656 14.497 2.32096 13.5269 2.50977C12.5567 2.69857 11.5898 2.94596 10.6262 3.25195C9.10052 3.72931 7.37461 4.41406 6.27998 4.87305C5.67444 5.12695 4.7987 5.46875 3.65274 5.89844C2.50678 6.32813 1.2892 6.73503 0 7.11914L0.136734 8.97461V10H16.3299C16.3299 9.22526 16.1736 8.86719 15.8611 8.92578C15.5551 8.97786 15.3565 8.75325 15.2653 8.25195V8.26172ZM13.8296 5.83984C13.6213 5.83984 13.4455 5.76823 13.3022 5.625C13.159 5.47526 13.0874 5.29948 13.0874 5.09766C13.0874 4.88932 13.159 4.71354 13.3022 4.57031C13.4455 4.42708 13.6213 4.35547 13.8296 4.35547C14.0315 4.35547 14.204 4.42708 14.3473 4.57031C14.497 4.71354 14.5719 4.88932 14.5719 5.09766C14.5719 5.29948 14.497 5.47526 14.3473 5.625C14.204 5.76823 14.0315 5.83984 13.8296 5.83984ZM10.1867 1.50391L10.4211 1.83594H11.0754L10.8313 1.50391H10.1476H10.1867ZM10.4894 2.63672L9.57135 1.19141H12.9116L13.3218 1.66992L13.5757 1.58203L13.1557 0.751953H11.6224L11.2317 0H7.37385L2.72491 2.57813V3.86719L1.3185 4.54102V6.05469C1.61801 5.95703 1.91753 5.85612 2.21704 5.75195C2.51655 5.64779 2.81281 5.54037 3.10581 5.42969C3.40532 5.31901 3.70157 5.20833 3.99457 5.09766C4.28757 4.98047 4.57732 4.86328 4.86381 4.74609C5.33261 4.55729 5.79816 4.36849 6.26045 4.17969C6.72925 3.99089 7.19805 3.80859 7.66685 3.63281C8.13565 3.45052 8.60445 3.27474 9.07325 3.10547C9.54856 2.94271 10.0206 2.78646 10.4894 2.63672ZM10.9875 0.449219L11.2708 0.742188H10.0988L9.97179 0.576172H9.27835L9.39555 0.742188H9.28812L9.11232 0.830078L8.92675 0.585938H8.24308L8.47748 0.917969H8.93652L8.17472 1.28906L7.65708 0.449219H10.9973H10.9875ZM3.04721 2.86133L7.39338 0.712891L7.54965 0.947266L3.04721 3.04688V2.86133ZM1.80684 4.79492L8.99512 1.72852L9.26858 2.14844L1.758 5.11719L1.80684 4.79492ZM12.1107 1.79688L11.8665 1.45508H11.1926L11.4368 1.79688H12.1205H12.1107ZM11.3977 2.40234L11.2024 2.07031H10.4894L10.6945 2.40234H11.4075H11.3977Z" fill="#0F7EE6"/>
</svg>
