<svg width="18" height="18" viewBox="0 0 18 18" fill="none" xmlns="http://www.w3.org/2000/svg">
<path fill-rule="evenodd" clip-rule="evenodd" d="M17.4023 17.4023C17.8008 17.0156 18 16.5469 18 15.9961V2.00391C18 1.45313 17.8008 0.984375 17.4023 0.597656C17.0156 0.199219 16.5469 0 15.9961 0H2.00391C1.45313 0 0.978516 0.199219 0.580078 0.597656C0.193359 0.984375 0 1.45313 0 2.00391V15.9961C0 16.5469 0.193359 17.0156 0.580078 17.4023C0.978516 17.8008 1.45313 18 2.00391 18H15.9961C16.5469 18 17.0156 17.8008 17.4023 17.4023ZM16.202 16.202C16.5435 15.8705 16.7143 15.4687 16.7143 14.9967V3.00335C16.7143 2.53125 16.5435 2.12946 16.202 1.79799C15.8705 1.45647 15.4687 1.28571 14.9967 1.28571H3.00335C2.53125 1.28571 2.12444 1.45647 1.78292 1.79799C1.45145 2.12946 1.28571 2.53125 1.28571 3.00335V14.9967C1.28571 15.4687 1.45145 15.8705 1.78292 16.202C2.12444 16.5435 2.53125 16.7143 3.00335 16.7143H14.9967C15.4687 16.7143 15.8705 16.5435 16.202 16.202Z" fill="#444444"/>
</svg>
