<svg width="16" height="16" viewBox="0 0 16 16" fill="none" xmlns="http://www.w3.org/2000/svg">
<path d="M11.7127 9.62305C11.6703 9.32227 11.7185 9.0293 11.8574 8.74414C12.0002 8.45508 12.17 8.16602 12.3668 7.87695C12.5674 7.58789 12.7642 7.29297 12.9571 6.99219C13.15 6.69141 13.2754 6.37891 13.3333 6.05469C13.1982 6.03906 13.0516 6.02734 12.8934 6.01953C12.7391 6.00781 12.579 6.00195 12.4131 6.00195C11.8343 6.00195 11.2575 6.05859 10.6825 6.17188C10.1076 6.28516 9.53465 6.43359 8.9636 6.61719C8.05953 6.9036 7.03677 7.31445 6.38809 7.58984C6.02926 7.74219 5.5103 7.94727 4.83121 8.20508C4.15213 8.46289 3.4306 8.70703 2.66663 8.9375L2.74765 10.0508V10.666H12.3436C12.3436 10.2012 12.251 9.98633 12.0658 10.0215C11.8844 10.0527 11.7668 9.91797 11.7127 9.61719V9.62305ZM10.862 8.16992C10.7385 8.16992 10.6343 8.12695 10.5494 8.04102C10.4645 7.95117 10.4221 7.8457 10.4221 7.72461C10.4221 7.59961 10.4645 7.49414 10.5494 7.4082C10.6343 7.32227 10.7385 7.2793 10.862 7.2793C10.9816 7.2793 11.0838 7.32227 11.1687 7.4082C11.2574 7.49414 11.3018 7.59961 11.3018 7.72461C11.3018 7.8457 11.2574 7.95117 11.1687 8.04102C11.0838 8.12695 10.9816 8.16992 10.862 8.16992ZM8.70316 5.56836L8.84206 5.76758H9.22984L9.08515 5.56836H8.68001H8.70316ZM8.88258 6.24805L8.33854 5.38086H10.3179L10.561 5.66797L10.7115 5.61523L10.4626 5.11719H9.55395L9.32244 4.66602H7.03631L4.28138 6.21289V6.98633L3.44796 7.39063V8.29883C3.62545 8.24023 3.80294 8.17969 3.98043 8.11719C4.15791 8.05469 4.33347 7.99023 4.5071 7.92383C4.68459 7.85742 4.86015 7.79102 5.03378 7.72461C5.20741 7.6543 5.37911 7.58398 5.54888 7.51367C5.82669 7.40039 6.10257 7.28711 6.37652 7.17383C6.65433 7.06055 6.93213 6.95117 7.20994 6.8457C7.48775 6.73633 7.76556 6.63086 8.04337 6.5293C8.32503 6.43164 8.60477 6.33789 8.88258 6.24805ZM9.17775 4.93555L9.34559 5.11133H8.65107L8.57583 5.01172H8.16491L8.23436 5.11133H8.1707L8.06652 5.16406L7.95655 5.01758H7.55141L7.69032 5.2168H7.96234L7.5109 5.43945L7.20415 4.93555H9.18354H9.17775ZM4.47238 6.38281L7.04789 5.09375L7.14049 5.23438L4.47238 6.49414V6.38281ZM3.73734 7.54297L7.99707 5.70313L8.15912 5.95508L3.70841 7.73633L3.73734 7.54297ZM9.84333 5.74414L9.69864 5.53906H9.29929L9.44398 5.74414H9.84912H9.84333ZM9.42083 6.10742L9.30508 5.9082H8.88258L9.00412 6.10742H9.42662H9.42083Z" fill="#0F7EE6"/>
<circle cx="8" cy="8" r="7.5" stroke="#0F7EE6"/>
</svg>
