<svg width="24" height="24" viewBox="0 0 24 24" fill="none" xmlns="http://www.w3.org/2000/svg">
<path d="M12.1983 7.3561C12.6167 7.3561 12.9829 7.22602 13.2967 6.96585C13.6106 6.70569 13.8093 6.38309 13.893 5.99805C14.1441 5.96683 14.3533 5.86276 14.5207 5.68585C14.6985 5.50894 14.8031 5.29561 14.8345 5.04585C14.7404 4.93138 14.6201 4.83772 14.4736 4.76488C14.3272 4.69203 14.1702 4.65561 14.0029 4.65561C13.9296 4.65561 13.8616 4.66081 13.7989 4.67122C13.7361 4.68163 13.6733 4.69724 13.6106 4.71805C13.4536 4.49951 13.2496 4.3278 12.9986 4.20293C12.758 4.06764 12.4912 4 12.1983 4C12.1983 4 12.1931 4 12.1826 4C11.7223 4 11.3248 4.1613 10.99 4.4839C10.6657 4.8065 10.4983 5.19675 10.4879 5.65463C10.4879 6.12293 10.6553 6.52358 10.99 6.85659C11.3248 7.18959 11.7275 7.3561 12.1983 7.3561ZM16.7332 10.6966L14.1441 8.60488C14.1859 8.68813 14.2173 8.7922 14.2382 8.91707C14.2592 9.04195 14.2748 9.17724 14.2853 9.32293V11.2898L15.9643 11.9454C16.0062 11.9558 16.048 11.9662 16.0899 11.9766C16.1422 11.987 16.1945 11.9922 16.2468 11.9922C16.3619 11.9922 16.4665 11.9714 16.5606 11.9298C16.6652 11.8777 16.7542 11.8101 16.8274 11.7268C16.8797 11.6644 16.9215 11.5967 16.9529 11.5239C16.9843 11.4407 17 11.3522 17 11.2585C17 11.1441 16.9738 11.04 16.9215 10.9463C16.8797 10.8527 16.8169 10.7694 16.7332 10.6966ZM10.4251 13.7249L8.77746 19.0322C8.75654 19.0738 8.74085 19.1154 8.73039 19.1571C8.73039 19.1987 8.73039 19.2403 8.73039 19.282C8.73039 19.4172 8.767 19.5421 8.84023 19.6566C8.91346 19.7711 9.00761 19.8595 9.12268 19.922C9.17499 19.9428 9.22729 19.9584 9.2796 19.9688C9.34237 19.9896 9.40514 20 9.4679 20C9.61436 20 9.74513 19.9584 9.8602 19.8751C9.98573 19.8023 10.0799 19.7034 10.1427 19.5785L12.2924 15.442L10.582 13.9122C10.5506 13.881 10.5245 13.8498 10.5036 13.8185C10.4826 13.7873 10.4565 13.7561 10.4251 13.7249ZM15.7917 15.5356L15.6976 15.4263L13.5949 12.2888V9.30732C13.5949 8.93268 13.4589 8.61528 13.1869 8.35512C12.9253 8.08455 12.6063 7.94927 12.2297 7.94927C11.8426 7.94927 11.5131 8.08455 11.2411 8.35512C10.9796 8.61528 10.8488 8.93268 10.8488 9.30732V12.7883C10.8488 12.9236 10.8749 13.0485 10.9272 13.1629C10.9796 13.2774 11.0528 13.3763 11.1469 13.4595L14.1284 16.441L14.9287 19.4537C14.981 19.5993 15.0699 19.719 15.1954 19.8127C15.3314 19.9167 15.4779 19.9688 15.6348 19.9688C15.844 19.9688 16.0219 19.8959 16.1683 19.7502C16.3148 19.6046 16.388 19.4276 16.388 19.2195C16.388 19.2091 16.388 19.1987 16.388 19.1883C16.388 19.1883 16.3828 19.1831 16.3723 19.1727L15.9016 15.7854C15.912 15.7958 15.9068 15.775 15.8859 15.7229C15.865 15.6605 15.8388 15.598 15.8074 15.5356H15.7917ZM10.1583 11.9766V7.9961C10.1583 7.98569 10.1583 7.97528 10.1583 7.96488C10.1583 7.95447 10.1583 7.94407 10.1583 7.93366C10.1583 7.73593 10.1008 7.55902 9.98573 7.40293C9.88112 7.24683 9.74513 7.13756 9.57775 7.07512C9.43129 7.01268 9.11745 7.01789 8.63623 7.09073C8.16548 7.15317 7.35996 7.74114 6.21969 8.85463C6.15692 8.91707 6.10461 8.98992 6.06277 9.07317C6.03138 9.14602 6.01569 9.22927 6.01569 9.32293C6.01569 9.41659 6.03138 9.50504 6.06277 9.58829C6.10461 9.66114 6.15692 9.72878 6.21969 9.79122C6.07323 9.69756 6.03661 9.67155 6.10984 9.71317C6.18307 9.7548 6.27199 9.82244 6.3766 9.9161C6.26153 10.1971 6.16738 10.5041 6.09415 10.8371C6.03138 11.1597 6 11.4927 6 11.8361C6 11.8569 6 11.8829 6 11.9141C6 11.935 6 11.961 6 11.9922C6 12.6686 6.35045 13.0641 7.05136 13.1785C7.75226 13.293 8.32763 13.3502 8.77746 13.3502C8.78792 13.3502 8.79838 13.3502 8.80884 13.3502C9.17499 13.3502 9.48883 13.2202 9.75036 12.96C10.0119 12.6998 10.1427 12.3876 10.1427 12.0234C10.1427 12.013 10.1427 12.0078 10.1427 12.0078C10.1427 11.9974 10.1427 11.987 10.1427 11.9766H10.1583Z" fill="#5EB26D"/>
</svg>
