<svg width="8" height="12" viewBox="0 0 8 12" fill="none" xmlns="http://www.w3.org/2000/svg">
<path d="M4.50785 2.51707C4.81217 2.51707 5.07846 2.41951 5.3067 2.22439C5.53495 2.02927 5.67951 1.78732 5.74037 1.49854C5.92297 1.47512 6.07513 1.39707 6.19686 1.26439C6.3262 1.13171 6.40228 0.971707 6.42511 0.78439C6.35663 0.698537 6.26914 0.628293 6.16262 0.573659C6.05611 0.519024 5.94199 0.491707 5.82026 0.491707C5.767 0.491707 5.71755 0.49561 5.6719 0.503415C5.62625 0.51122 5.5806 0.522927 5.53495 0.538537C5.42083 0.374634 5.27247 0.245854 5.08987 0.152195C4.91488 0.0507317 4.72088 0 4.50785 0C4.50785 0 4.50404 0 4.49643 0C4.16167 0 3.87256 0.120976 3.6291 0.362927C3.39325 0.604878 3.27152 0.897561 3.26391 1.24098C3.26391 1.5922 3.38564 1.89268 3.6291 2.14244C3.87256 2.3922 4.16548 2.51707 4.50785 2.51707ZM7.80599 5.02244L5.92297 3.45366C5.9534 3.5161 5.97622 3.59415 5.99144 3.6878C6.00666 3.78146 6.01807 3.88293 6.02568 3.9922V5.46732L7.24679 5.95902C7.27722 5.96683 7.30766 5.97463 7.33809 5.98244C7.37613 5.99024 7.41417 5.99415 7.45221 5.99415C7.5359 5.99415 7.61198 5.97854 7.68046 5.94732C7.75654 5.90829 7.82121 5.85756 7.87447 5.79512C7.91251 5.74829 7.94294 5.69756 7.96576 5.64293C7.98859 5.58049 8 5.51415 8 5.4439C8 5.35805 7.98098 5.28 7.94294 5.20976C7.91251 5.13951 7.86686 5.07707 7.80599 5.02244ZM3.21826 7.29366L2.01997 11.2741C2.00476 11.3054 1.99334 11.3366 1.98573 11.3678C1.98573 11.399 1.98573 11.4302 1.98573 11.4615C1.98573 11.5629 2.01236 11.6566 2.06562 11.7424C2.11888 11.8283 2.18735 11.8946 2.27104 11.9415C2.30908 11.9571 2.34712 11.9688 2.38516 11.9766C2.43081 11.9922 2.47646 12 2.52211 12C2.62863 12 2.72373 11.9688 2.80742 11.9063C2.89872 11.8517 2.96719 11.7776 3.01284 11.6839L4.57632 8.58146L3.33238 7.43415C3.30956 7.41073 3.29054 7.38732 3.27532 7.3639C3.2601 7.34049 3.24108 7.31707 3.21826 7.29366ZM7.12126 8.65171L7.05278 8.56976L5.52354 6.21659V3.98049C5.52354 3.69951 5.42463 3.46146 5.22682 3.26634C5.03661 3.06341 4.80456 2.96195 4.53067 2.96195C4.24917 2.96195 4.00951 3.06341 3.8117 3.26634C3.62149 3.46146 3.52639 3.69951 3.52639 3.98049V6.59122C3.52639 6.69268 3.54541 6.78634 3.58345 6.8722C3.62149 6.95805 3.67475 7.0322 3.74322 7.09463L5.91156 9.33073L6.49358 11.5902C6.53162 11.6995 6.59629 11.7893 6.68759 11.8595C6.7865 11.9376 6.89301 11.9766 7.00713 11.9766C7.1593 11.9766 7.28864 11.922 7.39515 11.8127C7.50166 11.7034 7.55492 11.5707 7.55492 11.4146C7.55492 11.4068 7.55492 11.399 7.55492 11.3912C7.55492 11.3912 7.55112 11.3873 7.54351 11.3795L7.20114 8.83902C7.20875 8.84683 7.20495 8.83122 7.18973 8.7922C7.17451 8.74537 7.15549 8.69854 7.13267 8.65171H7.12126ZM3.02425 5.98244V2.99707C3.02425 2.98927 3.02425 2.98146 3.02425 2.97366C3.02425 2.96585 3.02425 2.95805 3.02425 2.95024C3.02425 2.80195 2.98241 2.66927 2.89872 2.5522C2.82263 2.43512 2.72373 2.35317 2.602 2.30634C2.49548 2.25951 2.26724 2.26341 1.91726 2.31805C1.57489 2.36488 0.989063 2.80585 0.159772 3.64098C0.114123 3.6878 0.0760818 3.74244 0.0456491 3.80488C0.0228245 3.85951 0.0114123 3.92195 0.0114123 3.9922C0.0114123 4.06244 0.0228245 4.12878 0.0456491 4.19122C0.0760818 4.24585 0.114123 4.29659 0.159772 4.34341C0.0532573 4.27317 0.0266286 4.25366 0.0798859 4.28488C0.133143 4.3161 0.197813 4.36683 0.273894 4.43707C0.190204 4.6478 0.121731 4.87805 0.0684736 5.1278C0.0228245 5.36976 0 5.61951 0 5.87707C0 5.89268 0 5.9122 0 5.93561C0 5.95122 0 5.97073 0 5.99415C0 6.50146 0.254874 6.79805 0.764622 6.8839C1.27437 6.96976 1.69282 7.01268 2.01997 7.01268C2.02758 7.01268 2.03519 7.01268 2.0428 7.01268C2.30908 7.01268 2.53733 6.91512 2.72753 6.72C2.91774 6.52488 3.01284 6.29073 3.01284 6.01756C3.01284 6.00976 3.01284 6.00585 3.01284 6.00585C3.01284 5.99805 3.01284 5.99024 3.01284 5.98244H3.02425Z" fill="#5EB26D"/>
</svg>
