<svg width="16" height="16" viewBox="0 0 16 16" fill="none" xmlns="http://www.w3.org/2000/svg">
<path d="M16 14.2188C16 14.7083 15.8229 15.125 15.4688 15.4688C15.125 15.8229 14.7083 16 14.2188 16H1.78125C1.29167 16 0.869792 15.8229 0.515625 15.4688C0.171875 15.125 0 14.7083 0 14.2188V1.78125C0 1.29167 0.171875 0.875 0.515625 0.53125C0.869792 0.177083 1.29167 0 1.78125 0H14.2188C14.7083 0 15.125 0.177083 15.4688 0.53125C15.8229 0.875 16 1.29167 16 1.78125V14.2188ZM11.5625 4.4375L7.1875 8.8125L5.32812 6.92188L3.40625 8.8125L7.1875 12.5781L13.4688 6.29688L11.5625 4.4375Z" fill="#0F7EE6"/>
</svg>
